<?xml version="1.0" encoding="UTF-8"?>
<svg height="600" width="800" xmlns="http://www.w3.org/2000/svg">
    <g id="Notes" font-family="'LucidaGrande', 'Lucida Grande', sans-serif" font-size="13">
        <rect fill="white" height="600" width="800" x="0" y="0" />
        <text id="template-version" fill="#505050" font-size="9" text-anchor="end" x="785" y="575">Template v.3.0</text>
    </g>
    <g id="Guides" stroke="rgb(39,170,225)" stroke-width="0.5">
        <path id="Capline-S" d="M18,76 l800,0" />
        <path id="Baseline-S" d="M18,146 l800,0" />
        <path id="left-margin-Ultralight-S" d="M220,56 l0,110" />
        <path id="right-margin-Ultralight-S" d="M310,56 l0,110" />
        <path id="Capline-M" d="M18,276 l800,0" />
        <path id="Baseline-M" d="M18,346 l800,0" />
        <path id="left-margin-Regular-S" d="M420,56 l0,110" />
        <path id="right-margin-Regular-S" d="M510,56 l0,110" />
        <path id="Capline-L" d="M18,476 l800,0" />
        <path id="Baseline-L" d="M18,546 l800,0" />
        <path id="left-margin-Black-S" d="M620,56 l0,110" />
        <path id="right-margin-Black-S" d="M710,56 l0,110" />
    </g>
    <g id="Symbols" fill="#000000">
        <g id="Ultralight-S">
            <path fill-rule="evenodd" d="M293.000 111.000 L293.000 111.000 C293.000 119.284 286.284 126.000 278.000 126.000 L252.000 126.000 C243.716 126.000 237.000 119.284 237.000 111.000 L237.000 111.000 C237.000 102.716 243.716 96.000 252.000 96.000 L278.000 96.000 C286.284 96.000 293.000 102.716 293.000 111.000 Z M288.000 111.000 L288.000 111.000 C288.000 116.523 283.523 121.000 278.000 121.000 L252.000 121.000 C246.477 121.000 242.000 116.523 242.000 111.000 L242.000 111.000 C242.000 105.477 246.477 101.000 252.000 101.000 L278.000 101.000 C283.523 101.000 288.000 105.477 288.000 111.000 Z" />
            <circle cx="252" cy="111" r="7.5" />
        </g>
        <g id="Regular-S" transform="translate(200,0)">
            <path fill-rule="evenodd" d="M293.000 111.000 L293.000 111.000 C293.000 119.284 286.284 126.000 278.000 126.000 L252.000 126.000 C243.716 126.000 237.000 119.284 237.000 111.000 L237.000 111.000 C237.000 102.716 243.716 96.000 252.000 96.000 L278.000 96.000 C286.284 96.000 293.000 102.716 293.000 111.000 Z M288.000 111.000 L288.000 111.000 C288.000 116.523 283.523 121.000 278.000 121.000 L252.000 121.000 C246.477 121.000 242.000 116.523 242.000 111.000 L242.000 111.000 C242.000 105.477 246.477 101.000 252.000 101.000 L278.000 101.000 C283.523 101.000 288.000 105.477 288.000 111.000 Z" />
            <circle cx="252" cy="111" r="7.5" />
        </g>
        <g id="Black-S" transform="translate(400,0)">
            <path fill-rule="evenodd" d="M293.000 111.000 L293.000 111.000 C293.000 119.284 286.284 126.000 278.000 126.000 L252.000 126.000 C243.716 126.000 237.000 119.284 237.000 111.000 L237.000 111.000 C237.000 102.716 243.716 96.000 252.000 96.000 L278.000 96.000 C286.284 96.000 293.000 102.716 293.000 111.000 Z M288.000 111.000 L288.000 111.000 C288.000 116.523 283.523 121.000 278.000 121.000 L252.000 121.000 C246.477 121.000 242.000 116.523 242.000 111.000 L242.000 111.000 C242.000 105.477 246.477 101.000 252.000 101.000 L278.000 101.000 C283.523 101.000 288.000 105.477 288.000 111.000 Z" />
            <circle cx="252" cy="111" r="7.5" />
        </g>
    </g>
</svg>
