<?xml version="1.0" encoding="UTF-8"?>
<svg height="600" width="800" xmlns="http://www.w3.org/2000/svg">
    <g id="Notes" font-family="'LucidaGrande', 'Lucida Grande', sans-serif" font-size="13">
        <rect fill="white" height="600" width="800" x="0" y="0" />
        <text id="template-version" fill="#505050" font-size="9" text-anchor="end" x="785" y="575">Template v.3.0</text>
    </g>
    <g id="Guides" stroke="rgb(39,170,225)" stroke-width="0.5">
        <path id="Capline-S" d="M18,76 l800,0" />
        <path id="Baseline-S" d="M18,146 l800,0" />
        <path id="left-margin-Ultralight-S" d="M220,56 l0,110" />
        <path id="right-margin-Ultralight-S" d="M310,56 l0,110" />
        <path id="Capline-M" d="M18,276 l800,0" />
        <path id="Baseline-M" d="M18,346 l800,0" />
        <path id="left-margin-Regular-S" d="M420,56 l0,110" />
        <path id="right-margin-Regular-S" d="M510,56 l0,110" />
        <path id="Capline-L" d="M18,476 l800,0" />
        <path id="Baseline-L" d="M18,546 l800,0" />
        <path id="left-margin-Black-S" d="M620,56 l0,110" />
        <path id="right-margin-Black-S" d="M710,56 l0,110" />
    </g>
    <g id="Symbols" fill="#000000">
        <g id="Ultralight-S">
            <path fill-rule="evenodd" d="M296.000 111.000 L296.000 129.000 C296.000 136.180 290.180 142.000 283.000 142.000 L247.000 142.000 C239.820 142.000 234.000 136.180 234.000 129.000 L234.000 93.000 C234.000 85.820 239.820 80.000 247.000 80.000 L283.000 80.000 C290.180 80.000 296.000 85.820 296.000 93.000 Z M289.000 111.000 L289.000 126.000 C289.000 130.971 284.971 135.000 280.000 135.000 L250.000 135.000 C245.029 135.000 241.000 130.971 241.000 126.000 L241.000 96.000 C241.000 91.029 245.029 87.000 250.000 87.000 L280.000 87.000 C284.971 87.000 289.000 91.029 289.000 96.000 Z" />
            <path transform="translate(256.100 117.468)" d="M7.697 4.130 Q5.285 4.130 4.177 3.099 Q3.070 2.067 3.070 -0.150 L3.070 -2.612 Q3.070 -3.947 2.465 -4.490 Q1.860 -5.034 0.383 -5.041 L0.383 -7.921 Q1.860 -7.928 2.465 -8.471 Q3.070 -9.014 3.070 -10.350 L3.070 -12.820 Q3.070 -15.026 4.168 -16.046 Q5.265 -17.066 7.697 -17.066 L8.482 -17.066 L8.482 -14.883 L7.984 -14.883 Q6.823 -14.883 6.332 -14.329 Q5.842 -13.775 5.842 -12.473 L5.842 -9.505 Q5.842 -8.235 5.108 -7.519 Q4.375 -6.802 2.956 -6.651 L2.956 -6.311 Q4.375 -6.163 5.108 -5.445 Q5.842 -4.726 5.842 -3.457 L5.842 -0.460 Q5.842 0.839 6.334 1.394 Q6.827 1.950 7.984 1.950 L8.482 1.950 L8.482 4.130 Z M10.103 4.130 L9.317 4.130 L9.317 1.950 L9.816 1.950 Q10.973 1.950 11.465 1.394 Q11.958 0.839 11.958 -0.460 L11.958 -3.457 Q11.958 -4.726 12.691 -5.445 Q13.425 -6.163 14.844 -6.311 L14.844 -6.651 Q13.425 -6.802 12.691 -7.519 Q11.958 -8.235 11.958 -9.505 L11.958 -12.473 Q11.958 -13.775 11.467 -14.329 Q10.976 -14.883 9.816 -14.883 L9.317 -14.883 L9.317 -17.066 L10.103 -17.066 Q12.538 -17.066 13.634 -16.046 Q14.730 -15.026 14.730 -12.820 L14.730 -10.350 Q14.730 -9.014 15.337 -8.471 Q15.944 -7.928 17.417 -7.921 L17.417 -5.041 Q15.940 -5.034 15.335 -4.490 Q14.730 -3.947 14.730 -2.612 L14.730 -0.150 Q14.730 2.067 13.622 3.099 Q12.515 4.130 10.103 4.130 Z" />
        </g>
        <g id="Regular-S" transform="translate(200,0)">
            <path fill-rule="evenodd" d="M296.000 111.000 L296.000 129.000 C296.000 136.180 290.180 142.000 283.000 142.000 L247.000 142.000 C239.820 142.000 234.000 136.180 234.000 129.000 L234.000 93.000 C234.000 85.820 239.820 80.000 247.000 80.000 L283.000 80.000 C290.180 80.000 296.000 85.820 296.000 93.000 Z M289.000 111.000 L289.000 126.000 C289.000 130.971 284.971 135.000 280.000 135.000 L250.000 135.000 C245.029 135.000 241.000 130.971 241.000 126.000 L241.000 96.000 C241.000 91.029 245.029 87.000 250.000 87.000 L280.000 87.000 C284.971 87.000 289.000 91.029 289.000 96.000 Z" />
            <path transform="translate(256.100 117.468)" d="M7.697 4.130 Q5.285 4.130 4.177 3.099 Q3.070 2.067 3.070 -0.150 L3.070 -2.612 Q3.070 -3.947 2.465 -4.490 Q1.860 -5.034 0.383 -5.041 L0.383 -7.921 Q1.860 -7.928 2.465 -8.471 Q3.070 -9.014 3.070 -10.350 L3.070 -12.820 Q3.070 -15.026 4.168 -16.046 Q5.265 -17.066 7.697 -17.066 L8.482 -17.066 L8.482 -14.883 L7.984 -14.883 Q6.823 -14.883 6.332 -14.329 Q5.842 -13.775 5.842 -12.473 L5.842 -9.505 Q5.842 -8.235 5.108 -7.519 Q4.375 -6.802 2.956 -6.651 L2.956 -6.311 Q4.375 -6.163 5.108 -5.445 Q5.842 -4.726 5.842 -3.457 L5.842 -0.460 Q5.842 0.839 6.334 1.394 Q6.827 1.950 7.984 1.950 L8.482 1.950 L8.482 4.130 Z M10.103 4.130 L9.317 4.130 L9.317 1.950 L9.816 1.950 Q10.973 1.950 11.465 1.394 Q11.958 0.839 11.958 -0.460 L11.958 -3.457 Q11.958 -4.726 12.691 -5.445 Q13.425 -6.163 14.844 -6.311 L14.844 -6.651 Q13.425 -6.802 12.691 -7.519 Q11.958 -8.235 11.958 -9.505 L11.958 -12.473 Q11.958 -13.775 11.467 -14.329 Q10.976 -14.883 9.816 -14.883 L9.317 -14.883 L9.317 -17.066 L10.103 -17.066 Q12.538 -17.066 13.634 -16.046 Q14.730 -15.026 14.730 -12.820 L14.730 -10.350 Q14.730 -9.014 15.337 -8.471 Q15.944 -7.928 17.417 -7.921 L17.417 -5.041 Q15.940 -5.034 15.335 -4.490 Q14.730 -3.947 14.730 -2.612 L14.730 -0.150 Q14.730 2.067 13.622 3.099 Q12.515 4.130 10.103 4.130 Z" />
        </g>
        <g id="Black-S" transform="translate(400,0)">
            <path fill-rule="evenodd" d="M296.000 111.000 L296.000 129.000 C296.000 136.180 290.180 142.000 283.000 142.000 L247.000 142.000 C239.820 142.000 234.000 136.180 234.000 129.000 L234.000 93.000 C234.000 85.820 239.820 80.000 247.000 80.000 L283.000 80.000 C290.180 80.000 296.000 85.820 296.000 93.000 Z M289.000 111.000 L289.000 126.000 C289.000 130.971 284.971 135.000 280.000 135.000 L250.000 135.000 C245.029 135.000 241.000 130.971 241.000 126.000 L241.000 96.000 C241.000 91.029 245.029 87.000 250.000 87.000 L280.000 87.000 C284.971 87.000 289.000 91.029 289.000 96.000 Z" />
            <path transform="translate(256.100 117.468)" d="M7.697 4.130 Q5.285 4.130 4.177 3.099 Q3.070 2.067 3.070 -0.150 L3.070 -2.612 Q3.070 -3.947 2.465 -4.490 Q1.860 -5.034 0.383 -5.041 L0.383 -7.921 Q1.860 -7.928 2.465 -8.471 Q3.070 -9.014 3.070 -10.350 L3.070 -12.820 Q3.070 -15.026 4.168 -16.046 Q5.265 -17.066 7.697 -17.066 L8.482 -17.066 L8.482 -14.883 L7.984 -14.883 Q6.823 -14.883 6.332 -14.329 Q5.842 -13.775 5.842 -12.473 L5.842 -9.505 Q5.842 -8.235 5.108 -7.519 Q4.375 -6.802 2.956 -6.651 L2.956 -6.311 Q4.375 -6.163 5.108 -5.445 Q5.842 -4.726 5.842 -3.457 L5.842 -0.460 Q5.842 0.839 6.334 1.394 Q6.827 1.950 7.984 1.950 L8.482 1.950 L8.482 4.130 Z M10.103 4.130 L9.317 4.130 L9.317 1.950 L9.816 1.950 Q10.973 1.950 11.465 1.394 Q11.958 0.839 11.958 -0.460 L11.958 -3.457 Q11.958 -4.726 12.691 -5.445 Q13.425 -6.163 14.844 -6.311 L14.844 -6.651 Q13.425 -6.802 12.691 -7.519 Q11.958 -8.235 11.958 -9.505 L11.958 -12.473 Q11.958 -13.775 11.467 -14.329 Q10.976 -14.883 9.816 -14.883 L9.317 -14.883 L9.317 -17.066 L10.103 -17.066 Q12.538 -17.066 13.634 -16.046 Q14.730 -15.026 14.730 -12.820 L14.730 -10.350 Q14.730 -9.014 15.337 -8.471 Q15.944 -7.928 17.417 -7.921 L17.417 -5.041 Q15.940 -5.034 15.335 -4.490 Q14.730 -3.947 14.730 -2.612 L14.730 -0.150 Q14.730 2.067 13.622 3.099 Q12.515 4.130 10.103 4.130 Z" />
        </g>
    </g>
</svg>
