<?xml version="1.0" encoding="UTF-8"?>
<svg height="600" width="800" xmlns="http://www.w3.org/2000/svg" xmlns:xlink="http://www.w3.org/1999/xlink">
    <g id="Notes" font-family="'LucidaGrande', 'Lucida Grande', sans-serif" font-size="13">
        <rect fill="white" height="600.0" width="800.0" x="0.0" y="0.0" />
        <g font-size="13">
            <text x="18.0" y="176.0">Small</text>
            <text x="18.0" y="376.0">Medium</text>
            <text x="18.0" y="576.0">Large</text>
        </g>
        <g font-size="9">
            <text x="250.0" y="30.0">Ultralight</text>
            <text x="450.0" y="30.0">Regular</text>
            <text x="650.0" y="30.0">Black</text>
            <text id="template-version" fill="#505050" text-anchor="end" x="785.0" y="575.0">Template v.3.0</text>
            <a href="https://wangchujiang.com/#/app">
                <text fill="#505050" text-anchor="end" x="785.0" y="590.0">https://wangchujiang.com/#/app</text>
            </a>
        </g>
    </g>
    <g id="Guides" stroke="rgb(39, 170, 225)" stroke-width="0.5">
        <path id="Capline-S" d="M18,76 l800,0" />
        <path id="H-reference" d="M85,145.755 L87.685,145.755 L113.369,79.287 L114.052,79.287 L114.052,76 L112.148,76 L85,145.755 Z M95.693,121.536 L130.996,121.536 L130.263,119.313 L96.474,119.313 L95.693,121.536 Z M139.15,145.755 L141.787,145.755 L114.638,76 L113.466,76 L113.466,79.287 L139.15,145.755 Z" stroke="none" />
        <path id="Baseline-S" d="M18,146 l800,0" />
        <path id="left-margin-Ultralight-S" d="M220.015,56 l0,110" />
        <path id="right-margin-Ultralight-S" d="M309.985,56 l0,110" />
        <path id="left-margin-Regular-S" d="M420.015,56 l0,110" />
        <path id="right-margin-Regular-S" d="M509.985,56 l0,110" />
        <path id="left-margin-Black-S" d="M620.015,56 l0,110" />
        <path id="right-margin-Black-S" d="M709.985,56 l0,110" />
        <path id="Capline-M" d="M18,276 l800,0" />
        <path id="Baseline-M" d="M18,346 l800,0" />
        <path id="Capline-L" d="M18,476 l800,0" />
        <path id="Baseline-L" d="M18,546 l800,0" />
    </g>
    <g id="Symbols">
        <g id="Ultralight-S">
            <path d="M284.892,124.032 C284.789,124.115 284.789,124.115 284.687,124.196 C279.328,128.429 274.598,129.286 266.958,128.808 C264.889,128.678 264.656,128.666 263.911,128.666 C260.75,128.666 258.991,129.113 257.246,130.511 C256.74,130.916 256.263,131.377 255.628,132.051 C255.399,132.293 254.249,133.543 253.88,133.934 C253.695,134.134 253.484,134.285 253.249,134.388 C252.791,134.596 252.293,134.596 251.859,134.399 C251.568,134.274 251.351,134.122 251.172,133.932 L242.032,124.881 C241.813,124.67 241.667,124.451 241.572,124.208 C241.445,123.902 241.394,123.644 241.397,123.383 C241.386,122.818 241.586,122.352 241.946,122.027 C244.96,119.199 244.838,119.319 245.544,118.384 C246.869,116.631 247.33,114.852 247.33,111.941 C247.33,111.162 247.312,110.821 247.191,108.834 C246.649,99.964 247.968,94.58 254.398,88.139 C256.659,85.87 259.36,84.091 262.335,82.911 C265.365,81.713 268.612,81.151 271.871,81.261 C278.499,81.461 284.726,84.444 289.031,89.475 C295.58,97.112 296.591,108.05 291.552,116.756 C289.918,119.575 287.719,122.028 285.093,123.961 L286.648,126.074 L286.649,123.45 L286.54,123.45 C285.941,123.45 285.359,123.655 284.892,124.032 Z M288.188,128.115 L286.54,126.074 L286.54,128.697 L286.648,128.697 C287.208,128.697 287.753,128.518 288.204,128.187 C291.41,125.826 294.096,122.83 296.093,119.386 C302.248,108.75 301.014,95.388 293.016,86.061 C287.752,79.909 280.135,76.261 272.039,76.017 C268.069,75.882 264.105,76.568 260.403,78.032 C256.757,79.479 253.449,81.658 250.683,84.434 C242.994,92.136 241.329,98.932 241.953,109.154 C242.066,110.997 242.082,111.319 242.082,111.941 C242.082,113.805 241.903,114.5 241.358,115.22 C240.93,115.786 240.956,115.761 238.391,118.168 C236.938,119.482 236.107,121.408 236.15,123.415 C236.141,124.309 236.33,125.274 236.707,126.172 C237.052,127.064 237.629,127.929 238.371,128.64 L247.415,137.593 C248.023,138.242 248.837,138.812 249.742,139.2 C251.503,139.999 253.58,139.999 255.392,139.178 C256.255,138.797 257.053,138.228 257.713,137.518 C258.097,137.11 259.245,135.863 259.446,135.65 C259.927,135.139 260.251,134.827 260.527,134.606 C261.186,134.077 261.834,133.913 263.911,133.913 C264.492,133.913 264.722,133.925 266.63,134.045 C275.44,134.596 281.339,133.527 287.939,128.314 C288.064,128.215 288.064,128.215 288.188,128.115 Z M237.273,124.182 L231.977,129.467 C229.899,131.304 229.383,134.522 230.856,137.052 L231.312,137.63 L238.693,144.675 C240.8,146.86 244.317,146.174 246.81,143.849 L251.914,138.406 C252.904,137.349 252.849,135.688 251.792,134.698 C250.734,133.708 249.074,133.763 248.083,134.82 L243.105,140.138 C242.813,140.402 242.369,140.642 242.048,140.705 C242.021,140.71 242.195,140.751 242.392,140.955 L234.935,133.834 L233.124,135.732 L235.391,134.412 C235.175,134.042 235.251,133.571 235.571,133.287 L240.98,127.896 C242.005,126.872 242.007,125.211 240.983,124.185 C239.96,123.16 238.299,123.158 237.273,124.182 Z" />
            <path d="M274.675,87.545 L256.964,102.492 C256.56,102.814 256.191,103.284 255.944,103.82 C255.718,104.324 255.598,104.841 255.58,105.368 L255.645,106.047 C255.776,106.618 256.039,107.151 256.412,107.604 C256.648,107.89 256.942,108.123 257.275,108.287 C257.785,108.539 258.346,108.669 258.915,108.667 L258.905,106.043 L258.308,108.598 L268.498,110.977 L266.636,107.506 L262.229,119.337 C262.115,119.542 262.007,120.028 262.015,120.518 C262.036,121.723 262.874,122.759 264.048,123.029 L264.23,123.071 L264.459,123.123 C265.261,123.304 266.101,123.099 266.729,122.569 L284.44,107.621 L282.748,105.616 L282.555,108.233 C283.875,108.331 285.133,107.654 285.779,106.499 C286.112,105.928 286.28,105.227 286.238,104.522 L286.176,104.088 C286.045,103.516 285.782,102.983 285.409,102.531 C285.173,102.244 284.879,102.012 284.546,101.847 C284.033,101.594 283.467,101.464 282.894,101.468 L282.913,104.091 L283.509,101.536 L273.357,99.168 L275.236,102.592 L279.336,90.915 L276.861,90.046 L278.896,91.702 C279.445,91.027 279.66,90.139 279.48,89.287 C279.268,88.281 278.486,87.491 277.482,87.268 L277.262,87.219 L276.693,89.78 L278.211,87.641 L277.886,87.41 C276.91,86.718 275.59,86.773 274.675,87.545 Z M278.06,91.555 L276.367,89.55 L274.849,91.689 L275.174,91.92 C275.46,92.122 275.782,92.266 276.124,92.342 L276.344,92.391 L276.913,89.829 L274.346,90.372 C274.199,89.673 274.375,88.945 274.826,88.39 C274.635,88.625 274.486,88.891 274.385,89.177 L270.285,100.854 C269.768,102.327 270.644,103.923 272.165,104.278 L282.316,106.646 L282.931,106.715 C282.686,106.717 282.443,106.661 282.223,106.552 L283.385,104.2 L281.361,105.869 C281.215,105.693 281.113,105.486 281.062,105.263 L283.619,104.675 L281,104.829 C280.981,104.503 281.058,104.18 281.222,103.898 C281.549,103.312 282.229,102.947 282.942,103 C282.257,102.949 281.58,103.169 281.056,103.611 L263.345,118.559 L265.037,120.564 L265.615,118.005 L265.398,117.956 L265.228,117.917 L264.638,120.473 L267.261,120.428 C267.267,120.766 267.193,121.101 267.044,121.405 L271.553,109.338 C272.105,107.856 271.231,106.227 269.691,105.867 L259.501,103.488 L258.894,103.42 C259.138,103.419 259.379,103.474 259.598,103.582 L258.436,105.935 L260.46,104.266 C260.605,104.442 260.707,104.649 260.759,104.871 L258.202,105.459 L260.824,105.55 C260.818,105.702 260.784,105.852 260.722,105.99 C260.615,106.222 260.472,106.405 260.292,106.548 L278.06,91.555 Z" />
        </g>
        <g id="Regular-S">
            <path d="M484.892,124.032 C484.789,124.115 484.789,124.115 484.687,124.196 C479.328,128.429 474.598,129.286 466.958,128.808 C464.889,128.678 464.656,128.666 463.911,128.666 C460.75,128.666 458.991,129.113 457.246,130.511 C456.74,130.916 456.263,131.377 455.628,132.051 C455.399,132.293 454.249,133.543 453.88,133.934 C453.695,134.134 453.484,134.285 453.249,134.388 C452.791,134.596 452.293,134.596 451.859,134.399 C451.568,134.274 451.351,134.122 451.172,133.932 L442.032,124.881 C441.813,124.67 441.667,124.451 441.572,124.208 C441.445,123.902 441.394,123.644 441.397,123.383 C441.386,122.818 441.586,122.352 441.946,122.027 C444.96,119.199 444.838,119.319 445.544,118.384 C446.869,116.631 447.33,114.852 447.33,111.941 C447.33,111.162 447.312,110.821 447.191,108.834 C446.65,99.964 447.968,94.58 454.398,88.139 C456.659,85.87 459.36,84.091 462.335,82.911 C465.365,81.713 468.612,81.151 471.871,81.261 C478.499,81.461 484.726,84.444 489.031,89.475 C495.58,97.112 496.591,108.05 491.552,116.756 C489.918,119.575 487.719,122.028 485.093,123.961 L486.648,126.074 L486.649,123.45 L486.54,123.45 C485.941,123.45 485.359,123.655 484.892,124.032 Z M488.188,128.115 L486.54,126.074 L486.54,128.697 L486.648,128.697 C487.208,128.697 487.753,128.518 488.204,128.187 C491.41,125.826 494.096,122.83 496.093,119.386 C502.248,108.75 501.014,95.388 493.016,86.061 C487.752,79.909 480.135,76.261 472.039,76.017 C468.069,75.882 464.105,76.568 460.403,78.032 C456.757,79.479 453.45,81.658 450.683,84.434 C442.994,92.136 441.329,98.932 441.953,109.154 C442.066,110.997 442.082,111.319 442.082,111.941 C442.082,113.805 441.903,114.5 441.358,115.22 C440.93,115.786 440.956,115.761 438.391,118.168 C436.938,119.482 436.107,121.408 436.15,123.415 C436.141,124.309 436.33,125.274 436.707,126.172 C437.052,127.064 437.629,127.929 438.371,128.64 L447.415,137.593 C448.023,138.242 448.837,138.812 449.742,139.2 C451.503,139.999 453.58,139.999 455.392,139.178 C456.255,138.797 457.053,138.228 457.713,137.518 C458.097,137.11 459.245,135.863 459.446,135.65 C459.927,135.139 460.251,134.827 460.527,134.606 C461.186,134.077 461.834,133.913 463.911,133.913 C464.492,133.913 464.722,133.925 466.63,134.045 C475.44,134.596 481.339,133.527 487.939,128.314 C488.064,128.215 488.064,128.215 488.188,128.115 Z M437.273,124.182 L431.977,129.467 C429.899,131.304 429.383,134.522 430.856,137.052 L431.312,137.63 L438.693,144.675 C440.8,146.86 444.317,146.174 446.81,143.849 L451.914,138.406 C452.904,137.349 452.849,135.688 451.792,134.698 C450.734,133.708 449.074,133.763 448.083,134.82 L443.105,140.138 C442.813,140.402 442.369,140.642 442.048,140.705 C442.021,140.71 442.195,140.751 442.392,140.955 L434.935,133.834 L433.124,135.732 L435.391,134.412 C435.175,134.042 435.251,133.571 435.571,133.287 L440.98,127.896 C442.005,126.872 442.007,125.211 440.983,124.185 C439.96,123.16 438.299,123.158 437.273,124.182 Z" />
            <path d="M474.675,87.545 L456.964,102.492 C456.56,102.814 456.191,103.284 455.944,103.82 C455.718,104.324 455.598,104.841 455.58,105.368 L455.645,106.047 C455.776,106.618 456.039,107.151 456.412,107.604 C456.648,107.89 456.942,108.123 457.275,108.287 C457.785,108.539 458.346,108.669 458.915,108.667 L458.905,106.043 L458.308,108.598 L468.499,110.977 L466.636,107.506 L462.229,119.337 C462.115,119.542 462.007,120.028 462.015,120.518 C462.036,121.723 462.874,122.759 464.048,123.029 L464.23,123.071 L464.459,123.123 C465.261,123.304 466.101,123.099 466.729,122.569 L484.44,107.621 L482.748,105.616 L482.555,108.233 C483.875,108.331 485.133,107.654 485.779,106.499 C486.112,105.928 486.28,105.227 486.238,104.522 L486.176,104.088 C486.045,103.516 485.782,102.983 485.409,102.531 C485.173,102.244 484.879,102.012 484.546,101.847 C484.033,101.594 483.467,101.464 482.894,101.468 L482.913,104.091 L483.509,101.536 L473.357,99.168 L475.236,102.592 L479.336,90.915 L476.861,90.046 L478.896,91.702 C479.445,91.027 479.66,90.139 479.48,89.287 C479.268,88.281 478.486,87.491 477.482,87.268 L477.262,87.219 L476.693,89.78 L478.211,87.641 L477.886,87.41 C476.91,86.718 475.59,86.773 474.675,87.545 Z M478.06,91.555 L476.368,89.55 L474.849,91.689 L475.175,91.92 C475.46,92.122 475.782,92.266 476.124,92.342 L476.344,92.391 L476.913,89.829 L474.346,90.372 C474.199,89.673 474.375,88.945 474.826,88.39 C474.635,88.625 474.486,88.891 474.385,89.177 L470.285,100.854 C469.768,102.327 470.644,103.923 472.165,104.278 L482.316,106.646 L482.931,106.715 C482.686,106.717 482.443,106.661 482.223,106.552 L483.385,104.2 L481.361,105.869 C481.215,105.693 481.113,105.486 481.062,105.263 L483.619,104.675 L481,104.829 C480.981,104.503 481.058,104.18 481.222,103.898 C481.549,103.312 482.229,102.947 482.942,103 C482.257,102.949 481.58,103.169 481.056,103.611 L463.345,118.559 L465.037,120.564 L465.615,118.005 L465.398,117.956 L465.228,117.917 L464.638,120.473 L467.261,120.428 C467.267,120.766 467.193,121.101 467.044,121.405 L471.553,109.338 C472.105,107.856 471.231,106.227 469.691,105.867 L459.501,103.488 L458.894,103.42 C459.138,103.419 459.379,103.474 459.598,103.582 L458.436,105.935 L460.46,104.266 C460.605,104.442 460.708,104.649 460.759,104.871 L458.202,105.459 L460.824,105.55 C460.818,105.702 460.784,105.852 460.722,105.99 C460.615,106.222 460.472,106.405 460.292,106.548 L478.06,91.555 Z" />
        </g>
        <g id="Black-S">
            <path d="M684.892,124.032 C684.789,124.115 684.789,124.115 684.687,124.196 C679.328,128.429 674.598,129.286 666.958,128.808 C664.889,128.678 664.656,128.666 663.911,128.666 C660.75,128.666 658.991,129.113 657.246,130.511 C656.74,130.916 656.263,131.377 655.628,132.051 C655.399,132.293 654.249,133.543 653.88,133.934 C653.695,134.134 653.484,134.285 653.249,134.388 C652.791,134.596 652.293,134.596 651.859,134.399 C651.568,134.274 651.351,134.122 651.172,133.932 L642.032,124.881 C641.813,124.67 641.667,124.451 641.572,124.208 C641.445,123.902 641.394,123.644 641.397,123.383 C641.386,122.818 641.586,122.352 641.946,122.027 C644.96,119.199 644.838,119.319 645.544,118.384 C646.869,116.631 647.33,114.852 647.33,111.941 C647.33,111.162 647.312,110.821 647.191,108.834 C646.649,99.964 647.968,94.58 654.398,88.139 C656.659,85.87 659.36,84.091 662.335,82.911 C665.365,81.713 668.612,81.151 671.871,81.261 C678.499,81.461 684.726,84.444 689.031,89.475 C695.58,97.112 696.591,108.05 691.552,116.756 C689.918,119.575 687.719,122.028 685.093,123.961 L686.648,126.074 L686.649,123.45 L686.54,123.45 C685.941,123.45 685.359,123.655 684.892,124.032 Z M688.188,128.115 L686.54,126.074 L686.54,128.697 L686.648,128.697 C687.208,128.697 687.753,128.518 688.204,128.187 C691.41,125.826 694.096,122.83 696.093,119.386 C702.248,108.75 701.014,95.388 693.016,86.061 C687.752,79.909 680.135,76.261 672.039,76.017 C668.069,75.882 664.105,76.568 660.403,78.032 C656.757,79.479 653.45,81.658 650.683,84.434 C642.994,92.136 641.329,98.932 641.953,109.154 C642.066,110.997 642.082,111.319 642.082,111.941 C642.082,113.805 641.903,114.5 641.358,115.22 C640.93,115.786 640.956,115.761 638.391,118.168 C636.938,119.482 636.107,121.408 636.15,123.415 C636.141,124.309 636.33,125.274 636.707,126.172 C637.052,127.064 637.629,127.929 638.371,128.64 L647.415,137.593 C648.023,138.242 648.837,138.812 649.742,139.2 C651.503,139.999 653.58,139.999 655.392,139.178 C656.255,138.797 657.053,138.228 657.713,137.518 C658.097,137.11 659.245,135.863 659.446,135.65 C659.927,135.139 660.251,134.827 660.527,134.606 C661.186,134.077 661.834,133.913 663.911,133.913 C664.492,133.913 664.722,133.925 666.63,134.045 C675.44,134.596 681.339,133.527 687.939,128.314 C688.064,128.215 688.064,128.215 688.188,128.115 Z M637.273,124.182 L631.977,129.467 C629.899,131.304 629.383,134.522 630.856,137.052 L631.312,137.63 L638.693,144.675 C640.8,146.86 644.317,146.174 646.81,143.849 L651.914,138.406 C652.904,137.349 652.849,135.688 651.792,134.698 C650.734,133.708 649.074,133.763 648.083,134.82 L643.105,140.138 C642.813,140.402 642.369,140.642 642.048,140.705 C642.021,140.71 642.195,140.751 642.392,140.955 L634.935,133.834 L633.124,135.732 L635.391,134.412 C635.175,134.042 635.251,133.571 635.571,133.287 L640.98,127.896 C642.005,126.872 642.007,125.211 640.983,124.185 C639.96,123.16 638.299,123.158 637.273,124.182 Z" />
            <path d="M674.675,87.545 L656.964,102.492 C656.56,102.814 656.191,103.284 655.944,103.82 C655.718,104.324 655.598,104.841 655.58,105.368 L655.645,106.047 C655.776,106.618 656.039,107.151 656.412,107.604 C656.648,107.89 656.942,108.123 657.275,108.287 C657.785,108.539 658.346,108.669 658.915,108.667 L658.905,106.043 L658.308,108.598 L668.498,110.977 L666.636,107.506 L662.229,119.337 C662.115,119.542 662.007,120.028 662.015,120.518 C662.036,121.723 662.874,122.759 664.048,123.029 L664.23,123.071 L664.459,123.123 C665.261,123.304 666.101,123.099 666.729,122.569 L684.44,107.621 L682.748,105.616 L682.555,108.233 C683.875,108.331 685.133,107.654 685.779,106.499 C686.112,105.928 686.28,105.227 686.238,104.522 L686.176,104.088 C686.045,103.516 685.782,102.983 685.409,102.531 C685.173,102.244 684.879,102.012 684.546,101.847 C684.033,101.594 683.467,101.464 682.894,101.468 L682.913,104.091 L683.509,101.536 L673.357,99.168 L675.236,102.592 L679.336,90.915 L676.861,90.046 L678.896,91.702 C679.445,91.027 679.66,90.139 679.48,89.287 C679.268,88.281 678.486,87.491 677.482,87.268 L677.262,87.219 L676.693,89.78 L678.211,87.641 L677.886,87.41 C676.91,86.718 675.59,86.773 674.675,87.545 Z M678.06,91.555 L676.367,89.55 L674.849,91.689 L675.174,91.92 C675.46,92.122 675.782,92.266 676.124,92.342 L676.344,92.391 L676.913,89.829 L674.346,90.372 C674.199,89.673 674.375,88.945 674.826,88.39 C674.635,88.625 674.486,88.891 674.385,89.177 L670.286,100.854 C669.768,102.327 670.644,103.923 672.165,104.278 L682.316,106.646 L682.932,106.715 C682.686,106.717 682.443,106.661 682.223,106.552 L683.385,104.2 L681.361,105.869 C681.215,105.693 681.113,105.486 681.062,105.263 L683.619,104.675 L681,104.829 C680.981,104.503 681.058,104.18 681.222,103.898 C681.549,103.312 682.229,102.947 682.942,103 C682.257,102.949 681.58,103.169 681.056,103.611 L663.345,118.559 L665.037,120.564 L665.615,118.005 L665.398,117.956 L665.228,117.917 L664.638,120.473 L667.261,120.428 C667.267,120.766 667.193,121.101 667.044,121.405 L671.553,109.338 C672.105,107.856 671.231,106.227 669.691,105.867 L659.501,103.488 L658.894,103.42 C659.138,103.419 659.379,103.474 659.598,103.582 L658.436,105.935 L660.46,104.266 C660.605,104.442 660.708,104.649 660.759,104.871 L658.202,105.459 L660.824,105.55 C660.818,105.702 660.784,105.852 660.722,105.99 C660.615,106.222 660.472,106.405 660.292,106.548 L678.06,91.555 Z" />
        </g>
    </g>
</svg>