<?xml version="1.0" encoding="UTF-8"?>
<svg height="600" width="800" xmlns="http://www.w3.org/2000/svg">
    <g id="Notes" font-family="'LucidaGrande', 'Lucida Grande', sans-serif" font-size="13">
        <rect fill="white" height="600" width="800" x="0" y="0" />
        <text id="template-version" fill="#505050" font-size="9" text-anchor="end" x="785" y="575">Template v.3.0</text>
    </g>
    <g id="Guides" stroke="rgb(39,170,225)" stroke-width="0.5">
        <path id="Capline-S" d="M18,76 l800,0" />
        <path id="Baseline-S" d="M18,146 l800,0" />
        <path id="left-margin-Ultralight-S" d="M220,56 l0,110" />
        <path id="right-margin-Ultralight-S" d="M310,56 l0,110" />
        <path id="Capline-M" d="M18,276 l800,0" />
        <path id="Baseline-M" d="M18,346 l800,0" />
        <path id="left-margin-Regular-S" d="M420,56 l0,110" />
        <path id="right-margin-Regular-S" d="M510,56 l0,110" />
        <path id="Capline-L" d="M18,476 l800,0" />
        <path id="Baseline-L" d="M18,546 l800,0" />
        <path id="left-margin-Black-S" d="M620,56 l0,110" />
        <path id="right-margin-Black-S" d="M710,56 l0,110" />
    </g>
    <g id="Symbols" fill="#000000">
        <g id="Ultralight-S">
            <path fill-rule="evenodd" d="M296.000 111.000 L296.000 129.000 C296.000 136.180 290.180 142.000 283.000 142.000 L247.000 142.000 C239.820 142.000 234.000 136.180 234.000 129.000 L234.000 93.000 C234.000 85.820 239.820 80.000 247.000 80.000 L283.000 80.000 C290.180 80.000 296.000 85.820 296.000 93.000 Z M289.000 111.000 L289.000 126.000 C289.000 130.971 284.971 135.000 280.000 135.000 L250.000 135.000 C245.029 135.000 241.000 130.971 241.000 126.000 L241.000 96.000 C241.000 91.029 245.029 87.000 250.000 87.000 L280.000 87.000 C284.971 87.000 289.000 91.029 289.000 96.000 Z" />
            <path transform="translate(253.145 119.455)" d="M1.601 -0.000 L1.601 -16.910 L4.616 -16.910 L4.616 -0.000 Z M7.887 -0.000 L7.887 -16.910 L14.091 -16.910 Q16.615 -16.910 18.407 -15.925 Q20.198 -14.939 21.153 -13.067 Q22.108 -11.196 22.108 -8.525 L22.108 -8.501 Q22.108 -5.821 21.157 -3.915 Q20.206 -2.009 18.415 -1.005 Q16.625 -0.000 14.091 -0.000 Z M10.902 -2.547 L13.757 -2.547 Q15.459 -2.547 16.636 -3.231 Q17.813 -3.914 18.422 -5.237 Q19.032 -6.559 19.032 -8.480 L19.032 -8.503 Q19.032 -10.388 18.415 -11.698 Q17.797 -13.008 16.618 -13.685 Q15.440 -14.363 13.757 -14.363 L10.902 -14.363 Z" />
        </g>
        <g id="Regular-S" transform="translate(200,0)">
            <path fill-rule="evenodd" d="M296.000 111.000 L296.000 129.000 C296.000 136.180 290.180 142.000 283.000 142.000 L247.000 142.000 C239.820 142.000 234.000 136.180 234.000 129.000 L234.000 93.000 C234.000 85.820 239.820 80.000 247.000 80.000 L283.000 80.000 C290.180 80.000 296.000 85.820 296.000 93.000 Z M289.000 111.000 L289.000 126.000 C289.000 130.971 284.971 135.000 280.000 135.000 L250.000 135.000 C245.029 135.000 241.000 130.971 241.000 126.000 L241.000 96.000 C241.000 91.029 245.029 87.000 250.000 87.000 L280.000 87.000 C284.971 87.000 289.000 91.029 289.000 96.000 Z" />
            <path transform="translate(253.145 119.455)" d="M1.601 -0.000 L1.601 -16.910 L4.616 -16.910 L4.616 -0.000 Z M7.887 -0.000 L7.887 -16.910 L14.091 -16.910 Q16.615 -16.910 18.407 -15.925 Q20.198 -14.939 21.153 -13.067 Q22.108 -11.196 22.108 -8.525 L22.108 -8.501 Q22.108 -5.821 21.157 -3.915 Q20.206 -2.009 18.415 -1.005 Q16.625 -0.000 14.091 -0.000 Z M10.902 -2.547 L13.757 -2.547 Q15.459 -2.547 16.636 -3.231 Q17.813 -3.914 18.422 -5.237 Q19.032 -6.559 19.032 -8.480 L19.032 -8.503 Q19.032 -10.388 18.415 -11.698 Q17.797 -13.008 16.618 -13.685 Q15.440 -14.363 13.757 -14.363 L10.902 -14.363 Z" />
        </g>
        <g id="Black-S" transform="translate(400,0)">
            <path fill-rule="evenodd" d="M296.000 111.000 L296.000 129.000 C296.000 136.180 290.180 142.000 283.000 142.000 L247.000 142.000 C239.820 142.000 234.000 136.180 234.000 129.000 L234.000 93.000 C234.000 85.820 239.820 80.000 247.000 80.000 L283.000 80.000 C290.180 80.000 296.000 85.820 296.000 93.000 Z M289.000 111.000 L289.000 126.000 C289.000 130.971 284.971 135.000 280.000 135.000 L250.000 135.000 C245.029 135.000 241.000 130.971 241.000 126.000 L241.000 96.000 C241.000 91.029 245.029 87.000 250.000 87.000 L280.000 87.000 C284.971 87.000 289.000 91.029 289.000 96.000 Z" />
            <path transform="translate(253.145 119.455)" d="M1.601 -0.000 L1.601 -16.910 L4.616 -16.910 L4.616 -0.000 Z M7.887 -0.000 L7.887 -16.910 L14.091 -16.910 Q16.615 -16.910 18.407 -15.925 Q20.198 -14.939 21.153 -13.067 Q22.108 -11.196 22.108 -8.525 L22.108 -8.501 Q22.108 -5.821 21.157 -3.915 Q20.206 -2.009 18.415 -1.005 Q16.625 -0.000 14.091 -0.000 Z M10.902 -2.547 L13.757 -2.547 Q15.459 -2.547 16.636 -3.231 Q17.813 -3.914 18.422 -5.237 Q19.032 -6.559 19.032 -8.480 L19.032 -8.503 Q19.032 -10.388 18.415 -11.698 Q17.797 -13.008 16.618 -13.685 Q15.440 -14.363 13.757 -14.363 L10.902 -14.363 Z" />
        </g>
    </g>
</svg>
