<?xml version="1.0" encoding="UTF-8"?>
<svg height="600" width="800" xmlns="http://www.w3.org/2000/svg" xmlns:xlink="http://www.w3.org/1999/xlink">
    <g id="Notes" font-family="'LucidaGrande', 'Lucida Grande', sans-serif" font-size="13">
        <rect fill="white" height="600.0" width="800.0" x="0.0" y="0.0" />
        <g font-size="13">
            <text x="18.0" y="176.0">Small</text>
            <text x="18.0" y="376.0">Medium</text>
            <text x="18.0" y="576.0">Large</text>
        </g>
        <g font-size="9">
            <text x="250.0" y="30.0">Ultralight</text>
            <text x="450.0" y="30.0">Regular</text>
            <text x="650.0" y="30.0">Black</text>
            <text id="template-version" fill="#505050" text-anchor="end" x="785.0" y="575.0">Template v.3.0</text>
            <a href="https://wangchujiang.com/#/app">
                <text fill="#505050" text-anchor="end" x="785.0" y="590.0">https://wangchujiang.com/#/app</text>
            </a>
        </g>
    </g>
    <g id="Guides" stroke="rgb(39, 170, 225)" stroke-width="0.5">
        <path id="Capline-S" d="M18,76 l800,0" />
        <path id="H-reference" d="M85,145.755 L87.685,145.755 L113.369,79.287 L114.052,79.287 L114.052,76 L112.148,76 L85,145.755 Z M95.693,121.536 L130.996,121.536 L130.263,119.313 L96.474,119.313 L95.693,121.536 Z M139.15,145.755 L141.787,145.755 L114.638,76 L113.466,76 L113.466,79.287 L139.15,145.755 Z" stroke="none" />
        <path id="Baseline-S" d="M18,146 l800,0" />
        <path id="left-margin-Ultralight-S" d="M219.326,56 l0,110" />
        <path id="right-margin-Ultralight-S" d="M310.674,56 l0,110" />
        <path id="left-margin-Regular-S" d="M419.326,56 l0,110" />
        <path id="right-margin-Regular-S" d="M510.674,56 l0,110" />
        <path id="left-margin-Black-S" d="M619.326,56 l0,110" />
        <path id="right-margin-Black-S" d="M710.674,56 l0,110" />
        <path id="Capline-M" d="M18,276 l800,0" />
        <path id="Baseline-M" d="M18,346 l800,0" />
        <path id="Capline-L" d="M18,476 l800,0" />
        <path id="Baseline-L" d="M18,546 l800,0" />
    </g>
    <g id="Symbols">
        <g id="Ultralight-S">
            <path d="M295.032,130.175 C291.139,130.068 288.167,130.432 285.624,131.503 C284.902,131.808 283.75,131.815 283.633,132.72 C284.03,133.137 284.09,133.758 284.407,134.271 C285.013,135.25 286.038,136.567 286.952,137.259 C287.951,138.011 288.981,138.818 290.051,139.47 C291.957,140.632 294.084,141.296 295.916,142.458 C296.998,143.145 298.07,144.009 299.126,144.783 C299.648,145.165 299.999,145.76 300.674,146 L300.674,145.891 C300.319,145.438 300.227,144.814 299.9,144.341 L298.461,142.901 C297.054,141.034 295.268,139.395 293.371,138.034 C291.857,136.945 288.468,135.478 287.838,133.718 L287.727,133.607 C288.8,133.484 290.056,133.096 291.048,132.83 C292.712,132.385 294.2,132.501 295.916,132.056 L298.241,131.393 L298.241,130.95 C297.372,130.06 296.753,128.881 295.807,128.074 C293.328,125.963 290.623,123.856 287.838,122.098 C286.294,121.124 284.386,120.489 282.748,119.663 C282.197,119.386 281.23,119.239 280.866,118.777 C280.007,117.682 279.538,116.293 278.875,115.015 C277.486,112.339 276.123,109.419 274.891,106.604 C274.051,104.685 273.504,102.792 272.457,101.071 C267.432,92.81 262.024,87.823 253.645,82.922 C251.861,81.879 249.715,81.467 247.447,80.929 L243.794,80.708 C243.05,80.398 242.278,79.489 241.58,79.046 C238.805,77.291 231.684,73.477 229.627,78.493 C228.33,81.657 231.569,84.745 232.726,86.35 C233.54,87.474 234.58,88.736 235.16,90.001 C235.544,90.834 235.61,91.667 235.937,92.546 C236.74,94.714 237.441,97.074 238.482,99.076 C239.007,100.09 239.587,101.156 240.253,102.064 C240.659,102.62 241.358,102.867 241.47,103.724 C240.785,104.681 240.746,106.166 240.362,107.377 C238.633,112.831 239.287,119.609 241.802,123.644 C242.574,124.885 244.393,127.541 246.892,126.522 C249.079,125.63 248.591,122.872 249.217,120.436 C249.358,119.884 249.271,119.478 249.548,119.108 L249.548,119.219 L251.541,123.201 C253.016,125.576 255.63,128.058 257.848,129.733 C258.998,130.601 259.903,132.101 261.39,132.609 L261.39,132.498 L261.279,132.498 C260.991,132.049 260.54,131.863 260.174,131.504 C259.308,130.653 258.344,129.598 257.628,128.625 C255.611,125.888 253.829,122.891 252.207,119.773 C251.43,118.284 250.756,116.642 250.102,115.126 C249.849,114.541 249.854,113.656 249.328,113.355 C248.612,114.465 247.557,115.364 247.003,116.674 C246.12,118.77 246.004,121.328 245.677,123.978 C245.483,124.048 245.568,123.999 245.455,124.089 C243.913,123.716 243.372,122.13 242.798,120.767 C241.35,117.326 241.08,111.784 242.356,107.82 C242.685,106.795 244.177,103.567 243.573,102.619 C243.285,101.675 242.334,101.127 241.802,100.405 C241.143,99.513 240.487,98.338 240.031,97.306 C238.844,94.623 238.293,91.61 237.043,88.897 C236.445,87.599 235.438,86.286 234.609,85.135 C233.691,83.857 232.664,82.914 231.953,81.371 C231.7,80.821 231.357,79.942 231.73,79.38 C231.85,78.998 232.019,78.839 232.395,78.715 C233.036,78.22 234.825,78.881 235.492,79.158 C237.268,79.895 238.748,80.597 240.253,81.594 C240.973,82.071 241.703,82.996 242.576,83.253 L243.572,83.253 C245.129,83.611 246.874,83.362 248.33,83.805 C250.904,84.588 253.209,85.805 255.303,87.126 C261.68,91.154 266.896,96.885 270.464,103.727 C271.037,104.828 271.286,105.878 271.792,107.046 C272.81,109.402 274.095,111.825 275.109,114.13 C276.123,116.426 277.109,118.747 278.541,120.659 C279.294,121.665 282.199,122.203 283.52,122.762 C284.447,123.152 285.965,123.56 286.842,124.09 C288.517,125.1 290.139,126.304 291.712,127.409 C292.495,127.963 294.911,129.178 295.031,130.177 Z M245.564,88.012 C244.752,87.997 244.179,88.099 243.573,88.232 L243.573,88.343 L243.681,88.343 C244.07,89.137 244.752,89.65 245.232,90.334 L246.337,92.659 L246.448,92.55 C247.133,92.066 247.447,91.294 247.443,90.114 C247.168,89.824 247.129,89.465 246.889,89.118 C246.575,88.658 245.962,88.398 245.563,88.012 Z M245.564,88.012" />
        </g>
        <g id="Regular-S">
            <path d="M495.032,130.175 C491.139,130.068 488.167,130.432 485.624,131.503 C484.902,131.808 483.75,131.815 483.633,132.72 C484.03,133.137 484.09,133.758 484.407,134.271 C485.013,135.25 486.038,136.567 486.952,137.259 C487.951,138.011 488.981,138.818 490.051,139.47 C491.957,140.632 494.084,141.296 495.916,142.458 C496.998,143.145 498.07,144.009 499.126,144.783 C499.648,145.165 499.999,145.76 500.674,146 L500.674,145.891 C500.319,145.438 500.227,144.814 499.9,144.341 L498.461,142.901 C497.054,141.034 495.268,139.395 493.371,138.034 C491.857,136.945 488.468,135.478 487.838,133.718 L487.727,133.607 C488.8,133.484 490.056,133.096 491.048,132.83 C492.712,132.385 494.2,132.501 495.916,132.056 L498.241,131.393 L498.241,130.95 C497.372,130.06 496.753,128.881 495.807,128.074 C493.328,125.963 490.623,123.856 487.838,122.098 C486.294,121.124 484.386,120.489 482.748,119.663 C482.197,119.386 481.23,119.239 480.866,118.777 C480.007,117.682 479.538,116.293 478.875,115.015 C477.486,112.339 476.123,109.419 474.891,106.604 C474.051,104.685 473.504,102.792 472.457,101.071 C467.432,92.81 462.024,87.823 453.645,82.922 C451.861,81.879 449.715,81.467 447.447,80.929 L443.794,80.708 C443.05,80.398 442.278,79.489 441.58,79.046 C438.805,77.291 431.684,73.477 429.627,78.493 C428.33,81.657 431.569,84.745 432.726,86.35 C433.54,87.474 434.58,88.736 435.16,90.001 C435.544,90.834 435.61,91.667 435.937,92.546 C436.74,94.714 437.441,97.074 438.482,99.076 C439.007,100.09 439.587,101.156 440.253,102.064 C440.659,102.62 441.358,102.867 441.47,103.724 C440.785,104.681 440.746,106.166 440.362,107.377 C438.633,112.831 439.287,119.609 441.802,123.644 C442.574,124.885 444.393,127.541 446.892,126.522 C449.079,125.63 448.591,122.872 449.217,120.436 C449.358,119.884 449.271,119.478 449.548,119.108 L449.548,119.219 L451.541,123.201 C453.016,125.576 455.63,128.058 457.848,129.733 C458.998,130.601 459.903,132.101 461.39,132.609 L461.39,132.498 L461.279,132.498 C460.991,132.049 460.54,131.863 460.174,131.504 C459.308,130.653 458.344,129.598 457.628,128.625 C455.611,125.888 453.829,122.891 452.207,119.773 C451.43,118.284 450.756,116.642 450.102,115.126 C449.849,114.541 449.854,113.656 449.328,113.355 C448.612,114.465 447.557,115.364 447.003,116.674 C446.12,118.77 446.004,121.328 445.677,123.978 C445.483,124.048 445.568,123.999 445.455,124.089 C443.913,123.716 443.372,122.13 442.798,120.767 C441.35,117.326 441.08,111.784 442.356,107.82 C442.685,106.795 444.177,103.567 443.573,102.619 C443.285,101.675 442.334,101.127 441.802,100.405 C441.143,99.513 440.487,98.338 440.031,97.306 C438.844,94.623 438.293,91.61 437.043,88.897 C436.445,87.599 435.438,86.286 434.609,85.135 C433.691,83.857 432.664,82.914 431.953,81.371 C431.7,80.821 431.358,79.942 431.73,79.38 C431.85,78.998 432.019,78.839 432.395,78.715 C433.036,78.22 434.825,78.881 435.492,79.158 C437.268,79.895 438.748,80.597 440.253,81.594 C440.973,82.071 441.703,82.996 442.576,83.253 L443.572,83.253 C445.129,83.611 446.874,83.362 448.33,83.805 C450.904,84.588 453.209,85.805 455.303,87.126 C461.68,91.154 466.896,96.885 470.464,103.727 C471.037,104.828 471.286,105.878 471.792,107.046 C472.81,109.402 474.095,111.825 475.109,114.13 C476.123,116.426 477.109,118.747 478.541,120.659 C479.294,121.665 482.199,122.203 483.52,122.762 C484.447,123.152 485.965,123.56 486.842,124.09 C488.517,125.1 490.139,126.304 491.712,127.409 C492.495,127.963 494.911,129.178 495.031,130.177 Z M445.564,88.012 C444.752,87.997 444.179,88.099 443.573,88.232 L443.573,88.343 L443.681,88.343 C444.07,89.137 444.752,89.65 445.232,90.334 L446.337,92.659 L446.448,92.55 C447.133,92.066 447.447,91.294 447.443,90.114 C447.168,89.824 447.129,89.465 446.889,89.118 C446.575,88.658 445.962,88.398 445.563,88.012 Z M445.564,88.012" />
        </g>
        <g id="Black-S">
            <path d="M695.032,130.175 C691.139,130.068 688.167,130.432 685.624,131.503 C684.902,131.808 683.75,131.815 683.633,132.72 C684.03,133.137 684.09,133.758 684.407,134.271 C685.013,135.25 686.038,136.567 686.952,137.259 C687.951,138.011 688.981,138.818 690.051,139.47 C691.957,140.632 694.084,141.296 695.916,142.458 C696.998,143.145 698.07,144.009 699.126,144.783 C699.648,145.165 699.999,145.76 700.674,146 L700.674,145.891 C700.319,145.438 700.227,144.814 699.9,144.341 L698.461,142.901 C697.054,141.034 695.268,139.395 693.371,138.034 C691.857,136.945 688.468,135.478 687.838,133.718 L687.727,133.607 C688.8,133.484 690.056,133.096 691.048,132.83 C692.712,132.385 694.2,132.501 695.916,132.056 L698.241,131.393 L698.241,130.95 C697.372,130.06 696.753,128.881 695.807,128.074 C693.328,125.963 690.623,123.856 687.838,122.098 C686.294,121.124 684.386,120.489 682.748,119.663 C682.197,119.386 681.23,119.239 680.866,118.777 C680.007,117.682 679.538,116.293 678.875,115.015 C677.486,112.339 676.123,109.419 674.891,106.604 C674.051,104.685 673.504,102.792 672.457,101.071 C667.432,92.81 662.024,87.823 653.645,82.922 C651.861,81.879 649.715,81.467 647.447,80.929 L643.794,80.708 C643.05,80.398 642.278,79.489 641.58,79.046 C638.805,77.291 631.684,73.477 629.627,78.493 C628.33,81.657 631.569,84.745 632.727,86.35 C633.54,87.474 634.58,88.736 635.16,90.001 C635.544,90.834 635.61,91.667 635.937,92.546 C636.74,94.714 637.441,97.074 638.482,99.076 C639.007,100.09 639.587,101.156 640.253,102.064 C640.659,102.62 641.358,102.867 641.47,103.724 C640.785,104.681 640.746,106.166 640.362,107.377 C638.633,112.831 639.287,119.609 641.802,123.644 C642.574,124.885 644.393,127.541 646.892,126.522 C649.079,125.63 648.591,122.872 649.217,120.436 C649.358,119.884 649.271,119.478 649.548,119.108 L649.548,119.219 L651.541,123.201 C653.016,125.576 655.63,128.058 657.848,129.733 C658.998,130.601 659.903,132.101 661.39,132.609 L661.39,132.498 L661.279,132.498 C660.991,132.049 660.54,131.863 660.174,131.504 C659.308,130.653 658.344,129.598 657.628,128.625 C655.611,125.888 653.829,122.891 652.207,119.773 C651.43,118.284 650.756,116.642 650.102,115.126 C649.849,114.541 649.854,113.656 649.328,113.355 C648.612,114.465 647.557,115.364 647.003,116.674 C646.12,118.77 646.004,121.328 645.677,123.978 C645.483,124.048 645.568,123.999 645.455,124.089 C643.913,123.716 643.372,122.13 642.798,120.767 C641.35,117.326 641.08,111.784 642.356,107.82 C642.685,106.795 644.177,103.567 643.573,102.619 C643.285,101.675 642.334,101.127 641.802,100.405 C641.143,99.513 640.487,98.338 640.031,97.306 C638.844,94.623 638.293,91.61 637.043,88.897 C636.445,87.599 635.438,86.286 634.609,85.135 C633.691,83.857 632.664,82.914 631.953,81.371 C631.7,80.821 631.358,79.942 631.73,79.38 C631.851,78.998 632.019,78.839 632.395,78.715 C633.036,78.22 634.825,78.881 635.492,79.158 C637.268,79.895 638.748,80.597 640.253,81.594 C640.973,82.071 641.703,82.996 642.576,83.253 L643.572,83.253 C645.129,83.611 646.874,83.362 648.331,83.805 C650.904,84.588 653.209,85.805 655.303,87.126 C661.68,91.154 666.896,96.885 670.464,103.727 C671.037,104.828 671.286,105.878 671.792,107.046 C672.81,109.402 674.095,111.825 675.109,114.13 C676.123,116.426 677.109,118.747 678.541,120.659 C679.294,121.665 682.199,122.203 683.52,122.762 C684.447,123.152 685.965,123.56 686.842,124.09 C688.517,125.1 690.139,126.304 691.712,127.409 C692.495,127.963 694.911,129.178 695.031,130.177 Z M645.564,88.012 C644.752,87.997 644.179,88.099 643.573,88.232 L643.573,88.343 L643.682,88.343 C644.07,89.137 644.752,89.65 645.232,90.334 L646.337,92.659 L646.448,92.55 C647.133,92.066 647.447,91.294 647.443,90.114 C647.168,89.824 647.129,89.465 646.889,89.118 C646.575,88.658 645.962,88.398 645.563,88.012 Z M645.564,88.012" />
        </g>
    </g>
</svg>