<?xml version="1.0" encoding="UTF-8"?>
<svg height="600" width="800" xmlns="http://www.w3.org/2000/svg" xmlns:xlink="http://www.w3.org/1999/xlink">
    <g id="Notes" font-family="'LucidaGrande', 'Lucida Grande', sans-serif" font-size="13">
        <rect fill="white" height="600.0" width="800.0" x="0.0" y="0.0" />
        <g font-size="13">
            <text x="18.0" y="176.0">Small</text>
            <text x="18.0" y="376.0">Medium</text>
            <text x="18.0" y="576.0">Large</text>
        </g>
        <g font-size="9">
            <text x="250.0" y="30.0">Ultralight</text>
            <text x="450.0" y="30.0">Regular</text>
            <text x="650.0" y="30.0">Black</text>
            <text id="template-version" fill="#505050" text-anchor="end" x="785.0" y="575.0">Template v.3.0</text>
            <a href="https://wangchujiang.com/#/app">
                <text fill="#505050" text-anchor="end" x="785.0" y="590.0">https://wangchujiang.com/#/app</text>
            </a>
        </g>
    </g>
    <g id="Guides" stroke="rgb(39, 170, 225)" stroke-width="0.5">
        <path id="Capline-S" d="M18,76 l800,0" />
        <path id="H-reference" d="M85,145.755 L87.685,145.755 L113.369,79.287 L114.052,79.287 L114.052,76 L112.148,76 L85,145.755 Z M95.693,121.536 L130.996,121.536 L130.263,119.313 L96.474,119.313 L95.693,121.536 Z M139.15,145.755 L141.787,145.755 L114.638,76 L113.466,76 L113.466,79.287 L139.15,145.755 Z" stroke="none" />
        <path id="Baseline-S" d="M18,146 l800,0" />
        <path id="left-margin-Ultralight-S" d="M219.579,56 l0,110" />
        <path id="right-margin-Ultralight-S" d="M310.421,56 l0,110" />
        <path id="left-margin-Regular-S" d="M419.579,56 l0,110" />
        <path id="right-margin-Regular-S" d="M510.421,56 l0,110" />
        <path id="left-margin-Black-S" d="M619.579,56 l0,110" />
        <path id="right-margin-Black-S" d="M710.421,56 l0,110" />
        <path id="Capline-M" d="M18,276 l800,0" />
        <path id="Baseline-M" d="M18,346 l800,0" />
        <path id="Capline-L" d="M18,476 l800,0" />
        <path id="Baseline-L" d="M18,546 l800,0" />
    </g>
    <g id="Symbols">
        <g id="Ultralight-S">
            <path d="M300.376,118.38 C300.117,116.704 298.709,115.606 297.072,115.532 C296.479,115.505 295.877,115.567 295.286,115.643 C294.572,115.733 293.867,115.894 293.154,116 C292.662,116.074 292.163,116.108 291.671,116.158 L291.659,116.095 C292.577,114.361 293.534,112.647 294.402,110.888 C295.068,109.54 295.637,108.142 296.226,106.756 C297.2,104.46 297.979,102.092 298.623,99.686 C299.241,97.382 299.769,95.053 299.935,92.663 C300.002,91.709 300.048,90.75 300.042,89.794 C300.038,89.032 299.956,88.269 299.879,87.509 C299.793,86.638 299.53,85.813 299.166,85.018 C298.686,83.972 297.941,83.113 297.158,82.297 C296.531,81.644 295.841,81.049 295.157,80.455 C294.181,79.607 293.085,78.929 291.946,78.328 C290.656,77.642 289.289,77.112 287.874,76.748 C287.016,76.53 286.139,76.367 285.27,76.194 C284.958,76.13 284.645,76 284.333,76 L278.45,76 C278.238,76 278.027,76.11 277.813,76.134 C276.404,76.291 275.013,76.556 273.661,76.975 C273.156,77.132 272.694,77.033 272.214,76.989 C271.846,76.955 271.484,76.856 271.115,76.837 C269.713,76.767 268.308,76.665 266.906,76.679 C265.563,76.693 264.233,76.914 262.933,77.284 C261.844,77.593 260.78,77.97 259.804,78.542 C259.387,78.787 259.056,78.741 258.624,78.616 C257.172,78.198 255.711,77.804 254.236,77.474 C253.317,77.268 252.372,77.166 251.434,77.068 C250.533,76.974 249.629,76.918 248.724,76.899 C247.841,76.88 246.951,76.881 246.071,76.959 C244.671,77.08 243.29,77.372 241.96,77.828 C240.487,78.331 239.11,79.081 237.89,80.048 C236.645,81.033 235.647,82.235 234.844,83.609 C233.998,85.058 233.418,86.609 233.057,88.239 C232.862,89.122 232.738,90.029 232.605,90.926 C232.563,91.205 233.025,91.484 232.451,91.762 L232.451,95.664 C233.025,95.924 232.57,96.183 232.603,96.443 C232.683,97.069 232.754,97.699 232.86,98.32 C233.027,99.303 233.225,100.283 233.427,101.259 C233.708,102.624 234.004,103.986 234.315,105.344 C234.543,106.332 234.802,107.314 235.073,108.291 C235.487,109.784 235.895,111.279 236.363,112.754 C236.798,114.125 237.296,115.477 237.79,116.828 C238.474,118.698 239.293,120.507 240.275,122.241 C241.124,123.743 242.095,125.149 243.397,126.306 C244.255,127.068 245.211,127.654 246.323,127.947 C247.196,128.176 248.084,128.204 248.978,128.021 C249.997,127.813 250.949,127.357 251.749,126.693 C251.843,126.616 251.946,126.558 252.057,126.699 C252.479,127.234 253.044,127.59 253.635,127.899 C255.23,128.731 256.968,128.98 258.734,129.082 C259.161,129.106 259.593,129.045 260.024,129.033 C260.863,129.01 261.679,128.846 262.481,128.614 C262.901,128.492 263.312,128.338 263.74,128.194 C263.762,128.649 263.791,129.088 263.804,129.527 L263.864,131.92 C263.875,132.284 263.889,132.649 263.923,133.012 C264.01,133.946 264.095,134.881 264.206,135.813 C264.284,136.455 264.364,137.102 264.515,137.729 C264.818,138.994 265.233,140.229 265.755,141.421 C266.255,142.578 267.022,143.598 267.995,144.399 C269.27,145.454 270.765,145.903 272.379,145.987 C273.046,146.022 273.732,145.989 274.39,145.87 C275.434,145.684 276.467,145.439 277.484,145.137 C279.546,144.515 281.329,143.439 282.661,141.702 C283.419,140.712 284.042,139.64 284.442,138.458 C284.771,137.481 285.082,136.494 285.329,135.494 C285.525,134.706 285.621,133.893 285.74,133.088 C285.819,132.556 285.866,132.018 285.915,131.482 C285.995,130.611 286.078,129.74 286.136,128.867 C286.176,128.259 286.174,127.648 286.198,127.04 C286.206,126.854 286.236,126.67 286.253,126.485 C286.269,126.314 286.355,126.254 286.53,126.257 C287.145,126.267 287.761,126.283 288.375,126.255 C289.062,126.224 289.756,126.195 290.433,126.081 C291.397,125.92 292.353,125.715 293.299,125.468 C294.415,125.176 295.438,124.654 296.423,124.058 C297.571,123.365 298.617,122.551 299.466,121.504 C300.204,120.59 300.554,119.534 300.376,118.38 Z M298.416,118.944 C298.378,119.47 298.137,119.92 297.788,120.305 C296.14,122.122 294.073,123.224 291.708,123.767 C290.81,123.972 289.883,124.079 288.963,124.164 C288.177,124.233 287.388,124.252 286.6,124.22 C286.022,124.198 285.449,124.066 284.859,123.981 C284.799,124.521 284.743,125.083 284.675,125.644 L284.4,127.795 C284.316,128.477 284.252,129.161 284.166,129.842 C284.082,130.503 283.978,131.162 283.89,131.823 C283.808,132.439 283.747,133.058 283.656,133.672 C283.515,134.614 283.381,135.559 283.197,136.493 C282.976,137.61 282.638,138.692 282.086,139.7 C281.413,140.93 280.458,141.866 279.244,142.56 C277.991,143.276 276.623,143.648 275.235,143.959 C274.253,144.18 273.241,144.216 272.246,144.127 C270.52,143.97 269.048,143.232 267.935,141.895 C266.872,140.618 266.153,139.154 265.896,137.498 C265.775,136.709 265.681,135.917 265.613,135.122 C265.537,134.239 265.48,133.354 265.442,132.468 C265.391,131.345 265.353,130.221 265.329,129.096 C265.298,127.714 265.288,126.333 265.269,124.951 L265.265,124.898 C264.562,125.319 263.871,125.781 263.139,126.161 C262.282,126.604 261.344,126.869 260.383,126.938 C259.626,126.996 258.859,127.048 258.105,126.988 C256.87,126.889 255.635,126.695 254.529,126.087 C254.081,125.84 253.612,125.539 253.303,125.145 C252.562,124.199 252.917,123.005 254.035,122.43 C254.807,122.032 255.649,121.866 256.486,121.672 C257.214,121.507 257.935,121.31 258.646,121.081 C259.348,120.851 259.791,120.282 260.228,119.724 L260.921,118.833 C260.632,118.802 260.36,118.771 260.087,118.746 C259.261,118.668 258.472,118.441 257.718,118.106 C257.073,117.821 257.063,117.79 256.589,118.303 C255.799,119.161 255.031,120.04 254.256,120.912 C253.687,121.554 253.12,122.199 252.553,122.843 C251.992,123.479 251.465,124.152 250.861,124.744 C249.962,125.623 248.88,126.152 247.588,126.092 C246.759,126.054 246,125.764 245.318,125.289 C243.909,124.308 242.961,122.936 242.097,121.494 C240.99,119.648 240.14,117.681 239.413,115.659 C238.91,114.262 238.405,112.864 237.965,111.447 C237.488,109.908 237.069,108.348 236.657,106.789 C236.35,105.612 236.066,104.428 235.806,103.239 C235.503,101.888 235.223,100.533 234.965,99.173 C234.794,98.254 234.695,97.323 234.556,96.398 C234.37,95.151 234.335,93.894 234.403,92.642 C234.463,91.515 234.625,90.39 234.786,89.27 C235.009,87.72 235.52,86.258 236.254,84.877 C236.704,84.031 237.262,83.262 237.908,82.547 C238.968,81.374 240.25,80.527 241.677,79.89 C242.674,79.446 243.727,79.178 244.801,78.969 C246.394,78.659 248.002,78.671 249.61,78.704 C250.313,78.718 251.013,78.847 251.716,78.916 C253.228,79.067 254.711,79.385 256.174,79.778 C257.241,80.064 258.286,80.434 259.344,80.756 C259.45,80.788 259.606,80.785 259.692,80.728 C261.126,79.793 262.693,79.175 264.359,78.822 C264.992,78.688 265.644,78.629 266.291,78.588 C267.077,78.538 267.87,78.492 268.654,78.538 C269.598,78.592 270.536,78.731 271.473,78.859 C271.928,78.921 272.372,79.079 272.828,79.122 C273.047,79.143 273.278,78.983 273.509,78.93 C274.686,78.658 275.858,78.355 277.045,78.141 C277.929,77.981 278.832,77.906 279.731,77.854 C280.733,77.797 281.743,77.755 282.744,77.803 C284.013,77.866 285.273,78.043 286.51,78.333 C288.047,78.691 289.522,79.211 290.924,79.932 C291.972,80.471 292.968,81.096 293.864,81.864 C294.452,82.369 295.053,82.867 295.584,83.428 C296.239,84.121 296.907,84.814 297.318,85.702 C297.627,86.371 297.847,87.064 297.908,87.797 C297.984,88.708 298.076,89.622 298.067,90.534 C298.059,91.407 297.94,92.278 297.856,93.149 C297.664,95.133 297.233,97.073 296.709,98.988 C296.271,100.57 295.775,102.135 295.222,103.681 C294.717,105.106 294.134,106.505 293.546,107.899 C293.112,108.931 292.641,109.947 292.134,110.944 C291.171,112.832 290.169,114.7 289.01,116.477 C288.811,116.785 288.621,117.099 288.426,117.413 C288.931,117.754 289.504,117.874 290.081,117.936 C290.629,117.996 291.189,118.032 291.736,117.991 C292.614,117.926 293.488,117.801 294.36,117.678 C295.224,117.558 296.07,117.312 296.957,117.377 C297.843,117.441 298.476,118.114 298.416,118.944 Z M285.772,117.018 C285.396,116.532 285.012,116.052 284.644,115.56 C284.066,114.788 283.651,113.926 283.234,113.06 C282.839,112.239 282.354,111.462 281.937,110.651 C281.211,109.235 280.471,107.824 279.802,106.38 C278.96,104.567 278.297,102.689 278.088,100.681 C277.999,99.83 277.977,98.981 278.149,98.139 C278.424,96.795 279.126,95.743 280.307,95.022 C281.403,94.353 282.623,94.137 283.874,94.069 C284.65,94.027 285.429,94.061 286.234,94.061 L286.207,93.925 C285.706,92.878 285.238,91.813 284.69,90.791 C283.917,89.348 282.928,88.047 281.827,86.841 C281.01,85.948 280.126,85.119 279.158,84.387 C278.206,83.666 277.202,83.022 276.132,82.495 C274.855,81.867 273.525,81.382 272.13,81.072 C270.789,80.775 269.44,80.593 268.065,80.578 C266.892,80.565 265.727,80.618 264.584,80.883 C262.86,81.282 261.283,81.992 259.91,83.142 C259.151,83.779 258.473,84.506 257.89,85.307 C257.203,86.251 256.649,87.27 256.175,88.338 C255.525,89.804 255.079,91.33 254.774,92.898 C254.621,93.679 254.502,94.468 254.38,95.256 C254.337,95.532 254.334,95.814 254.309,96.13 C254.521,96.019 254.674,95.934 254.83,95.859 L255.338,95.631 C257.058,94.844 258.839,94.338 260.753,94.396 C261.566,94.421 262.345,94.582 263.068,94.938 C264.455,95.622 265.267,96.785 265.619,98.257 C265.863,99.273 266.029,100.309 266.191,101.343 C266.318,102.15 266.448,102.965 266.463,103.779 C266.484,104.969 266.424,106.161 266.359,107.35 C266.303,108.361 266.094,109.357 265.739,110.305 C265.095,112.025 264.379,113.715 263.709,115.425 C263.488,115.989 263.318,116.574 263.109,117.195 C263.431,117.195 263.693,117.193 263.955,117.196 C264.057,117.198 264.162,117.201 264.261,117.224 C265.03,117.406 265.698,117.755 266.245,118.347 C266.975,119.135 267.358,120.054 267.378,121.119 C267.389,121.709 267.327,122.3 267.33,122.89 C267.342,125.639 267.362,128.388 267.385,131.136 C267.389,131.586 267.412,132.035 267.444,132.484 C267.511,133.423 267.579,134.363 267.671,135.3 C267.735,135.964 267.825,136.628 267.93,137.287 C268.079,138.223 268.504,139.055 268.987,139.85 C269.403,140.534 269.944,141.116 270.656,141.517 C271.866,142.198 273.169,142.255 274.483,142.004 C275.37,141.834 276.242,141.562 277.103,141.281 C277.951,141.009 278.724,140.547 279.365,139.929 C279.968,139.344 280.397,138.63 280.686,137.843 C281.246,136.316 281.421,134.707 281.653,133.112 C281.74,132.514 281.815,131.915 281.894,131.317 C281.984,130.636 282.076,129.955 282.163,129.274 C282.227,128.767 282.286,128.259 282.348,127.752 C282.436,127.023 282.53,126.296 282.615,125.567 C282.679,125.003 282.735,124.437 282.792,123.873 C282.866,123.151 282.946,122.43 283.01,121.707 C283.059,121.159 283.039,120.601 283.136,120.062 C283.315,119.076 283.781,118.236 284.656,117.693 C285.022,117.466 285.435,117.317 285.841,117.125 L285.772,117.018 Z M252.689,112.968 C252.253,111.942 251.99,110.851 251.912,109.738 C251.838,108.69 251.963,107.646 252.07,106.602 C252.175,105.591 252.261,104.576 252.292,103.56 C252.342,101.891 252.23,100.224 252.15,98.556 C252.102,97.563 252.217,96.558 252.306,95.563 C252.386,94.666 252.485,93.767 252.654,92.884 C252.939,91.401 253.316,89.94 253.852,88.524 C254.362,87.181 254.947,85.873 255.774,84.696 C256.34,83.888 256.983,83.133 257.6,82.344 L257.417,82.279 C255.408,81.641 253.366,81.142 251.266,80.925 C250.273,80.822 249.276,80.762 248.28,80.702 C247.975,80.684 247.665,80.725 247.358,80.755 C246.599,80.827 245.83,80.856 245.083,80.998 C243.811,81.24 242.591,81.647 241.461,82.309 C240.447,82.903 239.595,83.672 238.882,84.594 C238.094,85.612 237.564,86.763 237.183,87.99 C236.733,89.438 236.519,90.928 236.461,92.432 C236.41,93.75 236.385,95.076 236.612,96.389 C236.782,97.366 236.895,98.354 237.082,99.328 C237.336,100.655 237.609,101.98 237.924,103.293 C238.375,105.174 238.826,107.057 239.36,108.915 C239.871,110.695 240.448,112.459 241.073,114.201 C241.584,115.624 242.175,117.019 242.797,118.397 C243.203,119.294 243.694,120.157 244.209,120.997 C244.756,121.889 245.379,122.736 246.224,123.383 C247.29,124.201 248.115,124.328 249.198,123.431 C249.662,123.047 250.055,122.572 250.458,122.12 C251.1,121.402 251.719,120.665 252.358,119.945 C253.171,119.027 253.995,118.119 254.812,117.205 C254.985,117.012 255.151,116.814 255.319,116.618 L255.041,116.374 C254.032,115.412 253.231,114.253 252.689,112.968 Z M283.527,85.645 C284.195,86.422 284.829,87.228 285.427,88.06 C286.576,89.673 287.494,91.415 288.17,93.279 C288.469,94.1 288.708,94.93 288.601,95.829 C288.527,96.458 288.534,97.097 288.478,97.73 C288.431,98.257 288.348,98.78 288.28,99.305 C288.177,100.097 288.029,100.886 287.985,101.681 C287.943,102.438 287.987,103.202 288.034,103.96 C288.083,104.73 288.187,105.497 288.257,106.266 C288.337,107.138 288.444,108.01 288.469,108.884 C288.489,109.601 288.426,110.323 288.363,111.039 C288.288,111.902 288.069,112.737 287.743,113.539 C287.514,114.103 287.24,114.649 286.981,115.214 L287.085,115.324 L287.243,115.447 L287.402,115.162 C288.746,113.047 289.94,110.841 290.976,108.56 C291.639,107.088 292.268,105.601 292.864,104.1 C293.797,101.765 294.535,99.366 295.106,96.918 C295.362,95.819 295.558,94.704 295.732,93.589 C295.867,92.717 295.98,91.834 296.006,90.954 C296.033,90.021 295.981,89.08 295.895,88.149 C295.83,87.446 295.657,86.739 295.216,86.167 C294.508,85.247 293.744,84.367 292.803,83.671 C292.012,83.084 291.223,82.483 290.374,81.99 C289.027,81.208 287.569,80.688 286.046,80.334 C284.559,79.987 283.053,79.838 281.538,79.806 C280.644,79.787 279.746,79.883 278.854,79.967 C278.046,80.043 277.243,80.172 276.429,80.279 C277.302,80.77 278.163,81.207 278.975,81.721 C280.683,82.803 282.213,84.104 283.527,85.645 Z M261.341,115.927 C261.893,114.162 262.645,112.477 263.373,110.782 C263.964,109.406 264.287,107.958 264.394,106.47 C264.447,105.737 264.433,104.994 264.396,104.258 C264.36,103.44 264.285,102.623 264.171,101.812 C264.018,100.778 263.844,99.743 263.6,98.727 C263.334,97.628 262.665,96.863 261.519,96.581 C260.82,96.41 260.126,96.416 259.421,96.528 C257.696,96.8 256.118,97.435 254.647,98.365 C254.352,98.553 254.189,98.704 254.24,99.128 C254.348,100.027 254.372,100.94 254.368,101.848 C254.362,103.132 254.307,104.416 254.259,105.7 C254.243,106.118 254.182,106.534 254.137,106.951 C254.068,107.588 253.936,108.225 253.94,108.861 C253.944,109.517 254.011,110.189 254.17,110.824 C254.676,112.838 255.746,114.487 257.501,115.65 C258.58,116.365 259.774,116.726 261.085,116.794 C261.174,116.493 261.253,116.209 261.341,115.928 Z M259.282,98.646 C259.051,98.161 259.183,97.76 259.718,97.574 C259.848,97.528 259.983,97.479 260.118,97.466 C260.305,97.447 260.494,97.461 260.682,97.461 C261.361,97.465 262.014,97.559 262.575,97.991 C262.935,98.268 263.031,98.636 262.798,99.013 C262.468,99.548 261.964,99.817 261.346,99.869 C260.371,99.95 259.687,99.496 259.282,98.646 Z M286.3,98.469 C286.378,97.824 286.441,97.176 286.521,96.531 C286.553,96.271 286.416,96.201 286.199,96.195 C285.514,96.176 284.829,96.152 284.145,96.139 C283.373,96.125 282.621,96.249 281.907,96.543 C281.114,96.869 280.511,97.392 280.264,98.254 C280.084,98.891 280.027,99.555 280.096,100.213 C280.192,101.23 280.422,102.23 280.781,103.186 C281.26,104.462 281.762,105.737 282.361,106.959 C283.172,108.614 284.091,110.216 284.953,111.845 C285.183,112.28 285.377,112.734 285.617,113.242 C286.101,112.232 286.365,111.132 286.393,110.012 C286.416,109.088 286.342,108.159 286.288,107.234 C286.254,106.667 286.175,106.104 286.119,105.539 C286.042,104.752 285.926,103.965 285.908,103.176 C285.89,102.373 285.947,101.566 286.016,100.765 C286.081,99.996 286.208,99.234 286.3,98.469 Z M284.756,97.848 C284.501,98.55 283.957,98.946 283.252,99.063 C282.594,99.171 282.018,98.928 281.59,98.404 C281.285,98.03 281.401,97.588 281.859,97.336 C282.384,97.045 282.961,96.972 283.642,96.928 C283.826,96.961 284.105,96.99 284.37,97.065 C284.754,97.174 284.896,97.463 284.756,97.848 Z M264.41,119.479 C264.034,119.172 263.537,119.154 263.179,119.491 C262.735,119.91 262.344,120.39 261.954,120.862 C261.503,121.409 261.08,121.977 260.498,122.4 C259.651,123.015 258.665,123.27 257.673,123.512 C256.884,123.703 256.092,123.881 255.301,124.066 L255.291,124.168 C255.526,124.277 255.754,124.412 255.998,124.49 C257.205,124.872 258.431,125.062 259.706,124.954 C260.626,124.876 261.503,124.675 262.333,124.281 C263.476,123.74 264.356,122.881 265.103,121.883 C265.229,121.717 265.286,121.47 265.3,121.255 C265.352,120.497 264.966,119.933 264.41,119.479 Z M294.135,119.781 C293.164,119.885 292.192,119.995 291.219,120.051 C290.749,120.078 290.272,119.988 289.798,119.95 C289.002,119.885 288.226,119.709 287.553,119.284 C287.164,119.038 286.84,119.011 286.427,119.15 C285.836,119.348 285.354,119.651 285.212,120.29 C285.115,120.723 285.08,121.171 285.041,121.614 C285.033,121.692 285.131,121.835 285.206,121.855 C285.661,121.975 286.119,122.117 286.585,122.159 C287.157,122.211 287.739,122.194 288.315,122.165 C288.937,122.134 289.563,122.094 290.176,121.991 C291.621,121.748 293.018,121.353 294.26,120.534 C294.707,120.238 295.15,119.936 295.595,119.637 L295.558,119.574 C295.084,119.644 294.612,119.73 294.135,119.781 Z" />
        </g>
        <g id="Regular-S">
            <path d="M500.375,118.38 C500.117,116.704 498.709,115.606 497.072,115.532 C496.479,115.505 495.877,115.567 495.286,115.643 C494.572,115.733 493.867,115.894 493.154,116 C492.662,116.074 492.163,116.108 491.671,116.158 L491.659,116.095 C492.577,114.361 493.533,112.647 494.402,110.888 C495.068,109.54 495.637,108.142 496.226,106.756 C497.2,104.46 497.979,102.092 498.623,99.686 C499.241,97.382 499.769,95.053 499.935,92.663 C500.002,91.709 500.048,90.75 500.042,89.794 C500.038,89.032 499.956,88.269 499.879,87.509 C499.793,86.638 499.53,85.813 499.166,85.018 C498.686,83.972 497.941,83.113 497.158,82.297 C496.531,81.644 495.841,81.049 495.157,80.455 C494.181,79.607 493.085,78.929 491.946,78.328 C490.656,77.642 489.289,77.112 487.874,76.748 C487.016,76.53 486.139,76.367 485.27,76.194 C484.958,76.13 484.645,76 484.333,76 L478.45,76 C478.238,76 478.027,76.11 477.813,76.134 C476.404,76.291 475.013,76.556 473.661,76.975 C473.156,77.132 472.694,77.033 472.214,76.989 C471.845,76.955 471.484,76.856 471.115,76.837 C469.713,76.767 468.308,76.665 466.906,76.679 C465.563,76.693 464.233,76.914 462.933,77.284 C461.844,77.593 460.779,77.97 459.804,78.542 C459.387,78.787 459.056,78.741 458.624,78.616 C457.172,78.198 455.711,77.804 454.236,77.474 C453.317,77.268 452.372,77.166 451.434,77.068 C450.533,76.974 449.629,76.918 448.724,76.899 C447.841,76.88 446.951,76.881 446.071,76.959 C444.671,77.08 443.29,77.372 441.96,77.828 C440.487,78.331 439.11,79.081 437.89,80.048 C436.645,81.033 435.647,82.235 434.844,83.609 C433.998,85.058 433.418,86.609 433.057,88.239 C432.862,89.122 432.738,90.029 432.605,90.926 C432.563,91.205 433.025,91.484 432.451,91.762 L432.451,95.664 C433.025,95.924 432.57,96.183 432.603,96.443 C432.683,97.069 432.754,97.699 432.86,98.32 C433.027,99.303 433.225,100.283 433.427,101.259 C433.708,102.624 434.004,103.986 434.315,105.344 C434.543,106.332 434.802,107.314 435.073,108.291 C435.487,109.784 435.895,111.279 436.363,112.754 C436.798,114.125 437.296,115.477 437.79,116.828 C438.474,118.698 439.293,120.507 440.275,122.241 C441.124,123.743 442.095,125.149 443.397,126.306 C444.255,127.068 445.211,127.654 446.323,127.947 C447.196,128.176 448.084,128.204 448.978,128.021 C449.997,127.813 450.949,127.357 451.749,126.693 C451.843,126.616 451.946,126.558 452.057,126.699 C452.479,127.234 453.044,127.59 453.635,127.899 C455.23,128.731 456.968,128.98 458.734,129.082 C459.161,129.106 459.593,129.045 460.024,129.033 C460.863,129.01 461.679,128.846 462.481,128.614 C462.901,128.492 463.312,128.338 463.74,128.194 C463.762,128.649 463.791,129.088 463.804,129.527 L463.864,131.92 C463.875,132.284 463.889,132.649 463.923,133.012 C464.01,133.946 464.095,134.881 464.206,135.813 C464.284,136.455 464.364,137.102 464.515,137.729 C464.818,138.994 465.233,140.229 465.755,141.421 C466.255,142.578 467.022,143.598 467.995,144.399 C469.27,145.454 470.765,145.903 472.379,145.987 C473.046,146.022 473.732,145.989 474.39,145.87 C475.434,145.684 476.467,145.439 477.484,145.137 C479.546,144.515 481.329,143.439 482.661,141.702 C483.419,140.712 484.042,139.64 484.442,138.458 C484.771,137.481 485.082,136.494 485.329,135.494 C485.524,134.706 485.621,133.893 485.74,133.088 C485.819,132.556 485.866,132.018 485.915,131.482 C485.995,130.611 486.078,129.74 486.136,128.867 C486.176,128.259 486.174,127.648 486.198,127.04 C486.206,126.854 486.236,126.67 486.253,126.485 C486.269,126.314 486.355,126.254 486.53,126.257 C487.145,126.267 487.761,126.283 488.375,126.255 C489.062,126.224 489.756,126.195 490.433,126.081 C491.397,125.92 492.353,125.715 493.299,125.468 C494.415,125.176 495.438,124.654 496.423,124.058 C497.571,123.365 498.617,122.551 499.466,121.504 C500.204,120.59 500.554,119.534 500.376,118.38 Z M498.416,118.944 C498.378,119.47 498.137,119.92 497.788,120.305 C496.14,122.122 494.073,123.224 491.708,123.767 C490.81,123.972 489.883,124.079 488.963,124.164 C488.177,124.233 487.388,124.252 486.6,124.22 C486.022,124.198 485.449,124.066 484.859,123.981 C484.799,124.521 484.743,125.083 484.675,125.644 L484.4,127.795 C484.316,128.477 484.252,129.161 484.166,129.842 C484.082,130.503 483.978,131.162 483.89,131.823 C483.808,132.439 483.747,133.058 483.656,133.672 C483.515,134.614 483.381,135.559 483.197,136.493 C482.976,137.61 482.638,138.692 482.086,139.7 C481.413,140.93 480.458,141.866 479.243,142.56 C477.991,143.276 476.623,143.648 475.235,143.959 C474.253,144.18 473.241,144.216 472.246,144.127 C470.52,143.97 469.048,143.232 467.935,141.895 C466.872,140.618 466.153,139.154 465.896,137.498 C465.775,136.709 465.681,135.917 465.613,135.122 C465.537,134.239 465.48,133.354 465.442,132.468 C465.391,131.345 465.353,130.221 465.329,129.096 C465.298,127.714 465.288,126.333 465.269,124.951 L465.265,124.898 C464.562,125.319 463.871,125.781 463.138,126.161 C462.282,126.604 461.344,126.869 460.383,126.938 C459.626,126.996 458.859,127.048 458.105,126.988 C456.87,126.889 455.635,126.695 454.529,126.087 C454.081,125.84 453.612,125.539 453.303,125.145 C452.562,124.199 452.917,123.005 454.035,122.43 C454.807,122.032 455.649,121.866 456.486,121.672 C457.214,121.507 457.935,121.31 458.646,121.081 C459.348,120.851 459.791,120.282 460.228,119.724 L460.921,118.833 C460.632,118.802 460.36,118.771 460.087,118.746 C459.261,118.668 458.472,118.441 457.718,118.106 C457.072,117.821 457.063,117.79 456.589,118.303 C455.799,119.161 455.031,120.04 454.256,120.912 C453.687,121.554 453.12,122.199 452.553,122.843 C451.992,123.479 451.465,124.152 450.861,124.744 C449.962,125.623 448.88,126.152 447.588,126.092 C446.759,126.054 446,125.764 445.318,125.289 C443.909,124.308 442.961,122.936 442.097,121.494 C440.99,119.648 440.14,117.681 439.413,115.659 C438.91,114.262 438.405,112.864 437.965,111.447 C437.488,109.908 437.069,108.348 436.657,106.789 C436.35,105.612 436.066,104.428 435.806,103.239 C435.503,101.888 435.223,100.533 434.965,99.173 C434.794,98.254 434.695,97.323 434.556,96.398 C434.37,95.151 434.335,93.894 434.403,92.642 C434.463,91.515 434.625,90.39 434.786,89.27 C435.009,87.72 435.52,86.258 436.254,84.877 C436.704,84.031 437.262,83.262 437.908,82.547 C438.968,81.374 440.25,80.527 441.677,79.89 C442.674,79.446 443.727,79.178 444.801,78.969 C446.394,78.659 448.002,78.671 449.61,78.704 C450.313,78.718 451.013,78.847 451.716,78.916 C453.228,79.067 454.711,79.385 456.174,79.778 C457.241,80.064 458.286,80.434 459.344,80.756 C459.45,80.788 459.606,80.785 459.692,80.728 C461.126,79.793 462.693,79.175 464.359,78.822 C464.992,78.688 465.644,78.629 466.291,78.588 C467.077,78.538 467.87,78.492 468.654,78.538 C469.598,78.592 470.536,78.731 471.473,78.859 C471.928,78.921 472.372,79.079 472.828,79.122 C473.047,79.143 473.278,78.983 473.509,78.93 C474.686,78.658 475.858,78.355 477.045,78.141 C477.929,77.981 478.832,77.906 479.731,77.854 C480.733,77.797 481.743,77.755 482.744,77.803 C484.013,77.866 485.273,78.043 486.51,78.333 C488.047,78.691 489.522,79.211 490.924,79.932 C491.972,80.471 492.968,81.096 493.864,81.864 C494.452,82.369 495.053,82.867 495.584,83.428 C496.239,84.121 496.907,84.814 497.318,85.702 C497.627,86.371 497.847,87.064 497.908,87.797 C497.984,88.708 498.076,89.622 498.067,90.534 C498.059,91.407 497.94,92.278 497.856,93.149 C497.664,95.133 497.233,97.073 496.709,98.988 C496.271,100.57 495.775,102.135 495.222,103.681 C494.717,105.106 494.134,106.505 493.546,107.899 C493.112,108.931 492.641,109.947 492.134,110.944 C491.171,112.832 490.169,114.7 489.01,116.477 C488.811,116.785 488.621,117.099 488.426,117.413 C488.931,117.754 489.504,117.874 490.081,117.936 C490.629,117.996 491.189,118.032 491.736,117.991 C492.614,117.926 493.488,117.801 494.36,117.678 C495.224,117.558 496.07,117.312 496.957,117.377 C497.843,117.441 498.476,118.114 498.416,118.944 Z M485.772,117.018 C485.396,116.532 485.012,116.052 484.644,115.56 C484.066,114.788 483.651,113.926 483.234,113.06 C482.839,112.239 482.354,111.462 481.937,110.651 C481.211,109.235 480.471,107.824 479.802,106.38 C478.96,104.567 478.297,102.689 478.088,100.681 C477.999,99.83 477.977,98.981 478.149,98.139 C478.424,96.795 479.126,95.743 480.307,95.022 C481.403,94.353 482.623,94.137 483.874,94.069 C484.65,94.027 485.429,94.061 486.234,94.061 L486.207,93.925 C485.706,92.878 485.238,91.813 484.69,90.791 C483.917,89.348 482.928,88.047 481.826,86.841 C481.01,85.948 480.126,85.119 479.158,84.387 C478.206,83.666 477.202,83.022 476.132,82.495 C474.855,81.867 473.525,81.382 472.13,81.072 C470.789,80.775 469.44,80.593 468.065,80.578 C466.892,80.565 465.727,80.618 464.584,80.883 C462.86,81.282 461.283,81.992 459.91,83.142 C459.151,83.779 458.473,84.506 457.89,85.307 C457.203,86.251 456.649,87.27 456.175,88.338 C455.525,89.804 455.079,91.33 454.774,92.898 C454.621,93.679 454.502,94.468 454.38,95.256 C454.337,95.532 454.334,95.814 454.309,96.13 C454.521,96.019 454.674,95.934 454.83,95.859 L455.338,95.631 C457.058,94.844 458.839,94.338 460.753,94.396 C461.566,94.421 462.345,94.582 463.068,94.938 C464.455,95.622 465.267,96.785 465.619,98.257 C465.863,99.273 466.029,100.309 466.191,101.343 C466.318,102.15 466.448,102.965 466.463,103.779 C466.484,104.969 466.424,106.161 466.359,107.35 C466.303,108.361 466.094,109.357 465.739,110.305 C465.095,112.025 464.379,113.715 463.709,115.425 C463.488,115.989 463.318,116.574 463.109,117.195 C463.431,117.195 463.693,117.193 463.955,117.196 C464.057,117.198 464.162,117.201 464.261,117.224 C465.03,117.406 465.698,117.755 466.245,118.347 C466.975,119.135 467.358,120.054 467.378,121.119 C467.389,121.709 467.327,122.3 467.33,122.89 C467.342,125.639 467.362,128.388 467.385,131.136 C467.389,131.586 467.412,132.035 467.444,132.484 C467.511,133.423 467.579,134.363 467.671,135.3 C467.735,135.964 467.825,136.628 467.93,137.287 C468.079,138.223 468.504,139.055 468.987,139.85 C469.403,140.534 469.944,141.116 470.656,141.517 C471.866,142.198 473.169,142.255 474.483,142.004 C475.37,141.834 476.242,141.562 477.103,141.281 C477.951,141.009 478.724,140.547 479.365,139.929 C479.968,139.344 480.397,138.63 480.686,137.843 C481.246,136.316 481.421,134.707 481.653,133.112 C481.74,132.514 481.815,131.915 481.894,131.317 C481.984,130.636 482.076,129.955 482.163,129.274 C482.227,128.767 482.286,128.259 482.348,127.752 C482.436,127.023 482.53,126.296 482.615,125.567 C482.679,125.003 482.735,124.437 482.792,123.873 C482.866,123.151 482.946,122.43 483.01,121.707 C483.059,121.159 483.039,120.601 483.136,120.062 C483.315,119.076 483.781,118.236 484.656,117.693 C485.022,117.466 485.435,117.317 485.841,117.125 L485.772,117.018 Z M452.689,112.968 C452.253,111.942 451.99,110.851 451.912,109.738 C451.838,108.69 451.963,107.646 452.07,106.602 C452.175,105.591 452.261,104.576 452.292,103.56 C452.342,101.891 452.23,100.224 452.15,98.556 C452.102,97.563 452.217,96.558 452.306,95.563 C452.385,94.666 452.485,93.767 452.654,92.884 C452.939,91.401 453.316,89.94 453.852,88.524 C454.362,87.181 454.947,85.873 455.774,84.696 C456.34,83.888 456.983,83.133 457.6,82.344 L457.417,82.279 C455.408,81.641 453.366,81.142 451.266,80.925 C450.273,80.822 449.276,80.762 448.28,80.702 C447.975,80.684 447.665,80.725 447.358,80.755 C446.599,80.827 445.83,80.856 445.083,80.998 C443.811,81.24 442.591,81.647 441.461,82.309 C440.447,82.903 439.595,83.672 438.882,84.594 C438.094,85.612 437.564,86.763 437.183,87.99 C436.733,89.438 436.519,90.928 436.461,92.432 C436.41,93.75 436.385,95.076 436.612,96.389 C436.782,97.366 436.895,98.354 437.082,99.328 C437.336,100.655 437.609,101.98 437.924,103.293 C438.375,105.174 438.826,107.057 439.36,108.915 C439.871,110.695 440.448,112.459 441.073,114.201 C441.584,115.624 442.175,117.019 442.797,118.397 C443.203,119.294 443.694,120.157 444.209,120.997 C444.756,121.889 445.379,122.736 446.224,123.383 C447.29,124.201 448.115,124.328 449.198,123.431 C449.662,123.047 450.055,122.572 450.458,122.12 C451.1,121.402 451.719,120.665 452.358,119.945 C453.171,119.027 453.995,118.119 454.812,117.205 C454.985,117.012 455.151,116.814 455.319,116.618 L455.041,116.374 C454.032,115.412 453.231,114.253 452.689,112.968 Z M483.527,85.645 C484.195,86.422 484.829,87.228 485.427,88.06 C486.576,89.673 487.494,91.415 488.17,93.279 C488.469,94.1 488.708,94.93 488.601,95.829 C488.527,96.458 488.534,97.097 488.478,97.73 C488.431,98.257 488.348,98.78 488.28,99.305 C488.177,100.097 488.029,100.886 487.985,101.681 C487.943,102.438 487.987,103.202 488.034,103.96 C488.083,104.73 488.187,105.497 488.257,106.266 C488.337,107.138 488.444,108.01 488.469,108.884 C488.489,109.601 488.426,110.323 488.363,111.039 C488.288,111.902 488.069,112.737 487.743,113.539 C487.514,114.103 487.24,114.649 486.981,115.214 L487.085,115.324 L487.243,115.447 L487.402,115.162 C488.746,113.047 489.94,110.841 490.976,108.56 C491.639,107.088 492.268,105.601 492.864,104.1 C493.797,101.765 494.535,99.366 495.106,96.918 C495.362,95.819 495.558,94.704 495.732,93.589 C495.867,92.717 495.98,91.834 496.006,90.954 C496.033,90.021 495.981,89.08 495.895,88.149 C495.83,87.446 495.657,86.739 495.216,86.167 C494.508,85.247 493.744,84.367 492.803,83.671 C492.012,83.084 491.223,82.483 490.374,81.99 C489.027,81.208 487.569,80.688 486.046,80.334 C484.559,79.987 483.053,79.838 481.538,79.806 C480.644,79.787 479.746,79.883 478.854,79.967 C478.046,80.043 477.243,80.172 476.429,80.279 C477.302,80.77 478.163,81.207 478.975,81.721 C480.683,82.803 482.213,84.104 483.527,85.645 Z M461.341,115.927 C461.893,114.162 462.645,112.477 463.373,110.782 C463.964,109.406 464.287,107.958 464.394,106.47 C464.447,105.737 464.433,104.994 464.396,104.258 C464.36,103.44 464.285,102.623 464.171,101.812 C464.018,100.778 463.844,99.743 463.6,98.727 C463.334,97.628 462.665,96.863 461.519,96.581 C460.82,96.41 460.126,96.416 459.421,96.528 C457.696,96.8 456.118,97.435 454.647,98.365 C454.352,98.553 454.189,98.704 454.24,99.128 C454.348,100.027 454.372,100.94 454.368,101.848 C454.362,103.132 454.307,104.416 454.259,105.7 C454.242,106.118 454.182,106.534 454.137,106.951 C454.068,107.588 453.936,108.225 453.94,108.861 C453.944,109.517 454.011,110.189 454.17,110.824 C454.676,112.838 455.746,114.487 457.501,115.65 C458.58,116.365 459.774,116.726 461.085,116.794 C461.174,116.493 461.253,116.209 461.341,115.928 Z M459.281,98.646 C459.051,98.161 459.183,97.76 459.718,97.574 C459.848,97.528 459.983,97.479 460.118,97.466 C460.304,97.447 460.494,97.461 460.682,97.461 C461.361,97.465 462.014,97.559 462.575,97.991 C462.935,98.268 463.031,98.636 462.798,99.013 C462.468,99.548 461.964,99.817 461.346,99.869 C460.371,99.95 459.687,99.496 459.281,98.646 Z M486.3,98.469 C486.378,97.824 486.441,97.176 486.521,96.531 C486.553,96.271 486.416,96.201 486.199,96.195 C485.514,96.176 484.829,96.152 484.145,96.139 C483.373,96.125 482.621,96.249 481.907,96.543 C481.114,96.869 480.511,97.392 480.264,98.254 C480.084,98.891 480.027,99.555 480.096,100.213 C480.192,101.23 480.422,102.23 480.781,103.186 C481.26,104.462 481.762,105.737 482.361,106.959 C483.172,108.614 484.091,110.216 484.953,111.845 C485.183,112.28 485.377,112.734 485.617,113.242 C486.101,112.232 486.365,111.132 486.393,110.012 C486.416,109.088 486.342,108.159 486.288,107.234 C486.254,106.667 486.175,106.104 486.119,105.539 C486.042,104.752 485.926,103.965 485.908,103.176 C485.89,102.373 485.947,101.566 486.016,100.765 C486.081,99.996 486.208,99.234 486.3,98.469 Z M484.756,97.848 C484.501,98.55 483.957,98.946 483.252,99.063 C482.594,99.171 482.018,98.928 481.59,98.404 C481.285,98.03 481.401,97.588 481.859,97.336 C482.384,97.045 482.961,96.972 483.642,96.928 C483.826,96.961 484.105,96.99 484.37,97.065 C484.754,97.174 484.896,97.463 484.756,97.848 Z M464.41,119.479 C464.034,119.172 463.536,119.154 463.179,119.491 C462.735,119.91 462.344,120.39 461.954,120.862 C461.503,121.409 461.08,121.977 460.498,122.4 C459.651,123.015 458.665,123.27 457.673,123.512 C456.884,123.703 456.092,123.881 455.301,124.066 L455.291,124.168 C455.526,124.277 455.754,124.412 455.998,124.49 C457.205,124.872 458.431,125.062 459.706,124.954 C460.626,124.876 461.503,124.675 462.333,124.281 C463.476,123.74 464.356,122.881 465.103,121.883 C465.229,121.717 465.285,121.47 465.3,121.255 C465.352,120.497 464.966,119.933 464.41,119.479 Z M494.135,119.781 C493.164,119.885 492.192,119.995 491.219,120.051 C490.749,120.078 490.272,119.988 489.798,119.95 C489.002,119.885 488.226,119.709 487.553,119.284 C487.164,119.038 486.84,119.011 486.427,119.15 C485.836,119.348 485.354,119.651 485.212,120.29 C485.115,120.723 485.08,121.171 485.041,121.614 C485.033,121.692 485.131,121.835 485.206,121.855 C485.661,121.975 486.119,122.117 486.585,122.159 C487.157,122.211 487.739,122.194 488.315,122.165 C488.937,122.134 489.563,122.094 490.176,121.991 C491.621,121.748 493.018,121.353 494.26,120.534 C494.707,120.238 495.15,119.936 495.595,119.637 L495.558,119.574 C495.084,119.644 494.612,119.73 494.135,119.781 Z" />
        </g>
        <g id="Black-S">
            <path d="M700.375,118.38 C700.117,116.704 698.709,115.606 697.072,115.532 C696.479,115.505 695.877,115.567 695.286,115.643 C694.572,115.733 693.867,115.894 693.154,116 C692.662,116.074 692.163,116.108 691.671,116.158 L691.659,116.095 C692.577,114.361 693.534,112.647 694.402,110.888 C695.068,109.54 695.637,108.142 696.226,106.756 C697.2,104.46 697.979,102.092 698.623,99.686 C699.241,97.382 699.769,95.053 699.935,92.663 C700.002,91.709 700.048,90.75 700.042,89.794 C700.038,89.032 699.956,88.269 699.879,87.509 C699.793,86.638 699.53,85.813 699.166,85.018 C698.686,83.972 697.941,83.113 697.158,82.297 C696.531,81.644 695.841,81.049 695.157,80.455 C694.181,79.607 693.085,78.929 691.946,78.328 C690.656,77.642 689.289,77.112 687.874,76.748 C687.016,76.53 686.139,76.367 685.27,76.194 C684.958,76.13 684.645,76 684.333,76 L678.45,76 C678.238,76 678.027,76.11 677.813,76.134 C676.404,76.291 675.013,76.556 673.661,76.975 C673.156,77.132 672.694,77.033 672.214,76.989 C671.845,76.955 671.484,76.856 671.115,76.837 C669.713,76.767 668.308,76.665 666.906,76.679 C665.563,76.693 664.233,76.914 662.933,77.284 C661.844,77.593 660.779,77.97 659.804,78.542 C659.387,78.787 659.056,78.741 658.624,78.616 C657.172,78.198 655.711,77.804 654.236,77.474 C653.317,77.268 652.372,77.166 651.434,77.068 C650.533,76.974 649.629,76.918 648.724,76.899 C647.841,76.88 646.951,76.881 646.071,76.959 C644.671,77.08 643.29,77.372 641.96,77.828 C640.487,78.331 639.11,79.081 637.89,80.048 C636.645,81.033 635.647,82.235 634.844,83.609 C633.998,85.058 633.418,86.609 633.057,88.239 C632.862,89.122 632.738,90.029 632.605,90.926 C632.563,91.205 633.025,91.484 632.451,91.762 L632.451,95.664 C633.025,95.924 632.57,96.183 632.603,96.443 C632.683,97.069 632.754,97.699 632.86,98.32 C633.027,99.303 633.225,100.283 633.427,101.259 C633.708,102.624 634.004,103.986 634.315,105.344 C634.543,106.332 634.802,107.314 635.073,108.291 C635.487,109.784 635.895,111.279 636.363,112.754 C636.798,114.125 637.296,115.477 637.789,116.828 C638.474,118.698 639.293,120.507 640.275,122.241 C641.124,123.743 642.095,125.149 643.397,126.306 C644.255,127.068 645.211,127.654 646.323,127.947 C647.196,128.176 648.084,128.204 648.978,128.021 C649.997,127.813 650.949,127.357 651.749,126.693 C651.843,126.616 651.946,126.558 652.057,126.699 C652.479,127.234 653.044,127.59 653.635,127.899 C655.23,128.731 656.968,128.98 658.734,129.082 C659.161,129.106 659.593,129.045 660.024,129.033 C660.863,129.01 661.679,128.846 662.481,128.614 C662.901,128.492 663.312,128.338 663.74,128.194 C663.762,128.649 663.791,129.088 663.804,129.527 L663.864,131.92 C663.875,132.284 663.889,132.649 663.923,133.012 C664.01,133.946 664.095,134.881 664.206,135.813 C664.284,136.455 664.364,137.102 664.515,137.729 C664.818,138.994 665.233,140.229 665.755,141.421 C666.255,142.578 667.022,143.598 667.995,144.399 C669.27,145.454 670.765,145.903 672.379,145.987 C673.046,146.022 673.732,145.989 674.39,145.87 C675.434,145.684 676.467,145.439 677.484,145.137 C679.546,144.515 681.329,143.439 682.661,141.702 C683.419,140.712 684.042,139.64 684.442,138.458 C684.771,137.481 685.082,136.494 685.329,135.494 C685.524,134.706 685.621,133.893 685.74,133.088 C685.819,132.556 685.866,132.018 685.915,131.482 C685.995,130.611 686.078,129.74 686.136,128.867 C686.176,128.259 686.174,127.648 686.198,127.04 C686.206,126.854 686.236,126.67 686.253,126.485 C686.269,126.314 686.355,126.254 686.53,126.257 C687.145,126.267 687.761,126.283 688.375,126.255 C689.062,126.224 689.756,126.195 690.433,126.081 C691.397,125.92 692.353,125.715 693.299,125.468 C694.415,125.176 695.438,124.654 696.423,124.058 C697.571,123.365 698.617,122.551 699.466,121.504 C700.204,120.59 700.554,119.534 700.376,118.38 Z M698.416,118.944 C698.378,119.47 698.137,119.92 697.788,120.305 C696.14,122.122 694.073,123.224 691.708,123.767 C690.81,123.972 689.883,124.079 688.963,124.164 C688.177,124.233 687.388,124.252 686.6,124.22 C686.022,124.198 685.449,124.066 684.859,123.981 C684.799,124.521 684.743,125.083 684.675,125.644 L684.4,127.795 C684.316,128.477 684.252,129.161 684.166,129.842 C684.082,130.503 683.978,131.162 683.89,131.823 C683.808,132.439 683.747,133.058 683.656,133.672 C683.515,134.614 683.381,135.559 683.197,136.493 C682.976,137.61 682.638,138.692 682.086,139.7 C681.413,140.93 680.458,141.866 679.244,142.56 C677.991,143.276 676.623,143.648 675.235,143.959 C674.253,144.18 673.241,144.216 672.246,144.127 C670.52,143.97 669.048,143.232 667.935,141.895 C666.872,140.618 666.153,139.154 665.896,137.498 C665.775,136.709 665.681,135.917 665.613,135.122 C665.537,134.239 665.48,133.354 665.442,132.468 C665.391,131.345 665.353,130.221 665.329,129.096 C665.298,127.714 665.288,126.333 665.269,124.951 L665.265,124.898 C664.562,125.319 663.871,125.781 663.138,126.161 C662.282,126.604 661.344,126.869 660.383,126.938 C659.626,126.996 658.859,127.048 658.105,126.988 C656.87,126.889 655.635,126.695 654.529,126.087 C654.081,125.84 653.612,125.539 653.303,125.145 C652.562,124.199 652.917,123.005 654.035,122.43 C654.807,122.032 655.649,121.866 656.486,121.672 C657.214,121.507 657.935,121.31 658.646,121.081 C659.348,120.851 659.791,120.282 660.228,119.724 L660.921,118.833 C660.632,118.802 660.36,118.771 660.087,118.746 C659.261,118.668 658.472,118.441 657.718,118.106 C657.073,117.821 657.063,117.79 656.589,118.303 C655.799,119.161 655.031,120.04 654.256,120.912 C653.687,121.554 653.12,122.199 652.553,122.843 C651.992,123.479 651.465,124.152 650.861,124.744 C649.962,125.623 648.88,126.152 647.588,126.092 C646.759,126.054 646,125.764 645.318,125.289 C643.909,124.308 642.961,122.936 642.097,121.494 C640.99,119.648 640.14,117.681 639.413,115.659 C638.91,114.262 638.405,112.864 637.965,111.447 C637.488,109.908 637.069,108.348 636.657,106.789 C636.35,105.612 636.066,104.428 635.806,103.239 C635.503,101.888 635.223,100.533 634.965,99.173 C634.794,98.254 634.695,97.323 634.556,96.398 C634.37,95.151 634.335,93.894 634.403,92.642 C634.463,91.515 634.625,90.39 634.786,89.27 C635.009,87.72 635.52,86.258 636.254,84.877 C636.704,84.031 637.262,83.262 637.908,82.547 C638.968,81.374 640.25,80.527 641.677,79.89 C642.674,79.446 643.727,79.178 644.801,78.969 C646.394,78.659 648.002,78.671 649.61,78.704 C650.313,78.718 651.013,78.847 651.716,78.916 C653.228,79.067 654.711,79.385 656.174,79.778 C657.241,80.064 658.286,80.434 659.344,80.756 C659.45,80.788 659.606,80.785 659.692,80.728 C661.126,79.793 662.693,79.175 664.359,78.822 C664.992,78.688 665.644,78.629 666.291,78.588 C667.077,78.538 667.87,78.492 668.654,78.538 C669.597,78.592 670.536,78.731 671.473,78.859 C671.928,78.921 672.372,79.079 672.828,79.122 C673.047,79.143 673.278,78.983 673.509,78.93 C674.686,78.658 675.858,78.355 677.045,78.141 C677.929,77.981 678.832,77.906 679.731,77.854 C680.733,77.797 681.743,77.755 682.744,77.803 C684.013,77.866 685.273,78.043 686.51,78.333 C688.047,78.691 689.522,79.211 690.924,79.932 C691.972,80.471 692.968,81.096 693.864,81.864 C694.452,82.369 695.053,82.867 695.584,83.428 C696.239,84.121 696.907,84.814 697.318,85.702 C697.627,86.371 697.847,87.064 697.908,87.797 C697.984,88.708 698.076,89.622 698.067,90.534 C698.059,91.407 697.94,92.278 697.856,93.149 C697.664,95.133 697.233,97.073 696.709,98.988 C696.271,100.57 695.775,102.135 695.222,103.681 C694.717,105.106 694.134,106.505 693.546,107.899 C693.112,108.931 692.641,109.947 692.134,110.944 C691.171,112.832 690.169,114.7 689.01,116.477 C688.811,116.785 688.621,117.099 688.426,117.413 C688.931,117.754 689.504,117.874 690.081,117.936 C690.629,117.996 691.188,118.032 691.736,117.991 C692.614,117.926 693.488,117.801 694.36,117.678 C695.224,117.558 696.07,117.312 696.957,117.377 C697.843,117.441 698.476,118.114 698.416,118.944 Z M685.772,117.018 C685.396,116.532 685.012,116.052 684.644,115.56 C684.066,114.788 683.651,113.926 683.234,113.06 C682.839,112.239 682.354,111.462 681.937,110.651 C681.211,109.235 680.471,107.824 679.802,106.38 C678.96,104.567 678.297,102.689 678.088,100.681 C677.999,99.83 677.977,98.981 678.149,98.139 C678.424,96.795 679.126,95.743 680.307,95.022 C681.403,94.353 682.623,94.137 683.874,94.069 C684.65,94.027 685.429,94.061 686.234,94.061 L686.207,93.925 C685.706,92.878 685.238,91.813 684.69,90.791 C683.917,89.348 682.928,88.047 681.826,86.841 C681.01,85.948 680.126,85.119 679.158,84.387 C678.206,83.666 677.202,83.022 676.132,82.495 C674.855,81.867 673.525,81.382 672.13,81.072 C670.789,80.775 669.44,80.593 668.065,80.578 C666.892,80.565 665.727,80.618 664.584,80.883 C662.86,81.282 661.283,81.992 659.91,83.142 C659.151,83.779 658.473,84.506 657.89,85.307 C657.203,86.251 656.649,87.27 656.175,88.338 C655.525,89.804 655.079,91.33 654.774,92.898 C654.621,93.679 654.502,94.468 654.38,95.256 C654.337,95.532 654.334,95.814 654.309,96.13 C654.521,96.019 654.674,95.934 654.83,95.859 L655.338,95.631 C657.057,94.844 658.839,94.338 660.753,94.396 C661.566,94.421 662.345,94.582 663.068,94.938 C664.455,95.622 665.267,96.785 665.619,98.257 C665.863,99.273 666.029,100.309 666.191,101.343 C666.318,102.15 666.448,102.965 666.463,103.779 C666.484,104.969 666.424,106.161 666.359,107.35 C666.303,108.361 666.094,109.357 665.739,110.305 C665.095,112.025 664.379,113.715 663.709,115.425 C663.488,115.989 663.318,116.574 663.109,117.195 C663.431,117.195 663.693,117.193 663.955,117.196 C664.057,117.198 664.162,117.201 664.261,117.224 C665.03,117.406 665.698,117.755 666.245,118.347 C666.975,119.135 667.358,120.054 667.378,121.119 C667.389,121.709 667.327,122.3 667.33,122.89 C667.342,125.639 667.362,128.388 667.385,131.136 C667.389,131.586 667.412,132.035 667.444,132.484 C667.511,133.423 667.579,134.363 667.671,135.3 C667.735,135.964 667.825,136.628 667.93,137.287 C668.079,138.223 668.504,139.055 668.987,139.85 C669.403,140.534 669.944,141.116 670.656,141.517 C671.866,142.198 673.169,142.255 674.483,142.004 C675.37,141.834 676.242,141.562 677.103,141.281 C677.951,141.009 678.724,140.547 679.365,139.929 C679.968,139.344 680.397,138.63 680.686,137.843 C681.246,136.316 681.421,134.707 681.653,133.112 C681.74,132.514 681.815,131.915 681.894,131.317 C681.984,130.636 682.076,129.955 682.163,129.274 C682.227,128.767 682.286,128.259 682.348,127.752 C682.436,127.023 682.53,126.296 682.615,125.567 C682.679,125.003 682.735,124.437 682.792,123.873 C682.866,123.151 682.946,122.43 683.01,121.707 C683.059,121.159 683.039,120.601 683.136,120.062 C683.315,119.076 683.781,118.236 684.656,117.693 C685.022,117.466 685.435,117.317 685.841,117.125 L685.772,117.018 Z M652.689,112.968 C652.253,111.942 651.99,110.851 651.912,109.738 C651.838,108.69 651.963,107.646 652.07,106.602 C652.175,105.591 652.261,104.576 652.292,103.56 C652.342,101.891 652.23,100.224 652.15,98.556 C652.102,97.563 652.217,96.558 652.306,95.563 C652.385,94.666 652.485,93.767 652.654,92.884 C652.939,91.401 653.316,89.94 653.852,88.524 C654.362,87.181 654.947,85.873 655.774,84.696 C656.34,83.888 656.983,83.133 657.6,82.344 L657.417,82.279 C655.408,81.641 653.366,81.142 651.266,80.925 C650.273,80.822 649.276,80.762 648.28,80.702 C647.975,80.684 647.665,80.725 647.358,80.755 C646.599,80.827 645.83,80.856 645.083,80.998 C643.811,81.24 642.591,81.647 641.461,82.309 C640.447,82.903 639.595,83.672 638.882,84.594 C638.094,85.612 637.564,86.763 637.183,87.99 C636.733,89.438 636.519,90.928 636.461,92.432 C636.41,93.75 636.385,95.076 636.612,96.389 C636.782,97.366 636.895,98.354 637.082,99.328 C637.336,100.655 637.609,101.98 637.924,103.293 C638.375,105.174 638.826,107.057 639.36,108.915 C639.871,110.695 640.448,112.459 641.073,114.201 C641.584,115.624 642.175,117.019 642.797,118.397 C643.203,119.294 643.694,120.157 644.209,120.997 C644.756,121.889 645.379,122.736 646.224,123.383 C647.29,124.201 648.115,124.328 649.198,123.431 C649.662,123.047 650.055,122.572 650.458,122.12 C651.1,121.402 651.719,120.665 652.358,119.945 C653.171,119.027 653.995,118.119 654.812,117.205 C654.985,117.012 655.151,116.814 655.319,116.618 L655.041,116.374 C654.032,115.412 653.231,114.253 652.689,112.968 Z M683.527,85.645 C684.195,86.422 684.829,87.228 685.427,88.06 C686.576,89.673 687.494,91.415 688.17,93.279 C688.469,94.1 688.708,94.93 688.601,95.829 C688.527,96.458 688.534,97.097 688.478,97.73 C688.431,98.257 688.348,98.78 688.28,99.305 C688.177,100.097 688.029,100.886 687.985,101.681 C687.943,102.438 687.987,103.202 688.034,103.96 C688.083,104.73 688.187,105.497 688.257,106.266 C688.337,107.138 688.444,108.01 688.469,108.884 C688.489,109.601 688.426,110.323 688.363,111.039 C688.288,111.902 688.069,112.737 687.743,113.539 C687.514,114.103 687.24,114.649 686.981,115.214 L687.085,115.324 L687.243,115.447 L687.402,115.162 C688.746,113.047 689.94,110.841 690.976,108.56 C691.639,107.088 692.268,105.601 692.864,104.1 C693.797,101.765 694.535,99.366 695.106,96.918 C695.362,95.819 695.558,94.704 695.732,93.589 C695.867,92.717 695.98,91.834 696.006,90.954 C696.033,90.021 695.981,89.08 695.895,88.149 C695.83,87.446 695.657,86.739 695.216,86.167 C694.508,85.247 693.744,84.367 692.803,83.671 C692.012,83.084 691.223,82.483 690.374,81.99 C689.027,81.208 687.569,80.688 686.046,80.334 C684.559,79.987 683.053,79.838 681.538,79.806 C680.644,79.787 679.746,79.883 678.854,79.967 C678.046,80.043 677.243,80.172 676.429,80.279 C677.302,80.77 678.163,81.207 678.975,81.721 C680.683,82.803 682.213,84.104 683.527,85.645 Z M661.341,115.927 C661.893,114.162 662.645,112.477 663.373,110.782 C663.964,109.406 664.287,107.958 664.394,106.47 C664.447,105.737 664.433,104.994 664.396,104.258 C664.36,103.44 664.285,102.623 664.171,101.812 C664.018,100.778 663.844,99.743 663.6,98.727 C663.334,97.628 662.665,96.863 661.519,96.581 C660.82,96.41 660.126,96.416 659.421,96.528 C657.696,96.8 656.118,97.435 654.647,98.365 C654.352,98.553 654.189,98.704 654.24,99.128 C654.348,100.027 654.372,100.94 654.368,101.848 C654.362,103.132 654.307,104.416 654.259,105.7 C654.242,106.118 654.182,106.534 654.137,106.951 C654.068,107.588 653.936,108.225 653.94,108.861 C653.944,109.517 654.011,110.189 654.17,110.824 C654.676,112.838 655.746,114.487 657.501,115.65 C658.58,116.365 659.774,116.726 661.085,116.794 C661.174,116.493 661.253,116.209 661.341,115.928 Z M659.281,98.646 C659.051,98.161 659.183,97.76 659.718,97.574 C659.848,97.528 659.983,97.479 660.118,97.466 C660.305,97.447 660.494,97.461 660.682,97.461 C661.361,97.465 662.014,97.559 662.575,97.991 C662.935,98.268 663.031,98.636 662.798,99.013 C662.468,99.548 661.964,99.817 661.346,99.869 C660.371,99.95 659.687,99.496 659.281,98.646 Z M686.3,98.469 C686.378,97.824 686.441,97.176 686.521,96.531 C686.553,96.271 686.416,96.201 686.199,96.195 C685.514,96.176 684.829,96.152 684.145,96.139 C683.373,96.125 682.621,96.249 681.907,96.543 C681.114,96.869 680.511,97.392 680.264,98.254 C680.084,98.891 680.027,99.555 680.096,100.213 C680.192,101.23 680.422,102.23 680.781,103.186 C681.26,104.462 681.762,105.737 682.361,106.959 C683.172,108.614 684.091,110.216 684.953,111.845 C685.183,112.28 685.377,112.734 685.617,113.242 C686.101,112.232 686.365,111.132 686.393,110.012 C686.416,109.088 686.342,108.159 686.288,107.234 C686.254,106.667 686.175,106.104 686.119,105.539 C686.042,104.752 685.926,103.965 685.908,103.176 C685.89,102.373 685.947,101.566 686.016,100.765 C686.081,99.996 686.208,99.234 686.3,98.469 Z M684.756,97.848 C684.501,98.55 683.957,98.946 683.252,99.063 C682.594,99.171 682.018,98.928 681.59,98.404 C681.285,98.03 681.401,97.588 681.859,97.336 C682.384,97.045 682.961,96.972 683.642,96.928 C683.826,96.961 684.105,96.99 684.37,97.065 C684.754,97.174 684.896,97.463 684.756,97.848 Z M664.41,119.479 C664.034,119.172 663.536,119.154 663.179,119.491 C662.735,119.91 662.344,120.39 661.953,120.862 C661.503,121.409 661.08,121.977 660.498,122.4 C659.651,123.015 658.665,123.27 657.673,123.512 C656.884,123.703 656.092,123.881 655.301,124.066 L655.291,124.168 C655.526,124.277 655.754,124.412 655.998,124.49 C657.205,124.872 658.431,125.062 659.706,124.954 C660.626,124.876 661.503,124.675 662.333,124.281 C663.476,123.74 664.356,122.881 665.103,121.883 C665.229,121.717 665.286,121.47 665.3,121.255 C665.352,120.497 664.966,119.933 664.41,119.479 Z M694.135,119.781 C693.164,119.885 692.192,119.995 691.219,120.051 C690.749,120.078 690.272,119.988 689.798,119.95 C689.002,119.885 688.226,119.709 687.553,119.284 C687.164,119.038 686.84,119.011 686.427,119.15 C685.836,119.348 685.354,119.651 685.212,120.29 C685.115,120.723 685.08,121.171 685.041,121.614 C685.033,121.692 685.131,121.835 685.206,121.855 C685.661,121.975 686.119,122.117 686.585,122.159 C687.157,122.211 687.739,122.194 688.315,122.165 C688.937,122.134 689.563,122.094 690.176,121.991 C691.621,121.748 693.018,121.353 694.26,120.534 C694.707,120.238 695.15,119.936 695.595,119.637 L695.558,119.574 C695.084,119.644 694.612,119.73 694.135,119.781 Z" />
        </g>
    </g>
</svg>