<?xml version="1.0" encoding="UTF-8"?>
<svg height="600" width="800" xmlns="http://www.w3.org/2000/svg" xmlns:xlink="http://www.w3.org/1999/xlink">
    <g id="Notes" font-family="'LucidaGrande', 'Lucida Grande', sans-serif" font-size="13">
        <rect fill="white" height="600.0" width="800.0" x="0.0" y="0.0" />
        <g font-size="13">
            <text x="18.0" y="176.0">Small</text>
            <text x="18.0" y="376.0">Medium</text>
            <text x="18.0" y="576.0">Large</text>
        </g>
        <g font-size="9">
            <text x="250.0" y="30.0">Ultralight</text>
            <text x="450.0" y="30.0">Regular</text>
            <text x="650.0" y="30.0">Black</text>
            <text id="template-version" fill="#505050" text-anchor="end" x="785.0" y="575.0">Template v.3.0</text>
            <a href="https://wangchujiang.com/#/app">
                <text fill="#505050" text-anchor="end" x="785.0" y="590.0">https://wangchujiang.com/#/app</text>
            </a>
        </g>
    </g>
    <g id="Guides" stroke="rgb(39, 170, 225)" stroke-width="0.5">
        <path id="Capline-S" d="M18,76 l800,0" />
        <path id="H-reference" d="M85,145.755 L87.685,145.755 L113.369,79.287 L114.052,79.287 L114.052,76 L112.148,76 L85,145.755 Z M95.693,121.536 L130.996,121.536 L130.263,119.313 L96.474,119.313 L95.693,121.536 Z M139.15,145.755 L141.787,145.755 L114.638,76 L113.466,76 L113.466,79.287 L139.15,145.755 Z" stroke="none" />
        <path id="Baseline-S" d="M18,146 l800,0" />
        <path id="left-margin-Ultralight-S" d="M220,56 l0,110" />
        <path id="right-margin-Ultralight-S" d="M310,56 l0,110" />
        <path id="left-margin-Regular-S" d="M420,56 l0,110" />
        <path id="right-margin-Regular-S" d="M510,56 l0,110" />
        <path id="left-margin-Black-S" d="M620,56 l0,110" />
        <path id="right-margin-Black-S" d="M710,56 l0,110" />
        <path id="Capline-M" d="M18,276 l800,0" />
        <path id="Baseline-M" d="M18,346 l800,0" />
        <path id="Capline-L" d="M18,476 l800,0" />
        <path id="Baseline-L" d="M18,546 l800,0" />
    </g>
    <g id="Symbols">
        <g id="Ultralight-S">
            <path d="M272.326,122.395 C272.326,119.375 272.414,118.714 272.564,118.564 C272.714,118.414 273.375,118.326 276.395,118.326 L291.047,118.326 C294.067,118.326 294.728,118.414 294.878,118.564 C295.027,118.714 295.116,119.375 295.116,122.395 L295.116,137.047 C295.116,140.067 295.027,140.728 294.878,140.878 C294.728,141.027 294.067,141.116 291.047,141.116 L276.395,141.116 C273.375,141.116 272.714,141.027 272.564,140.878 C272.414,140.728 272.326,140.067 272.326,137.047 L272.326,122.395 Z M267.442,122.395 L267.442,137.047 C267.442,141.7 267.591,142.811 269.111,144.331 C270.631,145.85 271.742,146 276.395,146 L291.047,146 C295.7,146 296.811,145.85 298.331,144.331 C299.85,142.811 300,141.7 300,137.047 L300,122.395 C300,117.742 299.85,116.631 298.331,115.111 C296.811,113.591 295.7,113.442 291.047,113.442 L276.395,113.442 C271.742,113.442 270.631,113.591 269.111,115.111 C267.591,116.631 267.442,117.742 267.442,122.395 Z M234.884,84.953 C234.884,81.933 234.973,81.272 235.122,81.122 C235.272,80.973 235.933,80.884 238.953,80.884 L253.605,80.884 C256.625,80.884 257.286,80.973 257.436,81.122 C257.586,81.272 257.674,81.933 257.674,84.953 L257.674,99.605 C257.674,102.625 257.586,103.286 257.436,103.436 C257.286,103.586 256.625,103.674 253.605,103.674 L238.953,103.674 C235.933,103.674 235.272,103.586 235.122,103.436 C234.973,103.286 234.884,102.625 234.884,99.605 L234.884,84.953 Z M230,84.953 L230,99.605 C230,104.258 230.15,105.369 231.669,106.889 C233.189,108.409 234.3,108.558 238.953,108.558 L253.605,108.558 C258.258,108.558 259.369,108.409 260.889,106.889 C262.409,105.369 262.558,104.258 262.558,99.605 L262.558,84.953 C262.558,80.3 262.409,79.189 260.889,77.669 C259.369,76.15 258.258,76 253.605,76 L238.953,76 C234.3,76 233.189,76.15 231.669,77.669 C230.15,79.189 230,80.3 230,84.953 Z M234.884,122.395 C234.884,119.375 234.973,118.714 235.122,118.564 C235.272,118.414 235.933,118.326 238.953,118.326 L253.605,118.326 C256.625,118.326 257.286,118.414 257.436,118.564 C257.586,118.714 257.674,119.375 257.674,122.395 L257.674,137.047 C257.674,140.067 257.586,140.728 257.436,140.878 C257.286,141.027 256.625,141.116 253.605,141.116 L238.953,141.116 C235.933,141.116 235.272,141.027 235.122,140.878 C234.973,140.728 234.884,140.067 234.884,137.047 L234.884,122.395 Z M230,122.395 L230,137.047 C230,141.7 230.15,142.811 231.669,144.331 C233.189,145.85 234.3,146 238.953,146 L253.605,146 C258.258,146 259.369,145.85 260.889,144.331 C262.409,142.811 262.558,141.7 262.558,137.047 L262.558,122.395 C262.558,117.742 262.409,116.631 260.889,115.111 C259.369,113.591 258.258,113.442 253.605,113.442 L238.953,113.442 C234.3,113.442 233.189,113.591 231.669,115.111 C230.15,116.631 230,117.742 230,122.395 Z M272.326,84.953 C272.326,81.933 272.414,81.272 272.564,81.122 C272.714,80.973 273.375,80.884 276.395,80.884 L291.047,80.884 C294.067,80.884 294.728,80.973 294.878,81.122 C295.027,81.272 295.116,81.933 295.116,84.953 L295.116,99.605 C295.116,102.625 295.027,103.286 294.878,103.436 C294.728,103.586 294.067,103.674 291.047,103.674 L276.395,103.674 C273.375,103.674 272.714,103.586 272.564,103.436 C272.414,103.286 272.326,102.625 272.326,99.605 L272.326,84.953 Z M267.442,84.953 L267.442,99.605 C267.442,104.258 267.591,105.369 269.111,106.889 C270.631,108.409 271.742,108.558 276.395,108.558 L291.047,108.558 C295.7,108.558 296.811,108.409 298.331,106.889 C299.85,105.369 300,104.258 300,99.605 L300,84.953 C300,80.3 299.85,79.189 298.331,77.669 C296.811,76.15 295.7,76 291.047,76 L276.395,76 C271.742,76 270.631,76.15 269.111,77.669 C267.591,79.189 267.442,80.3 267.442,84.953 Z" />
        </g>
        <g id="Regular-S">
            <path d="M472.326,122.395 C472.326,119.375 472.414,118.714 472.564,118.564 C472.714,118.414 473.375,118.326 476.395,118.326 L491.047,118.326 C494.067,118.326 494.728,118.414 494.878,118.564 C495.027,118.714 495.116,119.375 495.116,122.395 L495.116,137.047 C495.116,140.067 495.027,140.728 494.878,140.878 C494.728,141.027 494.067,141.116 491.047,141.116 L476.395,141.116 C473.375,141.116 472.714,141.027 472.564,140.878 C472.414,140.728 472.326,140.067 472.326,137.047 L472.326,122.395 Z M467.442,122.395 L467.442,137.047 C467.442,141.7 467.591,142.811 469.111,144.331 C470.631,145.85 471.742,146 476.395,146 L491.047,146 C495.7,146 496.811,145.85 498.331,144.331 C499.85,142.811 500,141.7 500,137.047 L500,122.395 C500,117.742 499.85,116.631 498.331,115.111 C496.811,113.591 495.7,113.442 491.047,113.442 L476.395,113.442 C471.742,113.442 470.631,113.591 469.111,115.111 C467.591,116.631 467.442,117.742 467.442,122.395 Z M434.884,84.953 C434.884,81.933 434.973,81.272 435.122,81.122 C435.272,80.973 435.933,80.884 438.953,80.884 L453.605,80.884 C456.625,80.884 457.286,80.973 457.436,81.122 C457.586,81.272 457.674,81.933 457.674,84.953 L457.674,99.605 C457.674,102.625 457.586,103.286 457.436,103.436 C457.286,103.586 456.625,103.674 453.605,103.674 L438.953,103.674 C435.933,103.674 435.272,103.586 435.122,103.436 C434.973,103.286 434.884,102.625 434.884,99.605 L434.884,84.953 Z M430,84.953 L430,99.605 C430,104.258 430.15,105.369 431.669,106.889 C433.189,108.409 434.3,108.558 438.953,108.558 L453.605,108.558 C458.258,108.558 459.369,108.409 460.889,106.889 C462.409,105.369 462.558,104.258 462.558,99.605 L462.558,84.953 C462.558,80.3 462.409,79.189 460.889,77.669 C459.369,76.15 458.258,76 453.605,76 L438.953,76 C434.3,76 433.189,76.15 431.669,77.669 C430.15,79.189 430,80.3 430,84.953 Z M434.884,122.395 C434.884,119.375 434.973,118.714 435.122,118.564 C435.272,118.414 435.933,118.326 438.953,118.326 L453.605,118.326 C456.625,118.326 457.286,118.414 457.436,118.564 C457.586,118.714 457.674,119.375 457.674,122.395 L457.674,137.047 C457.674,140.067 457.586,140.728 457.436,140.878 C457.286,141.027 456.625,141.116 453.605,141.116 L438.953,141.116 C435.933,141.116 435.272,141.027 435.122,140.878 C434.973,140.728 434.884,140.067 434.884,137.047 L434.884,122.395 Z M430,122.395 L430,137.047 C430,141.7 430.15,142.811 431.669,144.331 C433.189,145.85 434.3,146 438.953,146 L453.605,146 C458.258,146 459.369,145.85 460.889,144.331 C462.409,142.811 462.558,141.7 462.558,137.047 L462.558,122.395 C462.558,117.742 462.409,116.631 460.889,115.111 C459.369,113.591 458.258,113.442 453.605,113.442 L438.953,113.442 C434.3,113.442 433.189,113.591 431.669,115.111 C430.15,116.631 430,117.742 430,122.395 Z M472.326,84.953 C472.326,81.933 472.414,81.272 472.564,81.122 C472.714,80.973 473.375,80.884 476.395,80.884 L491.047,80.884 C494.067,80.884 494.728,80.973 494.878,81.122 C495.027,81.272 495.116,81.933 495.116,84.953 L495.116,99.605 C495.116,102.625 495.027,103.286 494.878,103.436 C494.728,103.586 494.067,103.674 491.047,103.674 L476.395,103.674 C473.375,103.674 472.714,103.586 472.564,103.436 C472.414,103.286 472.326,102.625 472.326,99.605 L472.326,84.953 Z M467.442,84.953 L467.442,99.605 C467.442,104.258 467.591,105.369 469.111,106.889 C470.631,108.409 471.742,108.558 476.395,108.558 L491.047,108.558 C495.7,108.558 496.811,108.409 498.331,106.889 C499.85,105.369 500,104.258 500,99.605 L500,84.953 C500,80.3 499.85,79.189 498.331,77.669 C496.811,76.15 495.7,76 491.047,76 L476.395,76 C471.742,76 470.631,76.15 469.111,77.669 C467.591,79.189 467.442,80.3 467.442,84.953 Z" />
        </g>
        <g id="Black-S">
            <path d="M672.326,122.395 C672.326,119.375 672.414,118.714 672.564,118.564 C672.714,118.414 673.375,118.326 676.395,118.326 L691.047,118.326 C694.067,118.326 694.728,118.414 694.878,118.564 C695.027,118.714 695.116,119.375 695.116,122.395 L695.116,137.047 C695.116,140.067 695.027,140.728 694.878,140.878 C694.728,141.027 694.067,141.116 691.047,141.116 L676.395,141.116 C673.375,141.116 672.714,141.027 672.564,140.878 C672.414,140.728 672.326,140.067 672.326,137.047 L672.326,122.395 Z M667.442,122.395 L667.442,137.047 C667.442,141.7 667.591,142.811 669.111,144.331 C670.631,145.85 671.742,146 676.395,146 L691.047,146 C695.7,146 696.811,145.85 698.331,144.331 C699.85,142.811 700,141.7 700,137.047 L700,122.395 C700,117.742 699.851,116.631 698.331,115.111 C696.811,113.591 695.7,113.442 691.047,113.442 L676.395,113.442 C671.742,113.442 670.631,113.591 669.111,115.111 C667.591,116.631 667.442,117.742 667.442,122.395 Z M634.884,84.953 C634.884,81.933 634.973,81.272 635.122,81.122 C635.272,80.973 635.933,80.884 638.953,80.884 L653.605,80.884 C656.625,80.884 657.286,80.973 657.436,81.122 C657.586,81.272 657.674,81.933 657.674,84.953 L657.674,99.605 C657.674,102.625 657.586,103.286 657.436,103.436 C657.286,103.586 656.625,103.674 653.605,103.674 L638.953,103.674 C635.933,103.674 635.272,103.586 635.122,103.436 C634.973,103.286 634.884,102.625 634.884,99.605 L634.884,84.953 Z M630,84.953 L630,99.605 C630,104.258 630.15,105.369 631.669,106.889 C633.189,108.409 634.3,108.558 638.953,108.558 L653.605,108.558 C658.258,108.558 659.369,108.409 660.889,106.889 C662.409,105.369 662.558,104.258 662.558,99.605 L662.558,84.953 C662.558,80.3 662.409,79.189 660.889,77.669 C659.369,76.15 658.258,76 653.605,76 L638.953,76 C634.3,76 633.189,76.15 631.669,77.669 C630.15,79.189 630,80.3 630,84.953 Z M634.884,122.395 C634.884,119.375 634.973,118.714 635.122,118.564 C635.272,118.414 635.933,118.326 638.953,118.326 L653.605,118.326 C656.625,118.326 657.286,118.414 657.436,118.564 C657.586,118.714 657.674,119.375 657.674,122.395 L657.674,137.047 C657.674,140.067 657.586,140.728 657.436,140.878 C657.286,141.027 656.625,141.116 653.605,141.116 L638.953,141.116 C635.933,141.116 635.272,141.027 635.122,140.878 C634.973,140.728 634.884,140.067 634.884,137.047 L634.884,122.395 Z M630,122.395 L630,137.047 C630,141.7 630.15,142.811 631.669,144.331 C633.189,145.85 634.3,146 638.953,146 L653.605,146 C658.258,146 659.369,145.85 660.889,144.331 C662.409,142.811 662.558,141.7 662.558,137.047 L662.558,122.395 C662.558,117.742 662.409,116.631 660.889,115.111 C659.369,113.591 658.258,113.442 653.605,113.442 L638.953,113.442 C634.3,113.442 633.189,113.591 631.669,115.111 C630.15,116.631 630,117.742 630,122.395 Z M672.326,84.953 C672.326,81.933 672.414,81.272 672.564,81.122 C672.714,80.973 673.375,80.884 676.395,80.884 L691.047,80.884 C694.067,80.884 694.728,80.973 694.878,81.122 C695.027,81.272 695.116,81.933 695.116,84.953 L695.116,99.605 C695.116,102.625 695.027,103.286 694.878,103.436 C694.728,103.586 694.067,103.674 691.047,103.674 L676.395,103.674 C673.375,103.674 672.714,103.586 672.564,103.436 C672.414,103.286 672.326,102.625 672.326,99.605 L672.326,84.953 Z M667.442,84.953 L667.442,99.605 C667.442,104.258 667.591,105.369 669.111,106.889 C670.631,108.409 671.742,108.558 676.395,108.558 L691.047,108.558 C695.7,108.558 696.811,108.409 698.331,106.889 C699.85,105.369 700,104.258 700,99.605 L700,84.953 C700,80.3 699.851,79.189 698.331,77.669 C696.811,76.15 695.7,76 691.047,76 L676.395,76 C671.742,76 670.631,76.15 669.111,77.669 C667.591,79.189 667.442,80.3 667.442,84.953 Z" />
        </g>
    </g>
</svg>