<?xml version="1.0" encoding="UTF-8"?>
<svg height="600" width="800" xmlns="http://www.w3.org/2000/svg">
    <g id="Notes" font-family="'LucidaGrande', 'Lucida Grande', sans-serif" font-size="13">
        <rect fill="white" height="600" width="800" x="0" y="0" />
        <text id="template-version" fill="#505050" font-size="9" text-anchor="end" x="785" y="575">Template v.3.0</text>
    </g>
    <g id="Guides" stroke="rgb(39,170,225)" stroke-width="0.5">
        <path id="Capline-S" d="M18,76 l800,0" />
        <path id="Baseline-S" d="M18,146 l800,0" />
        <path id="left-margin-Ultralight-S" d="M220,56 l0,110" />
        <path id="right-margin-Ultralight-S" d="M310,56 l0,110" />
        <path id="Capline-M" d="M18,276 l800,0" />
        <path id="Baseline-M" d="M18,346 l800,0" />
        <path id="left-margin-Regular-S" d="M420,56 l0,110" />
        <path id="right-margin-Regular-S" d="M510,56 l0,110" />
        <path id="Capline-L" d="M18,476 l800,0" />
        <path id="Baseline-L" d="M18,546 l800,0" />
        <path id="left-margin-Black-S" d="M620,56 l0,110" />
        <path id="right-margin-Black-S" d="M710,56 l0,110" />
    </g>
    <g id="Symbols" fill="#000000">
        <g id="Ultralight-S">
            <path fill-rule="evenodd" d="M296.000 111.000 L296.000 129.000 C296.000 136.180 290.180 142.000 283.000 142.000 L247.000 142.000 C239.820 142.000 234.000 136.180 234.000 129.000 L234.000 93.000 C234.000 85.820 239.820 80.000 247.000 80.000 L283.000 80.000 C290.180 80.000 296.000 85.820 296.000 93.000 Z M289.000 111.000 L289.000 126.000 C289.000 130.971 284.971 135.000 280.000 135.000 L250.000 135.000 C245.029 135.000 241.000 130.971 241.000 126.000 L241.000 96.000 C241.000 91.029 245.029 87.000 250.000 87.000 L280.000 87.000 C284.971 87.000 289.000 91.029 289.000 96.000 Z" />
            <path transform="translate(244.658 119.462)" d="M5.589 -0.000 L5.589 -14.015 L5.501 -14.015 L1.159 -11.022 L1.159 -13.802 L5.577 -16.910 L8.564 -16.910 L8.564 -0.000 Z M12.742 -0.000 L12.742 -2.061 L18.633 -7.852 Q19.754 -8.953 20.343 -9.676 Q20.932 -10.398 21.153 -10.968 Q21.374 -11.538 21.374 -12.170 L21.374 -12.195 Q21.374 -12.959 21.021 -13.546 Q20.668 -14.133 20.041 -14.468 Q19.415 -14.804 18.586 -14.804 Q17.661 -14.804 16.946 -14.424 Q16.232 -14.044 15.825 -13.392 Q15.418 -12.740 15.406 -11.912 L15.401 -11.831 L12.578 -11.832 L12.575 -11.909 Q12.577 -13.461 13.363 -14.661 Q14.149 -15.862 15.512 -16.542 Q16.876 -17.223 18.594 -17.223 Q20.283 -17.223 21.577 -16.598 Q22.871 -15.972 23.603 -14.879 Q24.336 -13.785 24.336 -12.382 L24.336 -12.356 Q24.336 -11.373 23.977 -10.495 Q23.618 -9.617 22.764 -8.591 Q21.910 -7.565 20.406 -6.118 L15.714 -1.638 L16.747 -3.504 L16.747 -1.638 L15.719 -2.474 L24.592 -2.474 L24.592 -0.000 Z M33.206 0.298 Q31.353 0.298 29.969 -0.319 Q28.584 -0.937 27.778 -2.026 Q26.972 -3.116 26.851 -4.536 L26.839 -4.680 L29.724 -4.680 L29.739 -4.555 Q29.824 -3.863 30.269 -3.324 Q30.714 -2.786 31.462 -2.479 Q32.211 -2.172 33.202 -2.172 Q34.186 -2.172 34.918 -2.506 Q35.650 -2.841 36.056 -3.432 Q36.461 -4.023 36.461 -4.790 L36.461 -4.813 Q36.461 -6.153 35.538 -6.868 Q34.614 -7.584 32.988 -7.584 L30.986 -7.584 L30.986 -9.836 L32.924 -9.836 Q33.858 -9.836 34.557 -10.160 Q35.256 -10.483 35.643 -11.056 Q36.031 -11.629 36.031 -12.369 L36.031 -12.392 Q36.031 -13.159 35.696 -13.699 Q35.362 -14.239 34.723 -14.526 Q34.084 -14.812 33.179 -14.812 Q32.291 -14.812 31.604 -14.519 Q30.917 -14.226 30.508 -13.687 Q30.099 -13.148 30.016 -12.413 L30.004 -12.299 L27.201 -12.299 L27.213 -12.435 Q27.343 -13.879 28.113 -14.949 Q28.882 -16.019 30.178 -16.614 Q31.475 -17.208 33.179 -17.208 Q34.926 -17.208 36.218 -16.650 Q37.510 -16.092 38.219 -15.100 Q38.927 -14.108 38.927 -12.788 L38.927 -12.764 Q38.927 -11.714 38.463 -10.911 Q37.998 -10.108 37.195 -9.583 Q36.392 -9.059 35.378 -8.848 L35.378 -8.786 Q37.252 -8.619 38.389 -7.555 Q39.526 -6.490 39.526 -4.738 L39.526 -4.714 Q39.526 -3.242 38.726 -2.110 Q37.925 -0.978 36.504 -0.340 Q35.083 0.298 33.206 0.298 Z" />
        </g>
        <g id="Regular-S" transform="translate(200,0)">
            <path fill-rule="evenodd" d="M296.000 111.000 L296.000 129.000 C296.000 136.180 290.180 142.000 283.000 142.000 L247.000 142.000 C239.820 142.000 234.000 136.180 234.000 129.000 L234.000 93.000 C234.000 85.820 239.820 80.000 247.000 80.000 L283.000 80.000 C290.180 80.000 296.000 85.820 296.000 93.000 Z M289.000 111.000 L289.000 126.000 C289.000 130.971 284.971 135.000 280.000 135.000 L250.000 135.000 C245.029 135.000 241.000 130.971 241.000 126.000 L241.000 96.000 C241.000 91.029 245.029 87.000 250.000 87.000 L280.000 87.000 C284.971 87.000 289.000 91.029 289.000 96.000 Z" />
            <path transform="translate(244.658 119.462)" d="M5.589 -0.000 L5.589 -14.015 L5.501 -14.015 L1.159 -11.022 L1.159 -13.802 L5.577 -16.910 L8.564 -16.910 L8.564 -0.000 Z M12.742 -0.000 L12.742 -2.061 L18.633 -7.852 Q19.754 -8.953 20.343 -9.676 Q20.932 -10.398 21.153 -10.968 Q21.374 -11.538 21.374 -12.170 L21.374 -12.195 Q21.374 -12.959 21.021 -13.546 Q20.668 -14.133 20.041 -14.468 Q19.415 -14.804 18.586 -14.804 Q17.661 -14.804 16.946 -14.424 Q16.232 -14.044 15.825 -13.392 Q15.418 -12.740 15.406 -11.912 L15.401 -11.831 L12.578 -11.832 L12.575 -11.909 Q12.577 -13.461 13.363 -14.661 Q14.149 -15.862 15.512 -16.542 Q16.876 -17.223 18.594 -17.223 Q20.283 -17.223 21.577 -16.598 Q22.871 -15.972 23.603 -14.879 Q24.336 -13.785 24.336 -12.382 L24.336 -12.356 Q24.336 -11.373 23.977 -10.495 Q23.618 -9.617 22.764 -8.591 Q21.910 -7.565 20.406 -6.118 L15.714 -1.638 L16.747 -3.504 L16.747 -1.638 L15.719 -2.474 L24.592 -2.474 L24.592 -0.000 Z M33.206 0.298 Q31.353 0.298 29.969 -0.319 Q28.584 -0.937 27.778 -2.026 Q26.972 -3.116 26.851 -4.536 L26.839 -4.680 L29.724 -4.680 L29.739 -4.555 Q29.824 -3.863 30.269 -3.324 Q30.714 -2.786 31.462 -2.479 Q32.211 -2.172 33.202 -2.172 Q34.186 -2.172 34.918 -2.506 Q35.650 -2.841 36.056 -3.432 Q36.461 -4.023 36.461 -4.790 L36.461 -4.813 Q36.461 -6.153 35.538 -6.868 Q34.614 -7.584 32.988 -7.584 L30.986 -7.584 L30.986 -9.836 L32.924 -9.836 Q33.858 -9.836 34.557 -10.160 Q35.256 -10.483 35.643 -11.056 Q36.031 -11.629 36.031 -12.369 L36.031 -12.392 Q36.031 -13.159 35.696 -13.699 Q35.362 -14.239 34.723 -14.526 Q34.084 -14.812 33.179 -14.812 Q32.291 -14.812 31.604 -14.519 Q30.917 -14.226 30.508 -13.687 Q30.099 -13.148 30.016 -12.413 L30.004 -12.299 L27.201 -12.299 L27.213 -12.435 Q27.343 -13.879 28.113 -14.949 Q28.882 -16.019 30.178 -16.614 Q31.475 -17.208 33.179 -17.208 Q34.926 -17.208 36.218 -16.650 Q37.510 -16.092 38.219 -15.100 Q38.927 -14.108 38.927 -12.788 L38.927 -12.764 Q38.927 -11.714 38.463 -10.911 Q37.998 -10.108 37.195 -9.583 Q36.392 -9.059 35.378 -8.848 L35.378 -8.786 Q37.252 -8.619 38.389 -7.555 Q39.526 -6.490 39.526 -4.738 L39.526 -4.714 Q39.526 -3.242 38.726 -2.110 Q37.925 -0.978 36.504 -0.340 Q35.083 0.298 33.206 0.298 Z" />
        </g>
        <g id="Black-S" transform="translate(400,0)">
            <path fill-rule="evenodd" d="M296.000 111.000 L296.000 129.000 C296.000 136.180 290.180 142.000 283.000 142.000 L247.000 142.000 C239.820 142.000 234.000 136.180 234.000 129.000 L234.000 93.000 C234.000 85.820 239.820 80.000 247.000 80.000 L283.000 80.000 C290.180 80.000 296.000 85.820 296.000 93.000 Z M289.000 111.000 L289.000 126.000 C289.000 130.971 284.971 135.000 280.000 135.000 L250.000 135.000 C245.029 135.000 241.000 130.971 241.000 126.000 L241.000 96.000 C241.000 91.029 245.029 87.000 250.000 87.000 L280.000 87.000 C284.971 87.000 289.000 91.029 289.000 96.000 Z" />
            <path transform="translate(244.658 119.462)" d="M5.589 -0.000 L5.589 -14.015 L5.501 -14.015 L1.159 -11.022 L1.159 -13.802 L5.577 -16.910 L8.564 -16.910 L8.564 -0.000 Z M12.742 -0.000 L12.742 -2.061 L18.633 -7.852 Q19.754 -8.953 20.343 -9.676 Q20.932 -10.398 21.153 -10.968 Q21.374 -11.538 21.374 -12.170 L21.374 -12.195 Q21.374 -12.959 21.021 -13.546 Q20.668 -14.133 20.041 -14.468 Q19.415 -14.804 18.586 -14.804 Q17.661 -14.804 16.946 -14.424 Q16.232 -14.044 15.825 -13.392 Q15.418 -12.740 15.406 -11.912 L15.401 -11.831 L12.578 -11.832 L12.575 -11.909 Q12.577 -13.461 13.363 -14.661 Q14.149 -15.862 15.512 -16.542 Q16.876 -17.223 18.594 -17.223 Q20.283 -17.223 21.577 -16.598 Q22.871 -15.972 23.603 -14.879 Q24.336 -13.785 24.336 -12.382 L24.336 -12.356 Q24.336 -11.373 23.977 -10.495 Q23.618 -9.617 22.764 -8.591 Q21.910 -7.565 20.406 -6.118 L15.714 -1.638 L16.747 -3.504 L16.747 -1.638 L15.719 -2.474 L24.592 -2.474 L24.592 -0.000 Z M33.206 0.298 Q31.353 0.298 29.969 -0.319 Q28.584 -0.937 27.778 -2.026 Q26.972 -3.116 26.851 -4.536 L26.839 -4.680 L29.724 -4.680 L29.739 -4.555 Q29.824 -3.863 30.269 -3.324 Q30.714 -2.786 31.462 -2.479 Q32.211 -2.172 33.202 -2.172 Q34.186 -2.172 34.918 -2.506 Q35.650 -2.841 36.056 -3.432 Q36.461 -4.023 36.461 -4.790 L36.461 -4.813 Q36.461 -6.153 35.538 -6.868 Q34.614 -7.584 32.988 -7.584 L30.986 -7.584 L30.986 -9.836 L32.924 -9.836 Q33.858 -9.836 34.557 -10.160 Q35.256 -10.483 35.643 -11.056 Q36.031 -11.629 36.031 -12.369 L36.031 -12.392 Q36.031 -13.159 35.696 -13.699 Q35.362 -14.239 34.723 -14.526 Q34.084 -14.812 33.179 -14.812 Q32.291 -14.812 31.604 -14.519 Q30.917 -14.226 30.508 -13.687 Q30.099 -13.148 30.016 -12.413 L30.004 -12.299 L27.201 -12.299 L27.213 -12.435 Q27.343 -13.879 28.113 -14.949 Q28.882 -16.019 30.178 -16.614 Q31.475 -17.208 33.179 -17.208 Q34.926 -17.208 36.218 -16.650 Q37.510 -16.092 38.219 -15.100 Q38.927 -14.108 38.927 -12.788 L38.927 -12.764 Q38.927 -11.714 38.463 -10.911 Q37.998 -10.108 37.195 -9.583 Q36.392 -9.059 35.378 -8.848 L35.378 -8.786 Q37.252 -8.619 38.389 -7.555 Q39.526 -6.490 39.526 -4.738 L39.526 -4.714 Q39.526 -3.242 38.726 -2.110 Q37.925 -0.978 36.504 -0.340 Q35.083 0.298 33.206 0.298 Z" />
        </g>
    </g>
</svg>
