<?xml version="1.0" encoding="UTF-8"?>
<svg height="600" width="800" xmlns="http://www.w3.org/2000/svg">
    <g id="Notes" font-family="'LucidaGrande', 'Lucida Grande', sans-serif" font-size="13">
        <rect fill="white" height="600" width="800" x="0" y="0" />
        <text id="template-version" fill="#505050" font-size="9" text-anchor="end" x="785" y="575">Template v.3.0</text>
    </g>
    <g id="Guides" stroke="rgb(39,170,225)" stroke-width="0.5">
        <path id="Capline-S" d="M18,76 l800,0" />
        <path id="Baseline-S" d="M18,146 l800,0" />
        <path id="left-margin-Ultralight-S" d="M220,56 l0,110" />
        <path id="right-margin-Ultralight-S" d="M310,56 l0,110" />
        <path id="Capline-M" d="M18,276 l800,0" />
        <path id="Baseline-M" d="M18,346 l800,0" />
        <path id="left-margin-Regular-S" d="M420,56 l0,110" />
        <path id="right-margin-Regular-S" d="M510,56 l0,110" />
        <path id="Capline-L" d="M18,476 l800,0" />
        <path id="Baseline-L" d="M18,546 l800,0" />
        <path id="left-margin-Black-S" d="M620,56 l0,110" />
        <path id="right-margin-Black-S" d="M710,56 l0,110" />
    </g>
    <g id="Symbols" fill="#000000">
        <g id="Ultralight-S">
            <path fill-rule="evenodd" d="M296.000 111.000 L296.000 129.000 C296.000 136.180 290.180 142.000 283.000 142.000 L247.000 142.000 C239.820 142.000 234.000 136.180 234.000 129.000 L234.000 93.000 C234.000 85.820 239.820 80.000 247.000 80.000 L283.000 80.000 C290.180 80.000 296.000 85.820 296.000 93.000 Z M289.000 111.000 L289.000 126.000 C289.000 130.971 284.971 135.000 280.000 135.000 L250.000 135.000 C245.029 135.000 241.000 130.971 241.000 126.000 L241.000 96.000 C241.000 91.029 245.029 87.000 250.000 87.000 L280.000 87.000 C284.971 87.000 289.000 91.029 289.000 96.000 Z" />
            <path transform="translate(253.803 116.654)" d="M16.617 -5.906 Q16.570 -6.949 16.154 -7.869 Q15.738 -8.789 15.041 -9.480 Q14.344 -10.172 13.418 -10.594 Q12.492 -11.016 11.438 -11.062 L11.438 -5.906 Z M11.438 -5.426 L11.438 -0.234 Q12.492 -0.281 13.418 -0.703 Q14.344 -1.125 15.041 -1.822 Q15.738 -2.520 16.154 -3.445 Q16.570 -4.371 16.617 -5.426 Z M5.777 -5.426 Q5.824 -4.371 6.246 -3.445 Q6.668 -2.520 7.371 -1.822 Q8.074 -1.125 8.994 -0.703 Q9.914 -0.281 10.957 -0.234 L10.957 -5.426 Z M10.957 -5.906 L10.957 -11.062 Q9.914 -11.016 8.994 -10.594 Q8.074 -10.172 7.371 -9.480 Q6.668 -8.789 6.246 -7.869 Q5.824 -6.949 5.777 -5.906 Z M5.297 -5.906 Q5.344 -7.055 5.801 -8.062 Q6.258 -9.070 7.020 -9.832 Q7.781 -10.594 8.795 -11.045 Q9.809 -11.496 10.957 -11.543 L10.957 -15.363 L11.438 -15.363 L11.438 -11.543 Q12.598 -11.496 13.611 -11.045 Q14.625 -10.594 15.387 -9.832 Q16.148 -9.070 16.600 -8.062 Q17.051 -7.055 17.098 -5.906 L20.895 -5.906 L20.895 -5.426 L17.098 -5.426 Q17.051 -4.266 16.600 -3.252 Q16.148 -2.238 15.387 -1.477 Q14.625 -0.715 13.611 -0.264 Q12.598 0.188 11.438 0.234 L11.438 4.055 L10.957 4.055 L10.957 0.234 Q9.809 0.188 8.795 -0.264 Q7.781 -0.715 7.020 -1.477 Q6.258 -2.238 5.801 -3.252 Q5.344 -4.266 5.297 -5.426 L1.500 -5.426 L1.500 -5.906 Z" />
        </g>
        <g id="Regular-S" transform="translate(200,0)">
            <path fill-rule="evenodd" d="M296.000 111.000 L296.000 129.000 C296.000 136.180 290.180 142.000 283.000 142.000 L247.000 142.000 C239.820 142.000 234.000 136.180 234.000 129.000 L234.000 93.000 C234.000 85.820 239.820 80.000 247.000 80.000 L283.000 80.000 C290.180 80.000 296.000 85.820 296.000 93.000 Z M289.000 111.000 L289.000 126.000 C289.000 130.971 284.971 135.000 280.000 135.000 L250.000 135.000 C245.029 135.000 241.000 130.971 241.000 126.000 L241.000 96.000 C241.000 91.029 245.029 87.000 250.000 87.000 L280.000 87.000 C284.971 87.000 289.000 91.029 289.000 96.000 Z" />
            <path transform="translate(253.803 116.654)" d="M16.617 -5.906 Q16.570 -6.949 16.154 -7.869 Q15.738 -8.789 15.041 -9.480 Q14.344 -10.172 13.418 -10.594 Q12.492 -11.016 11.438 -11.062 L11.438 -5.906 Z M11.438 -5.426 L11.438 -0.234 Q12.492 -0.281 13.418 -0.703 Q14.344 -1.125 15.041 -1.822 Q15.738 -2.520 16.154 -3.445 Q16.570 -4.371 16.617 -5.426 Z M5.777 -5.426 Q5.824 -4.371 6.246 -3.445 Q6.668 -2.520 7.371 -1.822 Q8.074 -1.125 8.994 -0.703 Q9.914 -0.281 10.957 -0.234 L10.957 -5.426 Z M10.957 -5.906 L10.957 -11.062 Q9.914 -11.016 8.994 -10.594 Q8.074 -10.172 7.371 -9.480 Q6.668 -8.789 6.246 -7.869 Q5.824 -6.949 5.777 -5.906 Z M5.297 -5.906 Q5.344 -7.055 5.801 -8.062 Q6.258 -9.070 7.020 -9.832 Q7.781 -10.594 8.795 -11.045 Q9.809 -11.496 10.957 -11.543 L10.957 -15.363 L11.438 -15.363 L11.438 -11.543 Q12.598 -11.496 13.611 -11.045 Q14.625 -10.594 15.387 -9.832 Q16.148 -9.070 16.600 -8.062 Q17.051 -7.055 17.098 -5.906 L20.895 -5.906 L20.895 -5.426 L17.098 -5.426 Q17.051 -4.266 16.600 -3.252 Q16.148 -2.238 15.387 -1.477 Q14.625 -0.715 13.611 -0.264 Q12.598 0.188 11.438 0.234 L11.438 4.055 L10.957 4.055 L10.957 0.234 Q9.809 0.188 8.795 -0.264 Q7.781 -0.715 7.020 -1.477 Q6.258 -2.238 5.801 -3.252 Q5.344 -4.266 5.297 -5.426 L1.500 -5.426 L1.500 -5.906 Z" />
        </g>
        <g id="Black-S" transform="translate(400,0)">
            <path fill-rule="evenodd" d="M296.000 111.000 L296.000 129.000 C296.000 136.180 290.180 142.000 283.000 142.000 L247.000 142.000 C239.820 142.000 234.000 136.180 234.000 129.000 L234.000 93.000 C234.000 85.820 239.820 80.000 247.000 80.000 L283.000 80.000 C290.180 80.000 296.000 85.820 296.000 93.000 Z M289.000 111.000 L289.000 126.000 C289.000 130.971 284.971 135.000 280.000 135.000 L250.000 135.000 C245.029 135.000 241.000 130.971 241.000 126.000 L241.000 96.000 C241.000 91.029 245.029 87.000 250.000 87.000 L280.000 87.000 C284.971 87.000 289.000 91.029 289.000 96.000 Z" />
            <path transform="translate(253.803 116.654)" d="M16.617 -5.906 Q16.570 -6.949 16.154 -7.869 Q15.738 -8.789 15.041 -9.480 Q14.344 -10.172 13.418 -10.594 Q12.492 -11.016 11.438 -11.062 L11.438 -5.906 Z M11.438 -5.426 L11.438 -0.234 Q12.492 -0.281 13.418 -0.703 Q14.344 -1.125 15.041 -1.822 Q15.738 -2.520 16.154 -3.445 Q16.570 -4.371 16.617 -5.426 Z M5.777 -5.426 Q5.824 -4.371 6.246 -3.445 Q6.668 -2.520 7.371 -1.822 Q8.074 -1.125 8.994 -0.703 Q9.914 -0.281 10.957 -0.234 L10.957 -5.426 Z M10.957 -5.906 L10.957 -11.062 Q9.914 -11.016 8.994 -10.594 Q8.074 -10.172 7.371 -9.480 Q6.668 -8.789 6.246 -7.869 Q5.824 -6.949 5.777 -5.906 Z M5.297 -5.906 Q5.344 -7.055 5.801 -8.062 Q6.258 -9.070 7.020 -9.832 Q7.781 -10.594 8.795 -11.045 Q9.809 -11.496 10.957 -11.543 L10.957 -15.363 L11.438 -15.363 L11.438 -11.543 Q12.598 -11.496 13.611 -11.045 Q14.625 -10.594 15.387 -9.832 Q16.148 -9.070 16.600 -8.062 Q17.051 -7.055 17.098 -5.906 L20.895 -5.906 L20.895 -5.426 L17.098 -5.426 Q17.051 -4.266 16.600 -3.252 Q16.148 -2.238 15.387 -1.477 Q14.625 -0.715 13.611 -0.264 Q12.598 0.188 11.438 0.234 L11.438 4.055 L10.957 4.055 L10.957 0.234 Q9.809 0.188 8.795 -0.264 Q7.781 -0.715 7.020 -1.477 Q6.258 -2.238 5.801 -3.252 Q5.344 -4.266 5.297 -5.426 L1.500 -5.426 L1.500 -5.906 Z" />
        </g>
    </g>
</svg>
