<?xml version="1.0" encoding="UTF-8"?>
<svg height="600" width="800" xmlns="http://www.w3.org/2000/svg" xmlns:xlink="http://www.w3.org/1999/xlink">
    <g id="Notes" font-family="'LucidaGrande', 'Lucida Grande', sans-serif" font-size="13">
        <rect fill="white" height="600.0" width="800.0" x="0.0" y="0.0" />
        <g font-size="13">
            <text x="18.0" y="176.0">Small</text>
            <text x="18.0" y="376.0">Medium</text>
            <text x="18.0" y="576.0">Large</text>
        </g>
        <g font-size="9">
            <text x="250.0" y="30.0">Ultralight</text>
            <text x="450.0" y="30.0">Regular</text>
            <text x="650.0" y="30.0">Black</text>
            <text id="template-version" fill="#505050" text-anchor="end" x="785.0" y="575.0">Template v.3.0</text>
            <a href="https://wangchujiang.com/#/app">
                <text fill="#505050" text-anchor="end" x="785.0" y="590.0">https://wangchujiang.com/#/app</text>
            </a>
        </g>
    </g>
    <g id="Guides" stroke="rgb(39, 170, 225)" stroke-width="0.5">
        <path id="Capline-S" d="M18,76 l800,0" />
        <path id="H-reference" d="M85,145.755 L87.685,145.755 L113.369,79.287 L114.052,79.287 L114.052,76 L112.148,76 L85,145.755 Z M95.693,121.536 L130.996,121.536 L130.263,119.313 L96.474,119.313 L95.693,121.536 Z M139.15,145.755 L141.787,145.755 L114.638,76 L113.466,76 L113.466,79.287 L139.15,145.755 Z" stroke="none" />
        <path id="Baseline-S" d="M18,146 l800,0" />
        <path id="left-margin-Ultralight-S" d="M221,56 l0,110" />
        <path id="right-margin-Ultralight-S" d="M309,56 l0,110" />
        <path id="left-margin-Regular-S" d="M421,56 l0,110" />
        <path id="right-margin-Regular-S" d="M509,56 l0,110" />
        <path id="left-margin-Black-S" d="M621,56 l0,110" />
        <path id="right-margin-Black-S" d="M709,56 l0,110" />
        <path id="Capline-M" d="M18,276 l800,0" />
        <path id="Baseline-M" d="M18,346 l800,0" />
        <path id="Capline-L" d="M18,476 l800,0" />
        <path id="Baseline-L" d="M18,546 l800,0" />
    </g>
    <g id="Symbols">
        <g id="Ultralight-S">
            <path d="M240.499,119.75 L257.999,119.75 L255.232,115.911 L246.482,142.161 L245.203,146 L249.249,146 L255.083,146 L256.5,146 L257.376,144.885 L289.46,104.052 L293.167,99.333 L287.166,99.333 L269.666,99.333 L272.275,103.554 L283.941,80.221 L286.052,76 L281.333,76 L249.249,76 L246.929,76 L246.407,78.261 L237.657,116.177 L236.833,119.75 L240.499,119.75 Z M240.499,113.917 L243.341,117.489 L252.091,79.573 L249.249,81.833 L281.333,81.833 L278.724,77.612 L267.057,100.946 L264.947,105.167 L269.666,105.167 L287.166,105.167 L284.873,100.448 L252.789,141.281 L255.083,140.167 L249.249,140.167 L252.016,144.006 L260.766,117.756 L262.046,113.917 L257.999,113.917 L240.499,113.917 Z" />
        </g>
        <g id="Regular-S">
            <path d="M440.499,119.75 L457.999,119.75 L455.232,115.911 L446.482,142.161 L445.203,146 L449.249,146 L455.083,146 L456.5,146 L457.376,144.885 L489.46,104.052 L493.167,99.333 L487.166,99.333 L469.666,99.333 L472.275,103.554 L483.941,80.221 L486.052,76 L481.333,76 L449.249,76 L446.929,76 L446.407,78.261 L437.657,116.177 L436.833,119.75 L440.499,119.75 Z M440.499,113.917 L443.341,117.489 L452.091,79.573 L449.249,81.833 L481.333,81.833 L478.724,77.612 L467.057,100.946 L464.947,105.167 L469.666,105.167 L487.166,105.167 L484.873,100.448 L452.789,141.281 L455.083,140.167 L449.249,140.167 L452.016,144.006 L460.766,117.756 L462.046,113.917 L457.999,113.917 L440.499,113.917 Z" />
        </g>
        <g id="Black-S">
            <path d="M640.499,119.75 L657.999,119.75 L655.232,115.911 L646.482,142.161 L645.203,146 L649.249,146 L655.083,146 L656.5,146 L657.376,144.885 L689.459,104.052 L693.167,99.333 L687.166,99.333 L669.666,99.333 L672.275,103.554 L683.941,80.221 L686.052,76 L681.333,76 L649.249,76 L646.929,76 L646.407,78.261 L637.657,116.177 L636.833,119.75 L640.499,119.75 Z M640.499,113.917 L643.341,117.489 L652.091,79.573 L649.249,81.833 L681.333,81.833 L678.724,77.612 L667.057,100.946 L664.947,105.167 L669.666,105.167 L687.166,105.167 L684.873,100.448 L652.789,141.281 L655.083,140.167 L649.249,140.167 L652.016,144.006 L660.766,117.756 L662.046,113.917 L657.999,113.917 L640.499,113.917 Z" />
        </g>
    </g>
</svg>