<?xml version="1.0" encoding="UTF-8"?>
<svg height="600" width="800" xmlns="http://www.w3.org/2000/svg">
    <g id="Notes" font-family="'LucidaGrande', 'Lucida Grande', sans-serif" font-size="13">
        <rect fill="white" height="600" width="800" x="0" y="0" />
        <text id="template-version" fill="#505050" font-size="9" text-anchor="end" x="785" y="575">Template v.3.0</text>
    </g>
    <g id="Guides" stroke="rgb(39,170,225)" stroke-width="0.5">
        <path id="Capline-S" d="M18,76 l800,0" />
        <path id="Baseline-S" d="M18,146 l800,0" />
        <path id="left-margin-Ultralight-S" d="M220,56 l0,110" />
        <path id="right-margin-Ultralight-S" d="M310,56 l0,110" />
        <path id="Capline-M" d="M18,276 l800,0" />
        <path id="Baseline-M" d="M18,346 l800,0" />
        <path id="left-margin-Regular-S" d="M420,56 l0,110" />
        <path id="right-margin-Regular-S" d="M510,56 l0,110" />
        <path id="Capline-L" d="M18,476 l800,0" />
        <path id="Baseline-L" d="M18,546 l800,0" />
        <path id="left-margin-Black-S" d="M620,56 l0,110" />
        <path id="right-margin-Black-S" d="M710,56 l0,110" />
    </g>
    <g id="Symbols" fill="#000000">
        <g id="Ultralight-S">
            <path fill-rule="evenodd" d="M296.000 111.000 L296.000 129.000 C296.000 136.180 290.180 142.000 283.000 142.000 L247.000 142.000 C239.820 142.000 234.000 136.180 234.000 129.000 L234.000 93.000 C234.000 85.820 239.820 80.000 247.000 80.000 L283.000 80.000 C290.180 80.000 296.000 85.820 296.000 93.000 Z M289.000 111.000 L289.000 126.000 C289.000 130.971 284.971 135.000 280.000 135.000 L250.000 135.000 C245.029 135.000 241.000 130.971 241.000 126.000 L241.000 96.000 C241.000 91.029 245.029 87.000 250.000 87.000 L280.000 87.000 C284.971 87.000 289.000 91.029 289.000 96.000 Z" />
            <path transform="translate(250.841 119.349)" d="M0.405 -0.000 L6.446 -16.910 L8.986 -16.910 L8.986 -13.879 L8.102 -13.879 L3.574 -0.000 Z M3.466 -4.372 L4.270 -6.707 L12.016 -6.707 L12.820 -4.372 Z M12.711 -0.000 L8.189 -13.879 L8.189 -16.910 L9.846 -16.910 L15.880 -0.000 Z M21.175 0.212 Q19.942 0.212 19.001 -0.263 Q18.060 -0.737 17.532 -1.588 Q17.003 -2.440 17.003 -3.555 L17.003 -3.576 Q17.003 -4.692 17.560 -5.492 Q18.117 -6.292 19.178 -6.755 Q20.239 -7.218 21.747 -7.311 L26.501 -7.598 L26.501 -5.672 L22.160 -5.396 Q21.059 -5.331 20.483 -4.886 Q19.907 -4.440 19.907 -3.694 L19.907 -3.673 Q19.907 -2.903 20.494 -2.461 Q21.081 -2.018 22.046 -2.018 Q22.893 -2.018 23.560 -2.359 Q24.227 -2.699 24.615 -3.290 Q25.004 -3.881 25.004 -4.620 L25.004 -8.409 Q25.004 -9.353 24.409 -9.888 Q23.814 -10.424 22.692 -10.424 Q21.663 -10.424 21.039 -10.003 Q20.415 -9.582 20.255 -8.905 L20.233 -8.808 L17.521 -8.808 L17.533 -8.937 Q17.639 -10.041 18.293 -10.899 Q18.947 -11.758 20.092 -12.251 Q21.237 -12.744 22.801 -12.744 Q24.375 -12.744 25.520 -12.232 Q26.665 -11.719 27.289 -10.784 Q27.913 -9.849 27.913 -8.582 L27.913 -0.000 L25.004 -0.000 L25.004 -1.883 L24.917 -1.883 Q24.562 -1.239 23.999 -0.768 Q23.435 -0.296 22.719 -0.042 Q22.003 0.212 21.175 0.212 Z" />
        </g>
        <g id="Regular-S" transform="translate(200,0)">
            <path fill-rule="evenodd" d="M296.000 111.000 L296.000 129.000 C296.000 136.180 290.180 142.000 283.000 142.000 L247.000 142.000 C239.820 142.000 234.000 136.180 234.000 129.000 L234.000 93.000 C234.000 85.820 239.820 80.000 247.000 80.000 L283.000 80.000 C290.180 80.000 296.000 85.820 296.000 93.000 Z M289.000 111.000 L289.000 126.000 C289.000 130.971 284.971 135.000 280.000 135.000 L250.000 135.000 C245.029 135.000 241.000 130.971 241.000 126.000 L241.000 96.000 C241.000 91.029 245.029 87.000 250.000 87.000 L280.000 87.000 C284.971 87.000 289.000 91.029 289.000 96.000 Z" />
            <path transform="translate(250.841 119.349)" d="M0.405 -0.000 L6.446 -16.910 L8.986 -16.910 L8.986 -13.879 L8.102 -13.879 L3.574 -0.000 Z M3.466 -4.372 L4.270 -6.707 L12.016 -6.707 L12.820 -4.372 Z M12.711 -0.000 L8.189 -13.879 L8.189 -16.910 L9.846 -16.910 L15.880 -0.000 Z M21.175 0.212 Q19.942 0.212 19.001 -0.263 Q18.060 -0.737 17.532 -1.588 Q17.003 -2.440 17.003 -3.555 L17.003 -3.576 Q17.003 -4.692 17.560 -5.492 Q18.117 -6.292 19.178 -6.755 Q20.239 -7.218 21.747 -7.311 L26.501 -7.598 L26.501 -5.672 L22.160 -5.396 Q21.059 -5.331 20.483 -4.886 Q19.907 -4.440 19.907 -3.694 L19.907 -3.673 Q19.907 -2.903 20.494 -2.461 Q21.081 -2.018 22.046 -2.018 Q22.893 -2.018 23.560 -2.359 Q24.227 -2.699 24.615 -3.290 Q25.004 -3.881 25.004 -4.620 L25.004 -8.409 Q25.004 -9.353 24.409 -9.888 Q23.814 -10.424 22.692 -10.424 Q21.663 -10.424 21.039 -10.003 Q20.415 -9.582 20.255 -8.905 L20.233 -8.808 L17.521 -8.808 L17.533 -8.937 Q17.639 -10.041 18.293 -10.899 Q18.947 -11.758 20.092 -12.251 Q21.237 -12.744 22.801 -12.744 Q24.375 -12.744 25.520 -12.232 Q26.665 -11.719 27.289 -10.784 Q27.913 -9.849 27.913 -8.582 L27.913 -0.000 L25.004 -0.000 L25.004 -1.883 L24.917 -1.883 Q24.562 -1.239 23.999 -0.768 Q23.435 -0.296 22.719 -0.042 Q22.003 0.212 21.175 0.212 Z" />
        </g>
        <g id="Black-S" transform="translate(400,0)">
            <path fill-rule="evenodd" d="M296.000 111.000 L296.000 129.000 C296.000 136.180 290.180 142.000 283.000 142.000 L247.000 142.000 C239.820 142.000 234.000 136.180 234.000 129.000 L234.000 93.000 C234.000 85.820 239.820 80.000 247.000 80.000 L283.000 80.000 C290.180 80.000 296.000 85.820 296.000 93.000 Z M289.000 111.000 L289.000 126.000 C289.000 130.971 284.971 135.000 280.000 135.000 L250.000 135.000 C245.029 135.000 241.000 130.971 241.000 126.000 L241.000 96.000 C241.000 91.029 245.029 87.000 250.000 87.000 L280.000 87.000 C284.971 87.000 289.000 91.029 289.000 96.000 Z" />
            <path transform="translate(250.841 119.349)" d="M0.405 -0.000 L6.446 -16.910 L8.986 -16.910 L8.986 -13.879 L8.102 -13.879 L3.574 -0.000 Z M3.466 -4.372 L4.270 -6.707 L12.016 -6.707 L12.820 -4.372 Z M12.711 -0.000 L8.189 -13.879 L8.189 -16.910 L9.846 -16.910 L15.880 -0.000 Z M21.175 0.212 Q19.942 0.212 19.001 -0.263 Q18.060 -0.737 17.532 -1.588 Q17.003 -2.440 17.003 -3.555 L17.003 -3.576 Q17.003 -4.692 17.560 -5.492 Q18.117 -6.292 19.178 -6.755 Q20.239 -7.218 21.747 -7.311 L26.501 -7.598 L26.501 -5.672 L22.160 -5.396 Q21.059 -5.331 20.483 -4.886 Q19.907 -4.440 19.907 -3.694 L19.907 -3.673 Q19.907 -2.903 20.494 -2.461 Q21.081 -2.018 22.046 -2.018 Q22.893 -2.018 23.560 -2.359 Q24.227 -2.699 24.615 -3.290 Q25.004 -3.881 25.004 -4.620 L25.004 -8.409 Q25.004 -9.353 24.409 -9.888 Q23.814 -10.424 22.692 -10.424 Q21.663 -10.424 21.039 -10.003 Q20.415 -9.582 20.255 -8.905 L20.233 -8.808 L17.521 -8.808 L17.533 -8.937 Q17.639 -10.041 18.293 -10.899 Q18.947 -11.758 20.092 -12.251 Q21.237 -12.744 22.801 -12.744 Q24.375 -12.744 25.520 -12.232 Q26.665 -11.719 27.289 -10.784 Q27.913 -9.849 27.913 -8.582 L27.913 -0.000 L25.004 -0.000 L25.004 -1.883 L24.917 -1.883 Q24.562 -1.239 23.999 -0.768 Q23.435 -0.296 22.719 -0.042 Q22.003 0.212 21.175 0.212 Z" />
        </g>
    </g>
</svg>
