<?xml version="1.0" encoding="UTF-8"?>
<svg height="600" width="800" xmlns="http://www.w3.org/2000/svg" xmlns:xlink="http://www.w3.org/1999/xlink">
    <g id="Notes" font-family="'LucidaGrande', 'Lucida Grande', sans-serif" font-size="13">
        <rect fill="white" height="600.0" width="800.0" x="0.0" y="0.0" />
        <g font-size="13">
            <text x="18.0" y="176.0">Small</text>
            <text x="18.0" y="376.0">Medium</text>
            <text x="18.0" y="576.0">Large</text>
        </g>
        <g font-size="9">
            <text x="250.0" y="30.0">Ultralight</text>
            <text x="450.0" y="30.0">Regular</text>
            <text x="650.0" y="30.0">Black</text>
            <text id="template-version" fill="#505050" text-anchor="end" x="785.0" y="575.0">Template v.3.0</text>
            <a href="https://wangchujiang.com/#/app">
                <text fill="#505050" text-anchor="end" x="785.0" y="590.0">https://wangchujiang.com/#/app</text>
            </a>
        </g>
    </g>
    <g id="Guides" stroke="rgb(39, 170, 225)" stroke-width="0.5">
        <path id="Capline-S" d="M18,76 l800,0" />
        <path id="H-reference" d="M85,145.755 L87.685,145.755 L113.369,79.287 L114.052,79.287 L114.052,76 L112.148,76 L85,145.755 Z M95.693,121.536 L130.996,121.536 L130.263,119.313 L96.474,119.313 L95.693,121.536 Z M139.15,145.755 L141.787,145.755 L114.638,76 L113.466,76 L113.466,79.287 L139.15,145.755 Z" stroke="none" />
        <path id="Baseline-S" d="M18,146 l800,0" />
        <path id="left-margin-Ultralight-S" d="M221,56 l0,110" />
        <path id="right-margin-Ultralight-S" d="M309,56 l0,110" />
        <path id="left-margin-Regular-S" d="M421,56 l0,110" />
        <path id="right-margin-Regular-S" d="M509,56 l0,110" />
        <path id="left-margin-Black-S" d="M621,56 l0,110" />
        <path id="right-margin-Black-S" d="M709,56 l0,110" />
        <path id="Capline-M" d="M18,276 l800,0" />
        <path id="Baseline-M" d="M18,346 l800,0" />
        <path id="Capline-L" d="M18,476 l800,0" />
        <path id="Baseline-L" d="M18,546 l800,0" />
    </g>
    <g id="Symbols">
        <g id="Ultralight-S">
            <path d="M273.207,107.739 L271.467,107.739 C263.649,107.739 257.554,101.644 257.554,93.826 L257.554,86.87 C257.554,85.947 257.921,85.062 258.573,84.41 C259.225,83.758 260.11,83.391 261.033,83.391 L267.989,83.391 C271.836,83.391 275.185,85.386 276.704,88.425 C277.293,89.603 278.498,90.348 279.815,90.348 L288.859,90.348 C292.851,90.348 295.815,93.312 295.815,97.304 L295.815,132.087 C295.815,134.008 297.372,135.565 299.293,135.565 C301.214,135.565 302.772,134.008 302.772,132.087 L302.772,97.304 C302.772,89.47 296.693,83.391 288.859,83.391 L279.815,83.391 L282.926,85.314 C280.208,79.878 274.428,76.435 267.989,76.435 L261.033,76.435 C258.265,76.435 255.611,77.534 253.654,79.491 C251.697,81.448 250.598,84.102 250.598,86.87 L250.598,93.826 C250.598,105.486 259.807,114.696 271.467,114.696 L273.207,114.696 C275.128,114.696 276.685,113.138 276.685,111.217 C276.685,109.296 275.128,107.739 273.207,107.739 Z M285.38,107.739 L285.415,107.739 C287.336,107.739 288.893,106.182 288.893,104.261 C288.893,102.34 287.336,100.783 285.415,100.783 L285.38,100.783 C283.459,100.783 281.902,102.34 281.902,104.261 C281.902,106.182 283.459,107.739 285.38,107.739 Z" />
            <path d="M267.989,104.261 C267.989,108.873 269.821,113.297 273.083,116.558 C276.344,119.82 280.768,121.652 285.38,121.652 C288.148,121.652 290.802,122.752 292.759,124.708 C294.716,126.665 295.815,129.319 295.815,132.087 C295.815,134.008 294.258,135.565 292.337,135.565 C290.416,135.565 288.859,134.008 288.859,132.087 C288.859,130.166 287.301,128.609 285.38,128.609 C283.459,128.609 281.902,130.166 281.902,132.087 C281.902,137.85 286.574,142.522 292.337,142.522 C298.1,142.522 302.772,137.85 302.772,132.087 C302.772,127.475 300.939,123.051 297.678,119.789 C294.416,116.528 289.993,114.696 285.38,114.696 C282.613,114.696 279.959,113.596 278.002,111.639 C276.045,109.682 274.946,107.028 274.946,104.261 C274.946,102.34 273.388,100.783 271.467,100.783 C269.546,100.783 267.989,102.34 267.989,104.261 Z M254.076,125.13 L254.076,142.522 C254.076,144.443 255.633,146 257.554,146 C259.475,146 261.033,144.443 261.033,142.522 L261.033,125.13 C261.033,123.209 259.475,121.652 257.554,121.652 C255.633,121.652 254.076,123.209 254.076,125.13 Z" />
            <path d="M285.38,114.696 C280.768,114.696 276.344,116.528 273.083,119.789 C269.821,123.051 267.989,127.475 267.989,132.087 L267.989,142.522 L271.467,139.043 L243.641,139.043 L247.12,142.522 L247.12,133.478 C247.12,128.708 244.053,123.556 239.864,120.298 C235.545,116.904 233.207,112.593 233.207,107.739 C233.207,98.255 242.386,90.348 254.076,90.348 C255.997,90.348 257.554,88.791 257.554,86.87 C257.554,84.949 255.997,83.391 254.076,83.391 C238.756,83.391 226.25,94.163 226.25,107.739 C226.25,114.852 229.649,121.119 235.579,125.778 C238.22,127.832 240.163,131.097 240.163,133.478 L240.163,142.522 C240.163,144.443 241.72,146 243.641,146 L271.467,146 C273.388,146 274.946,144.443 274.946,142.522 L274.946,132.087 C274.946,129.319 276.045,126.665 278.002,124.708 C279.959,122.752 282.613,121.652 285.38,121.652 C287.301,121.652 288.859,120.095 288.859,118.174 C288.859,116.253 287.301,114.696 285.38,114.696 Z M226.25,107.739 L226.25,132.087 C226.25,134.008 227.807,135.565 229.728,135.565 C231.649,135.565 233.207,134.008 233.207,132.087 L233.207,107.739 C233.207,105.818 231.649,104.261 229.728,104.261 C227.807,104.261 226.25,105.818 226.25,107.739 Z" />
        </g>
        <g id="Regular-S">
            <path d="M473.207,107.739 L471.467,107.739 C463.649,107.739 457.554,101.644 457.554,93.826 L457.554,86.87 C457.554,85.947 457.921,85.062 458.573,84.41 C459.225,83.758 460.11,83.391 461.033,83.391 L467.989,83.391 C471.836,83.391 475.185,85.386 476.704,88.425 C477.293,89.603 478.498,90.348 479.815,90.348 L488.859,90.348 C492.851,90.348 495.815,93.312 495.815,97.304 L495.815,132.087 C495.815,134.008 497.372,135.565 499.293,135.565 C501.214,135.565 502.772,134.008 502.772,132.087 L502.772,97.304 C502.772,89.47 496.693,83.391 488.859,83.391 L479.815,83.391 L482.926,85.314 C480.208,79.878 474.428,76.435 467.989,76.435 L461.033,76.435 C458.265,76.435 455.611,77.534 453.654,79.491 C451.697,81.448 450.598,84.102 450.598,86.87 L450.598,93.826 C450.598,105.486 459.807,114.696 471.467,114.696 L473.207,114.696 C475.128,114.696 476.685,113.138 476.685,111.217 C476.685,109.296 475.128,107.739 473.207,107.739 Z M485.38,107.739 L485.415,107.739 C487.336,107.739 488.893,106.182 488.893,104.261 C488.893,102.34 487.336,100.783 485.415,100.783 L485.38,100.783 C483.459,100.783 481.902,102.34 481.902,104.261 C481.902,106.182 483.459,107.739 485.38,107.739 Z" />
            <path d="M467.989,104.261 C467.989,108.873 469.821,113.297 473.083,116.558 C476.344,119.82 480.768,121.652 485.38,121.652 C488.148,121.652 490.802,122.752 492.759,124.708 C494.716,126.665 495.815,129.319 495.815,132.087 C495.815,134.008 494.258,135.565 492.337,135.565 C490.416,135.565 488.859,134.008 488.859,132.087 C488.859,130.166 487.301,128.609 485.38,128.609 C483.459,128.609 481.902,130.166 481.902,132.087 C481.902,137.85 486.574,142.522 492.337,142.522 C498.1,142.522 502.772,137.85 502.772,132.087 C502.772,127.475 500.939,123.051 497.678,119.789 C494.416,116.528 489.993,114.696 485.38,114.696 C482.613,114.696 479.959,113.596 478.002,111.639 C476.045,109.682 474.946,107.028 474.946,104.261 C474.946,102.34 473.388,100.783 471.467,100.783 C469.546,100.783 467.989,102.34 467.989,104.261 Z M454.076,125.13 L454.076,142.522 C454.076,144.443 455.633,146 457.554,146 C459.475,146 461.033,144.443 461.033,142.522 L461.033,125.13 C461.033,123.209 459.475,121.652 457.554,121.652 C455.633,121.652 454.076,123.209 454.076,125.13 Z" />
            <path d="M485.38,114.696 C480.768,114.696 476.344,116.528 473.083,119.789 C469.821,123.051 467.989,127.475 467.989,132.087 L467.989,142.522 L471.467,139.043 L443.641,139.043 L447.12,142.522 L447.12,133.478 C447.12,128.708 444.053,123.556 439.864,120.298 C435.545,116.904 433.207,112.593 433.207,107.739 C433.207,98.255 442.386,90.348 454.076,90.348 C455.997,90.348 457.554,88.791 457.554,86.87 C457.554,84.949 455.997,83.391 454.076,83.391 C438.756,83.391 426.25,94.163 426.25,107.739 C426.25,114.852 429.649,121.119 435.579,125.778 C438.22,127.832 440.163,131.097 440.163,133.478 L440.163,142.522 C440.163,144.443 441.72,146 443.641,146 L471.467,146 C473.388,146 474.946,144.443 474.946,142.522 L474.946,132.087 C474.946,129.319 476.045,126.665 478.002,124.708 C479.959,122.752 482.613,121.652 485.38,121.652 C487.301,121.652 488.859,120.095 488.859,118.174 C488.859,116.253 487.301,114.696 485.38,114.696 Z M426.25,107.739 L426.25,132.087 C426.25,134.008 427.807,135.565 429.728,135.565 C431.649,135.565 433.207,134.008 433.207,132.087 L433.207,107.739 C433.207,105.818 431.649,104.261 429.728,104.261 C427.807,104.261 426.25,105.818 426.25,107.739 Z" />
        </g>
        <g id="Black-S">
            <path d="M673.206,107.739 L671.467,107.739 C663.649,107.739 657.554,101.644 657.554,93.826 L657.554,86.87 C657.554,85.947 657.921,85.062 658.573,84.41 C659.225,83.758 660.11,83.391 661.033,83.391 L667.989,83.391 C671.836,83.391 675.185,85.386 676.704,88.425 C677.293,89.603 678.498,90.348 679.815,90.348 L688.859,90.348 C692.851,90.348 695.815,93.312 695.815,97.304 L695.815,132.087 C695.815,134.008 697.372,135.565 699.293,135.565 C701.214,135.565 702.772,134.008 702.772,132.087 L702.772,97.304 C702.772,89.47 696.693,83.391 688.859,83.391 L679.815,83.391 L682.926,85.314 C680.208,79.878 674.428,76.435 667.989,76.435 L661.033,76.435 C658.265,76.435 655.611,77.534 653.654,79.491 C651.697,81.448 650.598,84.102 650.598,86.87 L650.598,93.826 C650.598,105.486 659.807,114.696 671.467,114.696 L673.206,114.696 C675.128,114.696 676.685,113.138 676.685,111.217 C676.685,109.296 675.128,107.739 673.206,107.739 Z M685.38,107.739 L685.415,107.739 C687.336,107.739 688.893,106.182 688.893,104.261 C688.893,102.34 687.336,100.783 685.415,100.783 L685.38,100.783 C683.459,100.783 681.902,102.34 681.902,104.261 C681.902,106.182 683.459,107.739 685.38,107.739 Z" />
            <path d="M667.989,104.261 C667.989,108.873 669.821,113.297 673.083,116.558 C676.344,119.82 680.768,121.652 685.38,121.652 C688.148,121.652 690.802,122.752 692.759,124.708 C694.716,126.665 695.815,129.319 695.815,132.087 C695.815,134.008 694.258,135.565 692.337,135.565 C690.416,135.565 688.859,134.008 688.859,132.087 C688.859,130.166 687.301,128.609 685.38,128.609 C683.459,128.609 681.902,130.166 681.902,132.087 C681.902,137.85 686.574,142.522 692.337,142.522 C698.1,142.522 702.772,137.85 702.772,132.087 C702.772,127.475 700.939,123.051 697.678,119.789 C694.416,116.528 689.993,114.696 685.38,114.696 C682.613,114.696 679.959,113.596 678.002,111.639 C676.045,109.682 674.946,107.028 674.946,104.261 C674.946,102.34 673.388,100.783 671.467,100.783 C669.546,100.783 667.989,102.34 667.989,104.261 Z M654.076,125.13 L654.076,142.522 C654.076,144.443 655.633,146 657.554,146 C659.475,146 661.033,144.443 661.033,142.522 L661.033,125.13 C661.033,123.209 659.475,121.652 657.554,121.652 C655.633,121.652 654.076,123.209 654.076,125.13 Z" />
            <path d="M685.38,114.696 C680.768,114.696 676.344,116.528 673.083,119.789 C669.821,123.051 667.989,127.475 667.989,132.087 L667.989,142.522 L671.467,139.043 L643.641,139.043 L647.12,142.522 L647.12,133.478 C647.12,128.708 644.053,123.556 639.864,120.298 C635.545,116.904 633.206,112.593 633.206,107.739 C633.206,98.255 642.386,90.348 654.076,90.348 C655.997,90.348 657.554,88.791 657.554,86.87 C657.554,84.949 655.997,83.391 654.076,83.391 C638.755,83.391 626.25,94.163 626.25,107.739 C626.25,114.852 629.649,121.119 635.579,125.778 C638.22,127.832 640.163,131.097 640.163,133.478 L640.163,142.522 C640.163,144.443 641.72,146 643.641,146 L671.467,146 C673.388,146 674.946,144.443 674.946,142.522 L674.946,132.087 C674.946,129.319 676.045,126.665 678.002,124.708 C679.959,122.752 682.613,121.652 685.38,121.652 C687.301,121.652 688.859,120.095 688.859,118.174 C688.859,116.253 687.301,114.696 685.38,114.696 Z M626.25,107.739 L626.25,132.087 C626.25,134.008 627.807,135.565 629.728,135.565 C631.649,135.565 633.206,134.008 633.206,132.087 L633.206,107.739 C633.206,105.818 631.649,104.261 629.728,104.261 C627.807,104.261 626.25,105.818 626.25,107.739 Z" />
        </g>
    </g>
</svg>