<?xml version="1.0" encoding="UTF-8"?>
<svg height="600" width="800" xmlns="http://www.w3.org/2000/svg" xmlns:xlink="http://www.w3.org/1999/xlink">
    <g id="Notes" font-family="'LucidaGrande', 'Lucida Grande', sans-serif" font-size="13">
        <rect fill="white" height="600.0" width="800.0" x="0.0" y="0.0" />
        <g font-size="13">
            <text x="18.0" y="176.0">Small</text>
            <text x="18.0" y="376.0">Medium</text>
            <text x="18.0" y="576.0">Large</text>
        </g>
        <g font-size="9">
            <text x="250.0" y="30.0">Ultralight</text>
            <text x="450.0" y="30.0">Regular</text>
            <text x="650.0" y="30.0">Black</text>
            <text id="template-version" fill="#505050" text-anchor="end" x="785.0" y="575.0">Template v.3.0</text>
            <a href="https://wangchujiang.com/#/app">
                <text fill="#505050" text-anchor="end" x="785.0" y="590.0">https://wangchujiang.com/#/app</text>
            </a>
        </g>
    </g>
    <g id="Guides" stroke="rgb(39, 170, 225)" stroke-width="0.5">
        <path id="Capline-S" d="M18,76 l800,0" />
        <path id="H-reference" d="M85,145.755 L87.685,145.755 L113.369,79.287 L114.052,79.287 L114.052,76 L112.148,76 L85,145.755 Z M95.693,121.536 L130.996,121.536 L130.263,119.313 L96.474,119.313 L95.693,121.536 Z M139.15,145.755 L141.787,145.755 L114.638,76 L113.466,76 L113.466,79.287 L139.15,145.755 Z" stroke="none" />
        <path id="Baseline-S" d="M18,146 l800,0" />
        <path id="left-margin-Ultralight-S" d="M221,56 l0,110" />
        <path id="right-margin-Ultralight-S" d="M309,56 l0,110" />
        <path id="left-margin-Regular-S" d="M421,56 l0,110" />
        <path id="right-margin-Regular-S" d="M509,56 l0,110" />
        <path id="left-margin-Black-S" d="M621,56 l0,110" />
        <path id="right-margin-Black-S" d="M709,56 l0,110" />
        <path id="Capline-M" d="M18,276 l800,0" />
        <path id="Baseline-M" d="M18,346 l800,0" />
        <path id="Capline-L" d="M18,476 l800,0" />
        <path id="Baseline-L" d="M18,546 l800,0" />
    </g>
    <g id="Symbols">
        <g id="Ultralight-S">
            <path d="M247.817,83.873 C252.092,81.931 258.168,80.667 265,80.667 C271.832,80.667 277.908,81.927 282.183,83.873 C286.672,85.917 288.333,88.259 288.333,90 C288.333,91.745 286.672,94.083 282.183,96.127 C277.908,98.069 271.832,99.333 265,99.333 C258.168,99.333 252.092,98.073 247.817,96.127 C243.328,94.083 241.667,91.741 241.667,90 C241.667,88.255 243.328,85.917 247.817,83.873 M288.333,97.924 L288.333,104 C288.333,105.745 286.672,108.083 282.183,110.127 C277.908,112.069 271.832,113.333 265,113.333 C258.168,113.333 252.092,112.073 247.817,110.127 C243.328,108.083 241.667,105.741 241.667,104 L241.667,97.924 C242.931,98.867 244.373,99.688 245.885,100.374 C250.897,102.651 257.659,104 265,104 C272.341,104 279.103,102.651 284.115,100.374 C285.603,99.707 287.017,98.886 288.333,97.924 M293,90 C293,85.301 288.917,81.81 284.115,79.626 C279.103,77.349 272.341,76 265,76 C257.659,76 250.897,77.349 245.885,79.626 C241.083,81.81 237,85.301 237,90 L237,132 C237,136.699 241.083,140.19 245.885,142.374 C250.897,144.647 257.659,146 265,146 C272.341,146 279.103,144.651 284.115,142.374 C288.917,140.19 293,136.699 293,132 Z M288.333,111.924 L288.333,118 C288.333,119.745 286.672,122.083 282.183,124.127 C277.908,126.069 271.832,127.333 265,127.333 C258.168,127.333 252.092,126.073 247.817,124.127 C243.328,122.083 241.667,119.741 241.667,118 L241.667,111.924 C242.931,112.867 244.373,113.688 245.885,114.374 C250.897,116.647 257.659,118 265,118 C272.341,118 279.103,116.651 284.115,114.374 C285.603,113.707 287.017,112.886 288.333,111.924 M288.333,125.924 L288.333,132 C288.333,133.745 286.672,136.083 282.183,138.127 C277.908,140.069 271.832,141.333 265,141.333 C258.168,141.333 252.092,140.073 247.817,138.127 C243.328,136.083 241.667,133.741 241.667,132 L241.667,125.924 C242.931,126.867 244.373,127.688 245.885,128.374 C250.897,130.647 257.659,132 265,132 C272.341,132 279.103,130.651 284.115,128.374 C285.627,127.688 287.069,126.867 288.333,125.924" />
        </g>
        <g id="Regular-S">
            <path d="M447.817,83.873 C452.092,81.931 458.168,80.667 465,80.667 C471.832,80.667 477.908,81.927 482.183,83.873 C486.672,85.917 488.333,88.259 488.333,90 C488.333,91.745 486.672,94.083 482.183,96.127 C477.908,98.069 471.832,99.333 465,99.333 C458.168,99.333 452.092,98.073 447.817,96.127 C443.328,94.083 441.667,91.741 441.667,90 C441.667,88.255 443.328,85.917 447.817,83.873 M488.333,97.924 L488.333,104 C488.333,105.745 486.672,108.083 482.183,110.127 C477.908,112.069 471.832,113.333 465,113.333 C458.168,113.333 452.092,112.073 447.817,110.127 C443.328,108.083 441.667,105.741 441.667,104 L441.667,97.924 C442.931,98.867 444.373,99.688 445.885,100.374 C450.897,102.651 457.659,104 465,104 C472.341,104 479.103,102.651 484.115,100.374 C485.603,99.707 487.017,98.886 488.333,97.924 M493,90 C493,85.301 488.917,81.81 484.115,79.626 C479.103,77.349 472.341,76 465,76 C457.659,76 450.897,77.349 445.885,79.626 C441.083,81.81 437,85.301 437,90 L437,132 C437,136.699 441.083,140.19 445.885,142.374 C450.897,144.647 457.659,146 465,146 C472.341,146 479.103,144.651 484.115,142.374 C488.917,140.19 493,136.699 493,132 Z M488.333,111.924 L488.333,118 C488.333,119.745 486.672,122.083 482.183,124.127 C477.908,126.069 471.832,127.333 465,127.333 C458.168,127.333 452.092,126.073 447.817,124.127 C443.328,122.083 441.667,119.741 441.667,118 L441.667,111.924 C442.931,112.867 444.373,113.688 445.885,114.374 C450.897,116.647 457.659,118 465,118 C472.341,118 479.103,116.651 484.115,114.374 C485.603,113.707 487.017,112.886 488.333,111.924 M488.333,125.924 L488.333,132 C488.333,133.745 486.672,136.083 482.183,138.127 C477.908,140.069 471.832,141.333 465,141.333 C458.168,141.333 452.092,140.073 447.817,138.127 C443.328,136.083 441.667,133.741 441.667,132 L441.667,125.924 C442.931,126.867 444.373,127.688 445.885,128.374 C450.897,130.647 457.659,132 465,132 C472.341,132 479.103,130.651 484.115,128.374 C485.627,127.688 487.069,126.867 488.333,125.924" />
        </g>
        <g id="Black-S">
            <path d="M647.817,83.873 C652.092,81.931 658.168,80.667 665,80.667 C671.832,80.667 677.908,81.927 682.183,83.873 C686.672,85.917 688.333,88.259 688.333,90 C688.333,91.745 686.672,94.083 682.183,96.127 C677.908,98.069 671.832,99.333 665,99.333 C658.168,99.333 652.092,98.073 647.817,96.127 C643.328,94.083 641.667,91.741 641.667,90 C641.667,88.255 643.328,85.917 647.817,83.873 M688.333,97.924 L688.333,104 C688.333,105.745 686.672,108.083 682.183,110.127 C677.908,112.069 671.832,113.333 665,113.333 C658.168,113.333 652.092,112.073 647.817,110.127 C643.328,108.083 641.667,105.741 641.667,104 L641.667,97.924 C642.931,98.867 644.373,99.688 645.885,100.374 C650.897,102.651 657.659,104 665,104 C672.341,104 679.103,102.651 684.115,100.374 C685.603,99.707 687.017,98.886 688.333,97.924 M693,90 C693,85.301 688.917,81.81 684.115,79.626 C679.103,77.349 672.341,76 665,76 C657.659,76 650.897,77.349 645.885,79.626 C641.083,81.81 637,85.301 637,90 L637,132 C637,136.699 641.083,140.19 645.885,142.374 C650.897,144.647 657.659,146 665,146 C672.341,146 679.103,144.651 684.115,142.374 C688.917,140.19 693,136.699 693,132 Z M688.333,111.924 L688.333,118 C688.333,119.745 686.672,122.083 682.183,124.127 C677.908,126.069 671.832,127.333 665,127.333 C658.168,127.333 652.092,126.073 647.817,124.127 C643.328,122.083 641.667,119.741 641.667,118 L641.667,111.924 C642.931,112.867 644.373,113.688 645.885,114.374 C650.897,116.647 657.659,118 665,118 C672.341,118 679.103,116.651 684.115,114.374 C685.603,113.707 687.017,112.886 688.333,111.924 M688.333,125.924 L688.333,132 C688.333,133.745 686.672,136.083 682.183,138.127 C677.908,140.069 671.832,141.333 665,141.333 C658.168,141.333 652.092,140.073 647.817,138.127 C643.328,136.083 641.667,133.741 641.667,132 L641.667,125.924 C642.931,126.867 644.373,127.688 645.885,128.374 C650.897,130.647 657.659,132 665,132 C672.341,132 679.103,130.651 684.115,128.374 C685.627,127.688 687.069,126.867 688.333,125.924" />
        </g>
    </g>
</svg>