<?xml version="1.0" encoding="UTF-8"?>
<svg height="600" width="800" xmlns="http://www.w3.org/2000/svg" xmlns:xlink="http://www.w3.org/1999/xlink">
    <g id="Notes" font-family="'LucidaGrande', 'Lucida Grande', sans-serif" font-size="13">
        <rect fill="white" height="600.0" width="800.0" x="0.0" y="0.0" />
        <g font-size="13">
            <text x="18.0" y="176.0">Small</text>
            <text x="18.0" y="376.0">Medium</text>
            <text x="18.0" y="576.0">Large</text>
        </g>
        <g font-size="9">
            <text x="250.0" y="30.0">Ultralight</text>
            <text x="450.0" y="30.0">Regular</text>
            <text x="650.0" y="30.0">Black</text>
            <text id="template-version" fill="#505050" text-anchor="end" x="785.0" y="575.0">Template v.3.0</text>
            <a href="https://wangchujiang.com/#/app">
                <text fill="#505050" text-anchor="end" x="785.0" y="590.0">https://wangchujiang.com/#/app</text>
            </a>
        </g>
    </g>
    <g id="Guides" stroke="rgb(39, 170, 225)" stroke-width="0.5">
        <path id="Capline-S" d="M18,76 l800,0" />
        <path id="H-reference" d="M85,145.755 L87.685,145.755 L113.369,79.287 L114.052,79.287 L114.052,76 L112.148,76 L85,145.755 Z M95.693,121.536 L130.996,121.536 L130.263,119.313 L96.474,119.313 L95.693,121.536 Z M139.15,145.755 L141.787,145.755 L114.638,76 L113.466,76 L113.466,79.287 L139.15,145.755 Z" stroke="none" />
        <path id="Baseline-S" d="M18,146 l800,0" />
        <path id="left-margin-Ultralight-S" d="M211,56 l0,110" />
        <path id="right-margin-Ultralight-S" d="M319,56 l0,110" />
        <path id="left-margin-Regular-S" d="M411,56 l0,110" />
        <path id="right-margin-Regular-S" d="M519,56 l0,110" />
        <path id="left-margin-Black-S" d="M611,56 l0,110" />
        <path id="right-margin-Black-S" d="M719,56 l0,110" />
        <path id="Capline-M" d="M18,276 l800,0" />
        <path id="Baseline-M" d="M18,346 l800,0" />
        <path id="Capline-L" d="M18,476 l800,0" />
        <path id="Baseline-L" d="M18,546 l800,0" />
    </g>
    <g id="Symbols">
        <g id="Ultralight-S">
            <path d="M233.633,91.971 C240.661,85.204 251.011,78.87 264.999,78.87 C278.988,78.87 289.338,85.204 296.366,91.971 C301.289,96.751 305.365,102.333 308.419,108.478 C309.194,110.08 309.194,111.92 308.419,113.518 C305.366,119.664 301.292,125.247 296.37,130.029 C289.338,136.796 278.988,143.13 264.999,143.13 C251.011,143.13 240.661,136.796 233.633,130.029 C228.71,125.249 224.634,119.667 221.58,113.522 C220.807,111.931 220.807,110.073 221.58,108.482 C224.633,102.336 228.707,96.753 233.629,91.971 Z M264.999,123.049 C271.654,123.049 277.048,117.654 277.048,111 C277.048,104.346 271.654,98.951 264.999,98.951 C258.345,98.951 252.951,104.346 252.951,111 C252.951,117.654 258.345,123.049 264.999,123.049 Z" />
        </g>
        <g id="Regular-S">
            <path d="M433.633,91.971 C440.661,85.204 451.011,78.87 464.999,78.87 C478.988,78.87 489.338,85.204 496.366,91.971 C501.289,96.751 505.365,102.333 508.419,108.478 C509.194,110.08 509.194,111.92 508.419,113.518 C505.366,119.664 501.292,125.247 496.37,130.029 C489.338,136.796 478.988,143.13 464.999,143.13 C451.011,143.13 440.661,136.796 433.633,130.029 C428.71,125.249 424.634,119.667 421.58,113.522 C420.807,111.931 420.807,110.073 421.58,108.482 C424.633,102.336 428.707,96.753 433.629,91.971 Z M464.999,123.049 C471.654,123.049 477.048,117.654 477.048,111 C477.048,104.346 471.654,98.951 464.999,98.951 C458.345,98.951 452.951,104.346 452.951,111 C452.951,117.654 458.345,123.049 464.999,123.049 Z" />
        </g>
        <g id="Black-S">
            <path d="M633.633,91.971 C640.661,85.204 651.011,78.87 664.999,78.87 C678.988,78.87 689.338,85.204 696.366,91.971 C701.289,96.751 705.365,102.333 708.419,108.478 C709.194,110.08 709.194,111.92 708.419,113.518 C705.366,119.664 701.292,125.247 696.37,130.029 C689.338,136.796 678.988,143.13 664.999,143.13 C651.011,143.13 640.661,136.796 633.633,130.029 C628.71,125.249 624.634,119.667 621.58,113.522 C620.807,111.931 620.807,110.073 621.58,108.482 C624.633,102.336 628.707,96.753 633.629,91.971 Z M664.999,123.049 C671.654,123.049 677.048,117.654 677.048,111 C677.048,104.346 671.654,98.951 664.999,98.951 C658.345,98.951 652.951,104.346 652.951,111 C652.951,117.654 658.345,123.049 664.999,123.049 Z" />
        </g>
    </g>
</svg>