<?xml version="1.0" encoding="UTF-8"?>
<svg height="600" width="800" xmlns="http://www.w3.org/2000/svg" xmlns:xlink="http://www.w3.org/1999/xlink">
    <g id="Notes" font-family="'LucidaGrande', 'Lucida Grande', sans-serif" font-size="13">
        <rect fill="white" height="600.0" width="800.0" x="0.0" y="0.0" />
        <g font-size="13">
            <text x="18.0" y="176.0">Small</text>
            <text x="18.0" y="376.0">Medium</text>
            <text x="18.0" y="576.0">Large</text>
        </g>
        <g font-size="9">
            <text x="250.0" y="30.0">Ultralight</text>
            <text x="450.0" y="30.0">Regular</text>
            <text x="650.0" y="30.0">Black</text>
            <text id="template-version" fill="#505050" text-anchor="end" x="785.0" y="575.0">Template v.3.0</text>
            <a href="https://wangchujiang.com/#/app">
                <text fill="#505050" text-anchor="end" x="785.0" y="590.0">https://wangchujiang.com/#/app</text>
            </a>
        </g>
    </g>
    <g id="Guides" stroke="rgb(39, 170, 225)" stroke-width="0.5">
        <path id="Capline-S" d="M18,76 l800,0" />
        <path id="H-reference" d="M85,145.755 L87.685,145.755 L113.369,79.287 L114.052,79.287 L114.052,76 L112.148,76 L85,145.755 Z M95.693,121.536 L130.996,121.536 L130.263,119.313 L96.474,119.313 L95.693,121.536 Z M139.15,145.755 L141.787,145.755 L114.638,76 L113.466,76 L113.466,79.287 L139.15,145.755 Z" stroke="none" />
        <path id="Baseline-S" d="M18,146 l800,0" />
        <path id="left-margin-Ultralight-S" d="M221,56 l0,110" />
        <path id="right-margin-Ultralight-S" d="M309,56 l0,110" />
        <path id="left-margin-Regular-S" d="M421,56 l0,110" />
        <path id="right-margin-Regular-S" d="M509,56 l0,110" />
        <path id="left-margin-Black-S" d="M621,56 l0,110" />
        <path id="right-margin-Black-S" d="M709,56 l0,110" />
        <path id="Capline-M" d="M18,276 l800,0" />
        <path id="Baseline-M" d="M18,346 l800,0" />
        <path id="Capline-L" d="M18,476 l800,0" />
        <path id="Baseline-L" d="M18,546 l800,0" />
    </g>
    <g id="Symbols">
        <g id="Ultralight-S">
            <path d="M294.115,99.23 C296.593,101.708 296.593,105.735 294.115,107.903 L285.442,116.575 L261.283,92.416 L269.956,83.743 C272.434,81.265 276.46,81.265 278.628,83.743 L284.204,89.319 L293.496,80.027 L297.832,84.363 L288.54,93.655 L294.115,99.23 M276.15,117.195 L271.814,112.858 L263.142,121.531 L256.637,115.027 L265.31,106.354 L260.973,102.018 L252.301,110.69 L247.655,106.354 L238.982,115.027 C236.504,117.504 236.504,121.531 238.982,123.699 L244.558,129.274 L232.168,141.664 L236.504,146 L248.894,133.611 L254.469,139.186 C256.947,141.664 260.973,141.664 263.142,139.186 L271.814,130.513 L267.478,126.177 L276.15,117.195 Z" />
        </g>
        <g id="Regular-S">
            <path d="M494.115,99.23 C496.593,101.708 496.593,105.735 494.115,107.903 L485.442,116.575 L461.283,92.416 L469.956,83.743 C472.434,81.265 476.46,81.265 478.628,83.743 L484.204,89.319 L493.496,80.027 L497.832,84.363 L488.54,93.655 L494.115,99.23 M476.15,117.195 L471.814,112.858 L463.142,121.531 L456.637,115.027 L465.31,106.354 L460.973,102.018 L452.301,110.69 L447.655,106.354 L438.982,115.027 C436.504,117.504 436.504,121.531 438.982,123.699 L444.557,129.274 L432.168,141.664 L436.504,146 L448.894,133.611 L454.469,139.186 C456.947,141.664 460.973,141.664 463.142,139.186 L471.814,130.513 L467.478,126.177 L476.15,117.195 Z" />
        </g>
        <g id="Black-S">
            <path d="M694.115,99.23 C696.593,101.708 696.593,105.735 694.115,107.903 L685.442,116.575 L661.283,92.416 L669.956,83.743 C672.434,81.265 676.46,81.265 678.628,83.743 L684.204,89.319 L693.496,80.027 L697.832,84.363 L688.54,93.655 L694.115,99.23 M676.15,117.195 L671.814,112.858 L663.142,121.531 L656.637,115.027 L665.31,106.354 L660.973,102.018 L652.301,110.69 L647.655,106.354 L638.982,115.027 C636.504,117.504 636.504,121.531 638.982,123.699 L644.557,129.274 L632.168,141.664 L636.504,146 L648.894,133.611 L654.469,139.186 C656.947,141.664 660.973,141.664 663.142,139.186 L671.814,130.513 L667.478,126.177 L676.15,117.195 Z" />
        </g>
    </g>
</svg>