<?xml version="1.0" encoding="UTF-8"?>
<svg height="600" width="800" xmlns="http://www.w3.org/2000/svg" xmlns:xlink="http://www.w3.org/1999/xlink">
    <g id="Notes" font-family="'LucidaGrande', 'Lucida Grande', sans-serif" font-size="13">
        <rect fill="white" height="600.0" width="800.0" x="0.0" y="0.0" />
        <g font-size="13">
            <text x="18.0" y="176.0">Small</text>
            <text x="18.0" y="376.0">Medium</text>
            <text x="18.0" y="576.0">Large</text>
        </g>
        <g font-size="9">
            <text x="250.0" y="30.0">Ultralight</text>
            <text x="450.0" y="30.0">Regular</text>
            <text x="650.0" y="30.0">Black</text>
            <text id="template-version" fill="#505050" text-anchor="end" x="785.0" y="575.0">Template v.3.0</text>
            <a href="https://wangchujiang.com/#/app">
                <text fill="#505050" text-anchor="end" x="785.0" y="590.0">https://wangchujiang.com/#/app</text>
            </a>
        </g>
    </g>
    <g id="Guides" stroke="rgb(39, 170, 225)" stroke-width="0.5">
        <path id="Capline-S" d="M18,76 l800,0" />
        <path id="H-reference" d="M85,145.755 L87.685,145.755 L113.369,79.287 L114.052,79.287 L114.052,76 L112.148,76 L85,145.755 Z M95.693,121.536 L130.996,121.536 L130.263,119.313 L96.474,119.313 L95.693,121.536 Z M139.15,145.755 L141.787,145.755 L114.638,76 L113.466,76 L113.466,79.287 L139.15,145.755 Z" stroke="none" />
        <path id="Baseline-S" d="M18,146 l800,0" />
        <path id="left-margin-Ultralight-S" d="M215.176,56 l0,110" />
        <path id="right-margin-Ultralight-S" d="M314.824,56 l0,110" />
        <path id="left-margin-Regular-S" d="M415.176,56 l0,110" />
        <path id="right-margin-Regular-S" d="M514.824,56 l0,110" />
        <path id="left-margin-Black-S" d="M615.176,56 l0,110" />
        <path id="right-margin-Black-S" d="M714.824,56 l0,110" />
        <path id="Capline-M" d="M18,276 l800,0" />
        <path id="Baseline-M" d="M18,346 l800,0" />
        <path id="Capline-L" d="M18,476 l800,0" />
        <path id="Baseline-L" d="M18,546 l800,0" />
    </g>
    <g id="Symbols">
        <g id="Ultralight-S">
            <path d="M258.157,116 C258.157,112.318 261.142,109.333 264.824,109.333 C268.506,109.333 271.491,112.318 271.491,116 C271.491,119.682 268.506,122.667 264.824,122.667 C261.142,122.667 258.157,119.682 258.157,116 Z M251.491,116 C251.491,123.364 257.46,129.333 264.824,129.333 C272.188,129.333 278.157,123.364 278.157,116 C278.157,108.636 272.188,102.667 264.824,102.667 C257.46,102.667 251.491,108.636 251.491,116 Z" />
            <path d="M231.139,117.491 C231.219,117.33 231.401,116.987 231.681,116.488 C232.161,115.634 232.737,114.677 233.405,113.642 C235.321,110.675 237.585,107.707 240.173,104.946 C247.411,97.225 255.673,92.667 264.824,92.667 C273.975,92.667 282.237,97.225 289.476,104.946 C292.063,107.707 294.327,110.675 296.243,113.642 C296.911,114.677 297.487,115.634 297.967,116.488 C298.247,116.987 298.429,117.33 298.509,117.491 L298.509,114.509 C298.429,114.67 298.247,115.013 297.967,115.512 C297.487,116.366 296.911,117.323 296.243,118.358 C294.327,121.325 292.063,124.293 289.476,127.054 C282.237,134.775 273.975,139.333 264.824,139.333 C255.673,139.333 247.411,134.775 240.173,127.054 C237.585,124.293 235.321,121.325 233.405,118.358 C232.737,117.323 232.161,116.366 231.681,115.512 C231.401,115.013 231.219,114.67 231.139,114.509 L231.139,117.491 Z M225.176,114.509 C224.707,115.448 224.707,116.552 225.176,117.491 C225.645,118.428 226.524,119.991 227.805,121.975 C229.926,125.259 232.428,128.54 235.309,131.613 C243.695,140.558 253.558,146 264.824,146 C276.09,146 285.953,140.558 294.339,131.613 C297.22,128.54 299.722,125.259 301.843,121.975 C303.124,119.991 304.004,118.428 304.472,117.491 C304.941,116.552 304.941,115.448 304.472,114.509 C304.004,113.572 303.124,112.009 301.843,110.025 C299.722,106.741 297.22,103.46 294.339,100.387 C285.953,91.442 276.09,86 264.824,86 C253.558,86 243.695,91.442 235.309,100.387 C232.428,103.46 229.926,106.741 227.805,110.025 C226.524,112.009 225.645,113.572 225.176,114.509 Z" />
        </g>
        <g id="Regular-S">
            <path d="M458.157,116 C458.157,112.318 461.142,109.333 464.824,109.333 C468.506,109.333 471.491,112.318 471.491,116 C471.491,119.682 468.506,122.667 464.824,122.667 C461.142,122.667 458.157,119.682 458.157,116 Z M451.491,116 C451.491,123.364 457.46,129.333 464.824,129.333 C472.188,129.333 478.157,123.364 478.157,116 C478.157,108.636 472.188,102.667 464.824,102.667 C457.46,102.667 451.491,108.636 451.491,116 Z" />
            <path d="M431.139,117.491 C431.219,117.33 431.401,116.987 431.681,116.488 C432.161,115.634 432.737,114.677 433.405,113.642 C435.321,110.675 437.585,107.707 440.172,104.946 C447.411,97.225 455.673,92.667 464.824,92.667 C473.975,92.667 482.237,97.225 489.476,104.946 C492.063,107.707 494.327,110.675 496.243,113.642 C496.911,114.677 497.487,115.634 497.967,116.488 C498.247,116.987 498.429,117.33 498.509,117.491 L498.509,114.509 C498.429,114.67 498.247,115.013 497.967,115.512 C497.487,116.366 496.911,117.323 496.243,118.358 C494.327,121.325 492.063,124.293 489.476,127.054 C482.237,134.775 473.975,139.333 464.824,139.333 C455.673,139.333 447.411,134.775 440.172,127.054 C437.585,124.293 435.321,121.325 433.405,118.358 C432.737,117.323 432.161,116.366 431.681,115.512 C431.401,115.013 431.219,114.67 431.139,114.509 L431.139,117.491 Z M425.176,114.509 C424.707,115.448 424.707,116.552 425.176,117.491 C425.645,118.428 426.524,119.991 427.805,121.975 C429.926,125.259 432.428,128.54 435.309,131.613 C443.695,140.558 453.558,146 464.824,146 C476.09,146 485.953,140.558 494.339,131.613 C497.22,128.54 499.722,125.259 501.843,121.975 C503.124,119.991 504.004,118.428 504.472,117.491 C504.941,116.552 504.941,115.448 504.472,114.509 C504.004,113.572 503.124,112.009 501.843,110.025 C499.722,106.741 497.22,103.46 494.339,100.387 C485.953,91.442 476.09,86 464.824,86 C453.558,86 443.695,91.442 435.309,100.387 C432.428,103.46 429.926,106.741 427.805,110.025 C426.524,112.009 425.645,113.572 425.176,114.509 Z" />
        </g>
        <g id="Black-S">
            <path d="M658.157,116 C658.157,112.318 661.142,109.333 664.824,109.333 C668.506,109.333 671.491,112.318 671.491,116 C671.491,119.682 668.506,122.667 664.824,122.667 C661.142,122.667 658.157,119.682 658.157,116 Z M651.491,116 C651.491,123.364 657.46,129.333 664.824,129.333 C672.188,129.333 678.157,123.364 678.157,116 C678.157,108.636 672.188,102.667 664.824,102.667 C657.46,102.667 651.491,108.636 651.491,116 Z" />
            <path d="M631.139,117.491 C631.219,117.33 631.401,116.987 631.681,116.488 C632.161,115.634 632.737,114.677 633.405,113.642 C635.321,110.675 637.585,107.707 640.172,104.946 C647.411,97.225 655.673,92.667 664.824,92.667 C673.975,92.667 682.237,97.225 689.476,104.946 C692.063,107.707 694.327,110.675 696.243,113.642 C696.911,114.677 697.487,115.634 697.967,116.488 C698.247,116.987 698.429,117.33 698.509,117.491 L698.509,114.509 C698.429,114.67 698.247,115.013 697.967,115.512 C697.487,116.366 696.911,117.323 696.243,118.358 C694.327,121.325 692.063,124.293 689.476,127.054 C682.237,134.775 673.975,139.333 664.824,139.333 C655.673,139.333 647.411,134.775 640.172,127.054 C637.585,124.293 635.321,121.325 633.405,118.358 C632.737,117.323 632.161,116.366 631.681,115.512 C631.401,115.013 631.219,114.67 631.139,114.509 L631.139,117.491 Z M625.176,114.509 C624.707,115.448 624.707,116.552 625.176,117.491 C625.645,118.428 626.524,119.991 627.805,121.975 C629.926,125.259 632.428,128.54 635.309,131.613 C643.695,140.558 653.558,146 664.824,146 C676.09,146 685.953,140.558 694.339,131.613 C697.22,128.54 699.722,125.259 701.843,121.975 C703.124,119.991 704.004,118.428 704.472,117.491 C704.941,116.552 704.941,115.448 704.472,114.509 C704.004,113.572 703.124,112.009 701.843,110.025 C699.722,106.741 697.22,103.46 694.339,100.387 C685.953,91.442 676.09,86 664.824,86 C653.558,86 643.695,91.442 635.309,100.387 C632.428,103.46 629.926,106.741 627.805,110.025 C626.524,112.009 625.645,113.572 625.176,114.509 Z" />
        </g>
    </g>
</svg>