<?xml version="1.0" encoding="UTF-8"?>
<svg height="600" width="800" xmlns="http://www.w3.org/2000/svg" xmlns:xlink="http://www.w3.org/1999/xlink">
    <g id="Notes" font-family="'LucidaGrande', 'Lucida Grande', sans-serif" font-size="13">
        <rect fill="white" height="600.0" width="800.0" x="0.0" y="0.0" />
        <g font-size="13">
            <text x="18.0" y="176.0">Small</text>
            <text x="18.0" y="376.0">Medium</text>
            <text x="18.0" y="576.0">Large</text>
        </g>
        <g font-size="9">
            <text x="250.0" y="30.0">Ultralight</text>
            <text x="450.0" y="30.0">Regular</text>
            <text x="650.0" y="30.0">Black</text>
            <text id="template-version" fill="#505050" text-anchor="end" x="785.0" y="575.0">Template v.3.0</text>
            <a href="https://wangchujiang.com/#/app">
                <text fill="#505050" text-anchor="end" x="785.0" y="590.0">https://wangchujiang.com/#/app</text>
            </a>
        </g>
    </g>
    <g id="Guides" stroke="rgb(39, 170, 225)" stroke-width="0.5">
        <path id="Capline-S" d="M18,76 l800,0" />
        <path id="H-reference" d="M85,145.755 L87.685,145.755 L113.369,79.287 L114.052,79.287 L114.052,76 L112.148,76 L85,145.755 Z M95.693,121.536 L130.996,121.536 L130.263,119.313 L96.474,119.313 L95.693,121.536 Z M139.15,145.755 L141.787,145.755 L114.638,76 L113.466,76 L113.466,79.287 L139.15,145.755 Z" stroke="none" />
        <path id="Baseline-S" d="M18,146 l800,0" />
        <path id="left-margin-Ultralight-S" d="M220,56 l0,110" />
        <path id="right-margin-Ultralight-S" d="M310,56 l0,110" />
        <path id="left-margin-Regular-S" d="M420,56 l0,110" />
        <path id="right-margin-Regular-S" d="M510,56 l0,110" />
        <path id="left-margin-Black-S" d="M620,56 l0,110" />
        <path id="right-margin-Black-S" d="M710,56 l0,110" />
        <path id="Capline-M" d="M18,276 l800,0" />
        <path id="Baseline-M" d="M18,346 l800,0" />
        <path id="Capline-L" d="M18,476 l800,0" />
        <path id="Baseline-L" d="M18,546 l800,0" />
    </g>
    <g id="Symbols">
        <g id="Ultralight-S">
            <path d="M254.208,102.25 L250.417,140.75 C250.125,143.646 247.792,146 244.875,146 L230,146 L230,140.167 L244.583,140.167 L248.375,102.25 L235.833,102.25 L235.833,96.417 L248.958,96.417 L250.417,81.25 C250.685,78.327 253.333,76 256.25,76 L270.833,76 L270.833,81.833 L256.25,81.833 L254.792,96.417 L267.917,96.417 L267.917,102.25 Z M265,119.75 L265,140.167 C265,143.375 267.625,146 270.833,146 L276.667,146 L276.667,140.167 L270.833,140.167 L270.833,119.75 L276.667,119.75 L276.667,113.917 L270.833,113.917 C267.625,113.917 265,116.542 265,119.75 M294.167,113.917 L288.333,113.917 L288.333,119.75 L294.167,119.75 L294.167,140.167 L288.333,140.167 L288.333,146 L294.167,146 C297.375,146 300,143.375 300,140.167 L300,119.75 C300,116.542 297.375,113.917 294.167,113.917" />
        </g>
        <g id="Regular-S">
            <path d="M454.208,102.25 L450.417,140.75 C450.125,143.646 447.792,146 444.875,146 L430,146 L430,140.167 L444.583,140.167 L448.375,102.25 L435.833,102.25 L435.833,96.417 L448.958,96.417 L450.417,81.25 C450.685,78.327 453.333,76 456.25,76 L470.833,76 L470.833,81.833 L456.25,81.833 L454.792,96.417 L467.917,96.417 L467.917,102.25 Z M465,119.75 L465,140.167 C465,143.375 467.625,146 470.833,146 L476.667,146 L476.667,140.167 L470.833,140.167 L470.833,119.75 L476.667,119.75 L476.667,113.917 L470.833,113.917 C467.625,113.917 465,116.542 465,119.75 M494.167,113.917 L488.333,113.917 L488.333,119.75 L494.167,119.75 L494.167,140.167 L488.333,140.167 L488.333,146 L494.167,146 C497.375,146 500,143.375 500,140.167 L500,119.75 C500,116.542 497.375,113.917 494.167,113.917" />
        </g>
        <g id="Black-S">
            <path d="M654.208,102.25 L650.417,140.75 C650.125,143.646 647.792,146 644.875,146 L630,146 L630,140.167 L644.583,140.167 L648.375,102.25 L635.833,102.25 L635.833,96.417 L648.958,96.417 L650.417,81.25 C650.685,78.327 653.333,76 656.25,76 L670.833,76 L670.833,81.833 L656.25,81.833 L654.792,96.417 L667.917,96.417 L667.917,102.25 Z M665,119.75 L665,140.167 C665,143.375 667.625,146 670.833,146 L676.667,146 L676.667,140.167 L670.833,140.167 L670.833,119.75 L676.667,119.75 L676.667,113.917 L670.833,113.917 C667.625,113.917 665,116.542 665,119.75 M694.167,113.917 L688.333,113.917 L688.333,119.75 L694.167,119.75 L694.167,140.167 L688.333,140.167 L688.333,146 L694.167,146 C697.375,146 700,143.375 700,140.167 L700,119.75 C700,116.542 697.375,113.917 694.167,113.917" />
        </g>
    </g>
</svg>