<?xml version="1.0" encoding="UTF-8"?>
<svg height="600" width="800" xmlns="http://www.w3.org/2000/svg" xmlns:xlink="http://www.w3.org/1999/xlink">
    <g id="Notes" font-family="'LucidaGrande', 'Lucida Grande', sans-serif" font-size="13">
        <rect fill="white" height="600.0" width="800.0" x="0.0" y="0.0" />
        <g font-size="13">
            <text x="18.0" y="176.0">Small</text>
            <text x="18.0" y="376.0">Medium</text>
            <text x="18.0" y="576.0">Large</text>
        </g>
        <g font-size="9">
            <text x="250.0" y="30.0">Ultralight</text>
            <text x="450.0" y="30.0">Regular</text>
            <text x="650.0" y="30.0">Black</text>
            <text id="template-version" fill="#505050" text-anchor="end" x="785.0" y="575.0">Template v.3.0</text>
            <a href="https://wangchujiang.com/#/app">
                <text fill="#505050" text-anchor="end" x="785.0" y="590.0">https://wangchujiang.com/#/app</text>
            </a>
        </g>
    </g>
    <g id="Guides" stroke="rgb(39, 170, 225)" stroke-width="0.5">
        <path id="Capline-S" d="M18,76 l800,0" />
        <path id="H-reference" d="M85,145.755 L87.685,145.755 L113.369,79.287 L114.052,79.287 L114.052,76 L112.148,76 L85,145.755 Z M95.693,121.536 L130.996,121.536 L130.263,119.313 L96.474,119.313 L95.693,121.536 Z M139.15,145.755 L141.787,145.755 L114.638,76 L113.466,76 L113.466,79.287 L139.15,145.755 Z" stroke="none" />
        <path id="Baseline-S" d="M18,146 l800,0" />
        <path id="left-margin-Ultralight-S" d="M211,56 l0,110" />
        <path id="right-margin-Ultralight-S" d="M319,56 l0,110" />
        <path id="left-margin-Regular-S" d="M411,56 l0,110" />
        <path id="right-margin-Regular-S" d="M519,56 l0,110" />
        <path id="left-margin-Black-S" d="M611,56 l0,110" />
        <path id="right-margin-Black-S" d="M719,56 l0,110" />
        <path id="Capline-M" d="M18,276 l800,0" />
        <path id="Baseline-M" d="M18,346 l800,0" />
        <path id="Capline-L" d="M18,476 l800,0" />
        <path id="Baseline-L" d="M18,546 l800,0" />
    </g>
    <g id="Symbols">
        <g id="Ultralight-S">
            <path d="M285.818,118.234 C287.549,118.234 288.953,116.831 288.953,115.099 C288.953,113.368 287.549,111.964 285.818,111.964 C284.086,111.964 282.683,113.368 282.683,115.099 C282.683,116.831 284.086,118.234 285.818,118.234 Z M248.781,97.252 C251.676,97.252 254.03,100.032 254,103.453 C254,106.874 251.646,108.802 248.748,108.802 C247.975,108.802 247.235,108.755 246.564,108.571 C245.627,108.34 244.832,107.724 244.375,106.874 C243.839,107.836 243.083,108.331 242.189,108.573 C241.472,108.745 240.736,108.822 240,108.802 C237.104,108.802 234.75,106.877 234.75,103.453 C234.75,100.032 237.104,97.252 240.003,97.252 L248.781,97.252 Z M251.25,103.428 C251.269,101.102 249.746,100.002 248.781,100.002 L247.752,100.002 L245.585,101.789 C244.98,102.284 244.128,102.284 243.523,101.789 L241.356,100.002 L240.003,100.002 C239.035,100.002 237.5,101.102 237.5,103.453 C237.5,104.503 237.844,105.092 238.188,105.422 C238.559,105.779 239.158,106.052 240.003,106.052 C240.85,106.052 241.309,105.983 241.587,105.881 C241.661,105.857 241.731,105.82 241.793,105.771 C241.867,105.704 241.929,105.624 241.974,105.535 C242.46,104.665 243.379,104.126 244.375,104.126 C245.371,104.126 246.29,104.665 246.776,105.535 C246.853,105.672 246.916,105.735 246.955,105.766 C247.02,105.817 247.093,105.856 247.172,105.881 C247.455,105.983 247.92,106.052 248.75,106.052 C249.592,106.052 250.191,105.777 250.56,105.422 C250.906,105.092 251.247,104.503 251.247,103.453 L251.247,103.428 Z M239.513,94.474 C239.513,95.613 238.59,96.537 237.451,96.537 C236.311,96.537 235.388,95.613 235.388,94.474 C235.388,93.335 236.311,92.412 237.451,92.412 C238.59,92.412 239.513,93.335 239.513,94.474 Z M251.195,96.537 C252.334,96.537 253.258,95.613 253.258,94.474 C253.258,93.335 252.334,92.412 251.195,92.412 C250.056,92.412 249.133,93.335 249.133,94.474 C249.133,95.613 250.056,96.537 251.195,96.537 Z" />
            <path d="M244.21,78.002 C250.431,78.002 255.331,80.312 258.821,83.92 C262.264,87.481 264.222,92.17 264.915,96.847 C265.677,101.982 269.705,105.502 274.625,105.502 L274.939,105.502 C277.397,105.422 278.866,104.424 279.834,102.93 C280.909,101.275 281.5,98.786 281.5,95.712 L281.5,90.377 C281.5,88.43 282.229,86.529 283.893,85.201 C285.482,83.928 287.583,83.455 289.841,83.532 C292.244,83.612 294.021,84.797 295.25,86.265 C296.474,84.797 298.242,83.601 300.64,83.504 C302.276,83.438 304.229,83.766 305.873,84.783 C307.639,85.872 309,87.759 309,90.377 L309,99.672 C309,119.689 296.647,137.143 277.606,140.622 C277.241,142.572 275.536,143.983 273.553,143.977 L263.955,143.977 C260.837,143.977 257.328,142.935 254.316,141.254 L253.395,141.254 C249.549,141.258 245.74,140.511 242.181,139.054 C241.279,140.66 239.761,141.741 238.534,142.39 C236.565,143.435 234.236,143.988 232.644,143.988 L225.384,143.988 C224.405,144.058 223.435,143.771 222.653,143.179 C221.605,142.4 220.991,141.169 221,139.863 C221,138.524 221.578,137.308 222.719,136.563 C223.544,136.029 224.457,135.903 224.79,135.856 L224.831,135.851 C224.946,135.834 225.298,135.702 225.769,135.127 C226.112,134.715 226.36,134.253 226.5,133.917 L226.5,124.092 C224.735,120.297 223.75,116.067 223.75,111.607 L223.75,98.847 C223.75,87.539 232.787,78.098 244.188,78.002 L244.21,78.002 Z M266.705,131.627 L266.705,120.346 C266.969,120.778 267.222,121.606 267.538,122.637 C268.691,126.385 270.662,132.809 276.861,132.526 C285.834,131.921 289.61,129.223 294.186,125.315 C300.065,118.784 303.5,109.717 303.5,99.672 L303.5,90.377 C303.512,90.187 303.47,89.997 303.379,89.829 C303.279,89.677 303.143,89.55 302.983,89.461 C302.494,89.158 301.699,88.966 300.86,88.999 C300.258,89.024 299.603,89.378 298.971,90.536 C298.33,91.71 298,93.264 298,94.502 C298,96.02 296.769,97.252 295.25,97.252 C293.731,97.252 292.5,96.02 292.5,94.502 C292.5,93.264 292.17,91.708 291.535,90.542 C290.908,89.392 290.259,89.048 289.657,89.029 C288.205,88.98 287.556,89.312 287.325,89.497 C287.165,89.626 287,89.835 287,90.377 L287,95.712 C287,99.347 286.326,103.032 284.451,105.922 C283,108.215 280.735,109.874 278.112,110.567 C278.318,111.103 278.448,111.714 278.448,112.349 C278.448,115.182 276.165,117.464 273.333,117.464 C270.5,117.464 268.218,115.182 268.19,112.349 C268.19,111.45 268.416,110.619 268.828,109.877 C263.897,107.861 260.314,103.307 259.475,97.656 C258.914,93.88 257.363,90.322 254.869,87.745 C252.424,85.22 248.962,83.504 244.221,83.502 C235.938,83.579 229.25,90.47 229.25,98.847 L229.25,111.607 C229.245,119.388 232.993,126.693 239.316,131.226 C237.27,128.327 236.174,124.864 236.181,121.315 L236.181,119.72 C236.181,115.072 240.004,111.277 244.706,111.36 C249.299,111.442 252.929,115.292 252.929,119.885 L252.929,127.475 C252.935,132.077 255.794,136.192 260.104,137.804 C261.462,138.241 262.799,138.475 263.956,138.475 L268.939,138.475 C268.692,138.128 268.465,137.766 268.26,137.392 C267.386,135.791 266.77,133.781 266.737,132.114 C266.717,131.953 266.707,131.79 266.706,131.628 Z M232,132.124 L232,134.756 L231.898,135.122 C231.526,136.346 230.924,137.489 230.125,138.488 L232.644,138.488 C233.246,138.488 234.698,138.199 235.963,137.531 C236.73,137.124 237.107,136.761 237.291,136.5 C235.365,135.251 233.589,133.784 232,132.127 Z" />
        </g>
        <g id="Regular-S">
            <path d="M485.818,118.234 C487.549,118.234 488.953,116.831 488.953,115.099 C488.953,113.368 487.549,111.964 485.818,111.964 C484.086,111.964 482.683,113.368 482.683,115.099 C482.683,116.831 484.086,118.234 485.818,118.234 Z M448.781,97.252 C451.676,97.252 454.03,100.032 454,103.453 C454,106.874 451.646,108.802 448.748,108.802 C447.975,108.802 447.235,108.755 446.564,108.571 C445.627,108.34 444.832,107.724 444.375,106.874 C443.839,107.836 443.083,108.331 442.189,108.573 C441.472,108.745 440.736,108.822 440,108.802 C437.104,108.802 434.75,106.877 434.75,103.453 C434.75,100.032 437.104,97.252 440.003,97.252 L448.781,97.252 Z M451.25,103.428 C451.269,101.102 449.746,100.002 448.781,100.002 L447.752,100.002 L445.585,101.789 C444.98,102.284 444.128,102.284 443.523,101.789 L441.356,100.002 L440.003,100.002 C439.035,100.002 437.5,101.102 437.5,103.453 C437.5,104.503 437.844,105.092 438.188,105.422 C438.559,105.779 439.158,106.052 440.003,106.052 C440.85,106.052 441.309,105.983 441.587,105.881 C441.661,105.857 441.731,105.82 441.793,105.771 C441.867,105.704 441.929,105.624 441.974,105.535 C442.46,104.665 443.379,104.126 444.375,104.126 C445.371,104.126 446.29,104.665 446.776,105.535 C446.853,105.672 446.916,105.735 446.955,105.766 C447.02,105.817 447.093,105.856 447.172,105.881 C447.455,105.983 447.92,106.052 448.75,106.052 C449.592,106.052 450.191,105.777 450.56,105.422 C450.906,105.092 451.247,104.503 451.247,103.453 L451.247,103.428 Z M439.513,94.474 C439.513,95.613 438.59,96.537 437.451,96.537 C436.311,96.537 435.388,95.613 435.388,94.474 C435.388,93.335 436.311,92.412 437.451,92.412 C438.59,92.412 439.513,93.335 439.513,94.474 Z M451.195,96.537 C452.334,96.537 453.258,95.613 453.258,94.474 C453.258,93.335 452.334,92.412 451.195,92.412 C450.056,92.412 449.133,93.335 449.133,94.474 C449.133,95.613 450.056,96.537 451.195,96.537 Z" />
            <path d="M444.21,78.002 C450.431,78.002 455.331,80.312 458.821,83.92 C462.264,87.481 464.222,92.17 464.915,96.847 C465.677,101.982 469.705,105.502 474.625,105.502 L474.939,105.502 C477.397,105.422 478.866,104.424 479.834,102.93 C480.909,101.275 481.5,98.786 481.5,95.712 L481.5,90.377 C481.5,88.43 482.229,86.529 483.893,85.201 C485.482,83.928 487.583,83.455 489.841,83.532 C492.244,83.612 494.021,84.797 495.25,86.265 C496.474,84.797 498.242,83.601 500.64,83.504 C502.276,83.438 504.229,83.766 505.873,84.783 C507.639,85.872 509,87.759 509,90.377 L509,99.672 C509,119.689 496.647,137.143 477.606,140.622 C477.241,142.572 475.536,143.983 473.553,143.977 L463.955,143.977 C460.837,143.977 457.328,142.935 454.316,141.254 L453.395,141.254 C449.549,141.258 445.74,140.511 442.181,139.054 C441.279,140.66 439.761,141.741 438.534,142.39 C436.565,143.435 434.236,143.988 432.644,143.988 L425.384,143.988 C424.405,144.058 423.435,143.771 422.653,143.179 C421.605,142.4 420.991,141.169 421,139.863 C421,138.524 421.578,137.308 422.719,136.563 C423.544,136.029 424.457,135.903 424.79,135.856 L424.831,135.851 C424.946,135.834 425.298,135.702 425.769,135.127 C426.112,134.715 426.36,134.253 426.5,133.917 L426.5,124.092 C424.735,120.297 423.75,116.067 423.75,111.607 L423.75,98.847 C423.75,87.539 432.787,78.098 444.188,78.002 L444.21,78.002 Z M466.705,131.627 L466.705,120.346 C466.969,120.778 467.222,121.606 467.538,122.637 C468.691,126.385 470.662,132.809 476.861,132.526 C485.834,131.921 489.61,129.223 494.186,125.315 C500.065,118.784 503.5,109.717 503.5,99.672 L503.5,90.377 C503.512,90.187 503.47,89.997 503.379,89.829 C503.279,89.677 503.143,89.55 502.983,89.461 C502.494,89.158 501.699,88.966 500.86,88.999 C500.258,89.024 499.603,89.378 498.971,90.536 C498.33,91.71 498,93.264 498,94.502 C498,96.02 496.769,97.252 495.25,97.252 C493.731,97.252 492.5,96.02 492.5,94.502 C492.5,93.264 492.17,91.708 491.535,90.542 C490.908,89.392 490.259,89.048 489.657,89.029 C488.205,88.98 487.556,89.312 487.325,89.497 C487.165,89.626 487,89.835 487,90.377 L487,95.712 C487,99.347 486.326,103.032 484.451,105.922 C483,108.215 480.735,109.874 478.112,110.567 C478.318,111.103 478.448,111.714 478.448,112.349 C478.448,115.182 476.165,117.464 473.333,117.464 C470.5,117.464 468.218,115.182 468.19,112.349 C468.19,111.45 468.416,110.619 468.828,109.877 C463.897,107.861 460.314,103.307 459.475,97.656 C458.914,93.88 457.363,90.322 454.869,87.745 C452.424,85.22 448.962,83.504 444.221,83.502 C435.938,83.579 429.25,90.47 429.25,98.847 L429.25,111.607 C429.245,119.388 432.993,126.693 439.316,131.226 C437.27,128.327 436.174,124.864 436.181,121.315 L436.181,119.72 C436.181,115.072 440.004,111.277 444.706,111.36 C449.299,111.442 452.929,115.292 452.929,119.885 L452.929,127.475 C452.935,132.077 455.794,136.192 460.104,137.804 C461.462,138.241 462.799,138.475 463.956,138.475 L468.939,138.475 C468.692,138.128 468.465,137.766 468.26,137.392 C467.386,135.791 466.77,133.781 466.737,132.114 C466.717,131.953 466.707,131.79 466.706,131.628 Z M432,132.124 L432,134.756 L431.898,135.122 C431.526,136.346 430.924,137.489 430.125,138.488 L432.644,138.488 C433.246,138.488 434.698,138.199 435.963,137.531 C436.73,137.124 437.107,136.761 437.291,136.5 C435.365,135.251 433.589,133.784 432,132.127 Z" />
        </g>
        <g id="Black-S">
            <path d="M685.818,118.234 C687.549,118.234 688.953,116.831 688.953,115.099 C688.953,113.368 687.549,111.964 685.818,111.964 C684.086,111.964 682.683,113.368 682.683,115.099 C682.683,116.831 684.086,118.234 685.818,118.234 Z M648.781,97.252 C651.676,97.252 654.03,100.032 654,103.453 C654,106.874 651.646,108.802 648.748,108.802 C647.975,108.802 647.235,108.755 646.564,108.571 C645.627,108.34 644.832,107.724 644.375,106.874 C643.839,107.836 643.083,108.331 642.189,108.573 C641.472,108.745 640.736,108.822 640,108.802 C637.104,108.802 634.75,106.877 634.75,103.453 C634.75,100.032 637.104,97.252 640.003,97.252 L648.781,97.252 Z M651.25,103.428 C651.269,101.102 649.746,100.002 648.781,100.002 L647.752,100.002 L645.585,101.789 C644.98,102.284 644.128,102.284 643.523,101.789 L641.356,100.002 L640.003,100.002 C639.035,100.002 637.5,101.102 637.5,103.453 C637.5,104.503 637.844,105.092 638.188,105.422 C638.559,105.779 639.158,106.052 640.003,106.052 C640.85,106.052 641.309,105.983 641.587,105.881 C641.661,105.857 641.731,105.82 641.793,105.771 C641.867,105.704 641.929,105.624 641.974,105.535 C642.46,104.665 643.379,104.126 644.375,104.126 C645.371,104.126 646.29,104.665 646.776,105.535 C646.853,105.672 646.916,105.735 646.955,105.766 C647.02,105.817 647.093,105.856 647.172,105.881 C647.455,105.983 647.92,106.052 648.75,106.052 C649.592,106.052 650.191,105.777 650.56,105.422 C650.906,105.092 651.247,104.503 651.247,103.453 L651.247,103.428 Z M639.513,94.474 C639.513,95.613 638.59,96.537 637.451,96.537 C636.312,96.537 635.388,95.613 635.388,94.474 C635.388,93.335 636.312,92.412 637.451,92.412 C638.59,92.412 639.513,93.335 639.513,94.474 Z M651.195,96.537 C652.334,96.537 653.258,95.613 653.258,94.474 C653.258,93.335 652.334,92.412 651.195,92.412 C650.056,92.412 649.133,93.335 649.133,94.474 C649.133,95.613 650.056,96.537 651.195,96.537 Z" />
            <path d="M644.21,78.002 C650.431,78.002 655.331,80.312 658.821,83.92 C662.264,87.481 664.222,92.17 664.915,96.847 C665.677,101.982 669.705,105.502 674.625,105.502 L674.939,105.502 C677.397,105.422 678.866,104.424 679.834,102.93 C680.909,101.275 681.5,98.786 681.5,95.712 L681.5,90.377 C681.5,88.43 682.229,86.529 683.893,85.201 C685.482,83.928 687.583,83.455 689.841,83.532 C692.244,83.612 694.021,84.797 695.25,86.265 C696.474,84.797 698.242,83.601 700.64,83.504 C702.276,83.438 704.229,83.766 705.873,84.783 C707.639,85.872 709,87.759 709,90.377 L709,99.672 C709,119.689 696.647,137.143 677.606,140.622 C677.241,142.572 675.536,143.983 673.553,143.977 L663.955,143.977 C660.837,143.977 657.328,142.935 654.316,141.254 L653.395,141.254 C649.549,141.258 645.74,140.511 642.181,139.054 C641.279,140.66 639.761,141.741 638.534,142.39 C636.565,143.435 634.236,143.988 632.644,143.988 L625.384,143.988 C624.406,144.058 623.435,143.771 622.653,143.179 C621.605,142.4 620.991,141.169 621,139.863 C621,138.524 621.578,137.308 622.719,136.563 C623.544,136.029 624.457,135.903 624.79,135.856 L624.831,135.851 C624.946,135.834 625.298,135.702 625.769,135.127 C626.112,134.715 626.36,134.253 626.5,133.917 L626.5,124.092 C624.735,120.297 623.75,116.067 623.75,111.607 L623.75,98.847 C623.75,87.539 632.787,78.098 644.188,78.002 L644.21,78.002 Z M666.705,131.627 L666.705,120.346 C666.969,120.778 667.222,121.606 667.538,122.637 C668.691,126.385 670.662,132.809 676.861,132.526 C685.834,131.921 689.61,129.223 694.186,125.315 C700.065,118.784 703.5,109.717 703.5,99.672 L703.5,90.377 C703.512,90.187 703.47,89.997 703.379,89.829 C703.279,89.677 703.143,89.55 702.983,89.461 C702.494,89.158 701.699,88.966 700.86,88.999 C700.258,89.024 699.603,89.378 698.971,90.536 C698.33,91.71 698,93.264 698,94.502 C698,96.02 696.769,97.252 695.25,97.252 C693.731,97.252 692.5,96.02 692.5,94.502 C692.5,93.264 692.17,91.708 691.535,90.542 C690.908,89.392 690.259,89.048 689.657,89.029 C688.205,88.98 687.556,89.312 687.325,89.497 C687.165,89.626 687,89.835 687,90.377 L687,95.712 C687,99.347 686.326,103.032 684.451,105.922 C683,108.215 680.735,109.874 678.112,110.567 C678.318,111.103 678.448,111.714 678.448,112.349 C678.448,115.182 676.165,117.464 673.333,117.464 C670.5,117.464 668.218,115.182 668.19,112.349 C668.19,111.45 668.416,110.619 668.828,109.877 C663.897,107.861 660.314,103.307 659.475,97.656 C658.914,93.88 657.363,90.322 654.869,87.745 C652.424,85.22 648.962,83.504 644.221,83.502 C635.938,83.579 629.25,90.47 629.25,98.847 L629.25,111.607 C629.245,119.388 632.993,126.693 639.316,131.226 C637.27,128.327 636.174,124.864 636.181,121.315 L636.181,119.72 C636.181,115.072 640.004,111.277 644.706,111.36 C649.299,111.442 652.929,115.292 652.929,119.885 L652.929,127.475 C652.935,132.077 655.794,136.192 660.104,137.804 C661.462,138.241 662.799,138.475 663.956,138.475 L668.939,138.475 C668.692,138.128 668.465,137.766 668.26,137.392 C667.386,135.791 666.77,133.781 666.737,132.114 C666.717,131.953 666.707,131.79 666.706,131.628 Z M632,132.124 L632,134.756 L631.898,135.122 C631.526,136.346 630.924,137.489 630.125,138.488 L632.644,138.488 C633.246,138.488 634.698,138.199 635.963,137.531 C636.73,137.124 637.107,136.761 637.291,136.5 C635.365,135.251 633.589,133.784 632,132.127 Z" />
        </g>
    </g>
</svg>