<?xml version="1.0" encoding="UTF-8"?>
<svg height="600" width="800" xmlns="http://www.w3.org/2000/svg" xmlns:xlink="http://www.w3.org/1999/xlink">
    <g id="Notes" font-family="'LucidaGrande', 'Lucida Grande', sans-serif" font-size="13">
        <rect fill="white" height="600.0" width="800.0" x="0.0" y="0.0" />
        <g font-size="13">
            <text x="18.0" y="176.0">Small</text>
            <text x="18.0" y="376.0">Medium</text>
            <text x="18.0" y="576.0">Large</text>
        </g>
        <g font-size="9">
            <text x="250.0" y="30.0">Ultralight</text>
            <text x="450.0" y="30.0">Regular</text>
            <text x="650.0" y="30.0">Black</text>
            <text id="template-version" fill="#505050" text-anchor="end" x="785.0" y="575.0">Template v.3.0</text>
            <a href="https://wangchujiang.com/#/app">
                <text fill="#505050" text-anchor="end" x="785.0" y="590.0">https://wangchujiang.com/#/app</text>
            </a>
        </g>
    </g>
    <g id="Guides" stroke="rgb(39, 170, 225)" stroke-width="0.5">
        <path id="Capline-S" d="M18,76 l800,0" />
        <path id="H-reference" d="M85,145.755 L87.685,145.755 L113.369,79.287 L114.052,79.287 L114.052,76 L112.148,76 L85,145.755 Z M95.693,121.536 L130.996,121.536 L130.263,119.313 L96.474,119.313 L95.693,121.536 Z M139.15,145.755 L141.787,145.755 L114.638,76 L113.466,76 L113.466,79.287 L139.15,145.755 Z" stroke="none" />
        <path id="Baseline-S" d="M18,146 l800,0" />
        <path id="left-margin-Ultralight-S" d="M219.952,56 l0,110" />
        <path id="right-margin-Ultralight-S" d="M310.048,56 l0,110" />
        <path id="left-margin-Regular-S" d="M419.952,56 l0,110" />
        <path id="right-margin-Regular-S" d="M510.048,56 l0,110" />
        <path id="left-margin-Black-S" d="M619.952,56 l0,110" />
        <path id="right-margin-Black-S" d="M710.048,56 l0,110" />
        <path id="Capline-M" d="M18,276 l800,0" />
        <path id="Baseline-M" d="M18,346 l800,0" />
        <path id="Capline-L" d="M18,476 l800,0" />
        <path id="Baseline-L" d="M18,546 l800,0" />
    </g>
    <g id="Symbols">
        <g id="Ultralight-S">
            <path d="M294.869,109.048 L285.77,103.45 C291.368,100.232 296.27,97.433 296.686,97.15 C297.124,96.882 297.39,96.405 297.388,95.892 C297.392,95.378 297.127,94.9 296.689,94.631 C286.845,88.599 276.987,82.592 267.114,76.607 C266.974,76.467 266.974,76.467 266.834,76.467 C265.755,75.877 264.354,75.877 262.956,76.296 C261.837,76.712 260.859,77.278 260.017,77.834 C259.598,77.974 241.822,89.033 235.941,92.673 L233.981,93.932 C233.303,94.238 232.686,94.665 232.161,95.193 C229.642,97.989 229.502,103.17 230.623,107.091 C231.182,108.629 231.881,110.169 232.723,111.288 C233.841,112.549 234.963,113.388 236.221,114.09 L236.501,114.23 C237.342,114.789 263.096,129.346 264.217,129.905 C264.357,130.045 266.177,131.166 266.177,135.506 C266.177,136.345 266.736,136.904 267.575,136.904 C268.417,136.904 268.973,136.345 268.973,135.506 C268.973,129.486 265.897,127.665 265.618,127.525 C256.379,122.35 238.601,112.266 237.902,111.85 L237.622,111.71 C236.64,111.008 235.659,110.449 235.103,109.47 C234.401,108.629 233.981,107.507 233.562,106.249 C232.723,103.17 232.723,98.97 234.543,97.01 C234.823,96.731 235.103,96.594 235.522,96.311 L237.482,95.053 C258.619,82.034 261.418,80.213 261.558,80.213 C262.257,79.654 262.956,79.232 263.798,78.955 C264.636,78.676 265.196,78.815 265.898,79.095 L266.037,79.095 C267.435,80.076 283.254,89.595 293.331,95.612 C286.612,99.53 265.618,111.428 264.916,111.85 C264.474,112.064 263.959,112.064 263.518,111.85 C262.816,111.428 245.6,101.49 239.02,97.712 C238.321,97.433 237.482,97.572 237.063,98.271 C236.64,98.831 236.92,99.812 237.479,100.092 C238.461,100.651 261.275,113.807 262.257,114.509 C263.52,115.208 265.054,115.208 266.317,114.509 C266.876,114.23 275.276,109.331 283.114,104.851 L293.614,111.288 C293.89,111.428 297.391,113.388 297.391,118.01 C297.391,123.046 295.993,124.027 293.751,125.848 C293.611,125.848 290.113,128.085 268.557,141.384 L267.575,141.943 C266.594,142.645 265.056,143.484 264.357,143.204 C263.658,142.785 252.319,135.786 234.54,125.006 L239.3,122.067 C239.917,121.616 240.099,120.773 239.722,120.107 C239.3,119.408 238.461,119.126 237.759,119.548 L231.04,123.605 C230.629,123.898 230.372,124.36 230.341,124.863 C230.341,125.423 230.62,125.845 231.04,126.124 L231.459,126.404 C262.394,145.301 262.953,145.581 263.093,145.72 C263.515,146 264.074,146 264.633,146 C266.174,146 267.852,145.161 268.973,144.602 L269.955,144.04 C295.149,128.364 295.149,128.364 295.288,128.364 C297.808,126.401 300.048,124.724 300.048,118.284 C300.048,111.987 295.288,109.328 294.869,109.045 Z" />
            <path d="M245.597,96.171 C245.762,96.938 246.506,97.434 247.277,97.293 L260.996,95.053 L257.914,102.751 C257.634,103.45 258.054,104.289 258.756,104.571 C258.896,104.711 259.172,104.711 259.315,104.711 C259.874,104.711 260.433,104.289 260.573,103.869 L265.615,91.412 L246.715,94.491 C246.013,94.631 245.454,95.472 245.594,96.171 Z M282.688,92.953 C282.236,92.338 281.396,92.158 280.731,92.534 L271.772,97.992 C271.155,98.444 270.975,99.287 271.353,99.952 C271.492,100.232 271.772,100.368 272.052,100.511 C272.471,100.651 273.033,100.511 273.313,100.371 L282.272,94.913 C282.889,94.46 283.068,93.615 282.688,92.95 Z" />
        </g>
        <g id="Regular-S">
            <path d="M494.869,109.048 L485.77,103.45 C491.368,100.232 496.27,97.433 496.686,97.15 C497.124,96.882 497.39,96.405 497.388,95.892 C497.392,95.378 497.127,94.9 496.689,94.631 C486.845,88.599 476.987,82.592 467.114,76.607 C466.974,76.467 466.974,76.467 466.834,76.467 C465.755,75.877 464.354,75.877 462.956,76.296 C461.837,76.712 460.859,77.278 460.017,77.834 C459.598,77.974 441.822,89.033 435.941,92.673 L433.981,93.932 C433.303,94.238 432.686,94.665 432.161,95.193 C429.642,97.989 429.502,103.17 430.623,107.091 C431.182,108.629 431.881,110.169 432.723,111.288 C433.841,112.549 434.963,113.388 436.221,114.09 L436.501,114.23 C437.342,114.789 463.096,129.346 464.217,129.905 C464.357,130.045 466.177,131.166 466.177,135.506 C466.177,136.345 466.736,136.904 467.575,136.904 C468.417,136.904 468.973,136.345 468.973,135.506 C468.973,129.486 465.898,127.665 465.618,127.525 C456.379,122.35 438.601,112.266 437.902,111.85 L437.622,111.71 C436.64,111.008 435.659,110.449 435.103,109.47 C434.401,108.629 433.981,107.507 433.562,106.249 C432.723,103.17 432.723,98.97 434.543,97.01 C434.823,96.731 435.103,96.594 435.522,96.311 L437.482,95.053 C458.619,82.034 461.418,80.213 461.558,80.213 C462.257,79.654 462.956,79.232 463.798,78.955 C464.636,78.676 465.196,78.815 465.898,79.095 L466.037,79.095 C467.435,80.076 483.254,89.595 493.331,95.612 C486.612,99.53 465.618,111.428 464.916,111.85 C464.474,112.064 463.959,112.064 463.518,111.85 C462.816,111.428 445.6,101.49 439.02,97.712 C438.321,97.433 437.482,97.572 437.063,98.271 C436.64,98.831 436.92,99.812 437.479,100.092 C438.461,100.651 461.275,113.807 462.257,114.509 C463.52,115.208 465.054,115.208 466.317,114.509 C466.876,114.23 475.276,109.331 483.114,104.851 L493.614,111.288 C493.89,111.428 497.391,113.388 497.391,118.01 C497.391,123.046 495.993,124.027 493.751,125.848 C493.611,125.848 490.113,128.085 468.557,141.384 L467.575,141.943 C466.594,142.645 465.056,143.484 464.357,143.204 C463.658,142.785 452.319,135.786 434.54,125.006 L439.3,122.067 C439.917,121.616 440.099,120.773 439.722,120.107 C439.3,119.408 438.461,119.126 437.759,119.548 L431.04,123.605 C430.629,123.898 430.372,124.36 430.341,124.863 C430.341,125.423 430.62,125.845 431.04,126.124 L431.459,126.404 C462.394,145.301 462.953,145.581 463.093,145.72 C463.515,146 464.074,146 464.633,146 C466.174,146 467.852,145.161 468.973,144.602 L469.955,144.04 C495.149,128.364 495.149,128.364 495.288,128.364 C497.808,126.401 500.048,124.724 500.048,118.284 C500.048,111.987 495.288,109.328 494.869,109.045 Z" />
            <path d="M445.597,96.171 C445.762,96.938 446.506,97.434 447.277,97.293 L460.996,95.053 L457.914,102.751 C457.634,103.45 458.054,104.289 458.756,104.571 C458.896,104.711 459.172,104.711 459.315,104.711 C459.874,104.711 460.433,104.289 460.573,103.869 L465.615,91.412 L446.715,94.491 C446.013,94.631 445.454,95.472 445.594,96.171 Z M482.688,92.953 C482.236,92.338 481.396,92.158 480.731,92.534 L471.772,97.992 C471.155,98.444 470.975,99.287 471.353,99.952 C471.493,100.232 471.772,100.368 472.052,100.511 C472.471,100.651 473.033,100.511 473.313,100.371 L482.272,94.913 C482.889,94.46 483.068,93.615 482.688,92.95 Z" />
        </g>
        <g id="Black-S">
            <path d="M694.869,109.048 L685.77,103.45 C691.368,100.232 696.27,97.433 696.686,97.15 C697.124,96.882 697.39,96.405 697.388,95.892 C697.392,95.378 697.127,94.9 696.689,94.631 C686.845,88.599 676.987,82.592 667.114,76.607 C666.974,76.467 666.974,76.467 666.834,76.467 C665.755,75.877 664.354,75.877 662.956,76.296 C661.837,76.712 660.859,77.278 660.017,77.834 C659.598,77.974 641.822,89.033 635.941,92.673 L633.981,93.932 C633.303,94.238 632.686,94.665 632.161,95.193 C629.641,97.989 629.502,103.17 630.623,107.091 C631.182,108.629 631.881,110.169 632.723,111.288 C633.841,112.549 634.963,113.388 636.221,114.09 L636.501,114.23 C637.342,114.789 663.096,129.346 664.217,129.905 C664.357,130.045 666.177,131.166 666.177,135.506 C666.177,136.345 666.736,136.904 667.575,136.904 C668.417,136.904 668.973,136.345 668.973,135.506 C668.973,129.486 665.897,127.665 665.618,127.525 C656.379,122.35 638.601,112.266 637.902,111.85 L637.622,111.71 C636.64,111.008 635.659,110.449 635.103,109.47 C634.401,108.629 633.981,107.507 633.562,106.249 C632.723,103.17 632.723,98.97 634.543,97.01 C634.823,96.731 635.103,96.594 635.522,96.311 L637.482,95.053 C658.619,82.034 661.418,80.213 661.558,80.213 C662.257,79.654 662.956,79.232 663.797,78.955 C664.636,78.676 665.195,78.815 665.897,79.095 L666.037,79.095 C667.435,80.076 683.254,89.595 693.331,95.612 C686.612,99.53 665.618,111.428 664.916,111.85 C664.474,112.064 663.959,112.064 663.518,111.85 C662.816,111.428 645.6,101.49 639.02,97.712 C638.321,97.433 637.482,97.572 637.063,98.271 C636.64,98.831 636.92,99.812 637.479,100.092 C638.461,100.651 661.275,113.807 662.257,114.509 C663.52,115.208 665.054,115.208 666.317,114.509 C666.876,114.23 675.276,109.331 683.114,104.851 L693.614,111.288 C693.89,111.428 697.391,113.388 697.391,118.01 C697.391,123.046 695.993,124.027 693.751,125.848 C693.611,125.848 690.113,128.085 668.557,141.384 L667.575,141.943 C666.594,142.645 665.056,143.484 664.357,143.204 C663.658,142.785 652.319,135.786 634.54,125.006 L639.3,122.067 C639.917,121.616 640.099,120.773 639.722,120.107 C639.3,119.408 638.461,119.126 637.759,119.548 L631.039,123.605 C630.629,123.898 630.372,124.36 630.341,124.863 C630.341,125.423 630.62,125.845 631.039,126.124 L631.459,126.404 C662.394,145.301 662.953,145.581 663.093,145.72 C663.515,146 664.074,146 664.633,146 C666.174,146 667.852,145.161 668.973,144.602 L669.955,144.04 C695.149,128.364 695.149,128.364 695.288,128.364 C697.808,126.401 700.048,124.724 700.048,118.284 C700.048,111.987 695.288,109.328 694.869,109.045 Z" />
            <path d="M645.597,96.171 C645.762,96.938 646.506,97.434 647.277,97.293 L660.996,95.053 L657.914,102.751 C657.634,103.45 658.054,104.289 658.756,104.571 C658.896,104.711 659.172,104.711 659.315,104.711 C659.874,104.711 660.433,104.289 660.573,103.869 L665.615,91.412 L646.715,94.491 C646.013,94.631 645.454,95.472 645.594,96.171 Z M682.688,92.953 C682.236,92.338 681.396,92.158 680.731,92.534 L671.772,97.992 C671.155,98.444 670.975,99.287 671.353,99.952 C671.492,100.232 671.772,100.368 672.052,100.511 C672.471,100.651 673.033,100.511 673.313,100.371 L682.272,94.913 C682.889,94.46 683.068,93.615 682.688,92.95 Z" />
        </g>
    </g>
</svg>