<?xml version="1.0" encoding="UTF-8"?>
<svg height="600" width="800" xmlns="http://www.w3.org/2000/svg" xmlns:xlink="http://www.w3.org/1999/xlink">
    <g id="Notes" font-family="'LucidaGrande', 'Lucida Grande', sans-serif" font-size="13">
        <rect fill="white" height="600.0" width="800.0" x="0.0" y="0.0" />
        <g font-size="13">
            <text x="18.0" y="176.0">Small</text>
            <text x="18.0" y="376.0">Medium</text>
            <text x="18.0" y="576.0">Large</text>
        </g>
        <g font-size="9">
            <text x="250.0" y="30.0">Ultralight</text>
            <text x="450.0" y="30.0">Regular</text>
            <text x="650.0" y="30.0">Black</text>
            <text id="template-version" fill="#505050" text-anchor="end" x="785.0" y="575.0">Template v.3.0</text>
            <a href="https://wangchujiang.com/#/app">
                <text fill="#505050" text-anchor="end" x="785.0" y="590.0">https://wangchujiang.com/#/app</text>
            </a>
        </g>
    </g>
    <g id="Guides" stroke="rgb(39, 170, 225)" stroke-width="0.5">
        <path id="Capline-S" d="M18,76 l800,0" />
        <path id="H-reference" d="M85,145.755 L87.685,145.755 L113.369,79.287 L114.052,79.287 L114.052,76 L112.148,76 L85,145.755 Z M95.693,121.536 L130.996,121.536 L130.263,119.313 L96.474,119.313 L95.693,121.536 Z M139.15,145.755 L141.787,145.755 L114.638,76 L113.466,76 L113.466,79.287 L139.15,145.755 Z" stroke="none" />
        <path id="Baseline-S" d="M18,146 l800,0" />
        <path id="left-margin-Ultralight-S" d="M220,56 l0,110" />
        <path id="right-margin-Ultralight-S" d="M310,56 l0,110" />
        <path id="left-margin-Regular-S" d="M420,56 l0,110" />
        <path id="right-margin-Regular-S" d="M510,56 l0,110" />
        <path id="left-margin-Black-S" d="M620,56 l0,110" />
        <path id="right-margin-Black-S" d="M710,56 l0,110" />
        <path id="Capline-M" d="M18,276 l800,0" />
        <path id="Baseline-M" d="M18,346 l800,0" />
        <path id="Capline-L" d="M18,476 l800,0" />
        <path id="Baseline-L" d="M18,546 l800,0" />
    </g>
    <g id="Symbols">
        <g id="Ultralight-S">
            <path d="M230,90.583 C230,86.716 231.536,83.006 234.271,80.271 C237.006,77.536 240.716,76 244.583,76 L285.417,76 C289.284,76 292.994,77.536 295.729,80.271 C298.464,83.006 300,86.716 300,90.583 L300,131.417 C300,135.284 298.464,138.994 295.729,141.729 C292.994,144.464 289.284,146 285.417,146 L244.583,146 C240.716,146 237.006,144.464 234.271,141.729 C231.536,138.994 230,135.284 230,131.417 L230,90.583 Z M244.583,81.833 C242.263,81.833 240.037,82.755 238.396,84.396 C236.755,86.037 235.833,88.263 235.833,90.583 L235.833,96.417 L250.417,96.417 L250.417,81.833 L244.583,81.833 Z M256.25,81.833 L256.25,96.417 L273.75,96.417 L273.75,81.833 L256.25,81.833 Z M256.25,102.25 L256.25,119.75 L273.75,119.75 L273.75,102.25 L256.25,102.25 Z M250.417,119.75 L250.417,102.25 L235.833,102.25 L235.833,119.75 L250.417,119.75 Z M235.833,125.583 L235.833,131.417 C235.833,133.737 236.755,135.963 238.396,137.604 C240.037,139.245 242.263,140.167 244.583,140.167 L250.417,140.167 L250.417,125.583 L235.833,125.583 Z M256.25,125.583 L256.25,140.167 L273.75,140.167 L273.75,125.583 L256.25,125.583 Z M279.583,125.583 L279.583,140.167 L285.417,140.167 C287.737,140.167 289.963,139.245 291.604,137.604 C293.245,135.963 294.167,133.737 294.167,131.417 L294.167,125.583 L279.583,125.583 Z M294.167,119.75 L294.167,102.25 L279.583,102.25 L279.583,119.75 L294.167,119.75 Z M279.583,81.833 L279.583,96.417 L294.167,96.417 L294.167,90.583 C294.167,88.263 293.245,86.037 291.604,84.396 C289.963,82.755 287.737,81.833 285.417,81.833 L279.583,81.833 Z" />
        </g>
        <g id="Regular-S">
            <path d="M430,90.583 C430,86.716 431.536,83.006 434.271,80.271 C437.006,77.536 440.716,76 444.583,76 L485.417,76 C489.284,76 492.994,77.536 495.729,80.271 C498.464,83.006 500,86.716 500,90.583 L500,131.417 C500,135.284 498.464,138.994 495.729,141.729 C492.994,144.464 489.284,146 485.417,146 L444.583,146 C440.716,146 437.006,144.464 434.271,141.729 C431.536,138.994 430,135.284 430,131.417 L430,90.583 Z M444.583,81.833 C442.263,81.833 440.037,82.755 438.396,84.396 C436.755,86.037 435.833,88.263 435.833,90.583 L435.833,96.417 L450.417,96.417 L450.417,81.833 L444.583,81.833 Z M456.25,81.833 L456.25,96.417 L473.75,96.417 L473.75,81.833 L456.25,81.833 Z M456.25,102.25 L456.25,119.75 L473.75,119.75 L473.75,102.25 L456.25,102.25 Z M450.417,119.75 L450.417,102.25 L435.833,102.25 L435.833,119.75 L450.417,119.75 Z M435.833,125.583 L435.833,131.417 C435.833,133.737 436.755,135.963 438.396,137.604 C440.037,139.245 442.263,140.167 444.583,140.167 L450.417,140.167 L450.417,125.583 L435.833,125.583 Z M456.25,125.583 L456.25,140.167 L473.75,140.167 L473.75,125.583 L456.25,125.583 Z M479.583,125.583 L479.583,140.167 L485.417,140.167 C487.737,140.167 489.963,139.245 491.604,137.604 C493.245,135.963 494.167,133.737 494.167,131.417 L494.167,125.583 L479.583,125.583 Z M494.167,119.75 L494.167,102.25 L479.583,102.25 L479.583,119.75 L494.167,119.75 Z M479.583,81.833 L479.583,96.417 L494.167,96.417 L494.167,90.583 C494.167,88.263 493.245,86.037 491.604,84.396 C489.963,82.755 487.737,81.833 485.417,81.833 L479.583,81.833 Z" />
        </g>
        <g id="Black-S">
            <path d="M630,90.583 C630,86.716 631.536,83.006 634.271,80.271 C637.006,77.536 640.716,76 644.583,76 L685.417,76 C689.284,76 692.994,77.536 695.729,80.271 C698.464,83.006 700,86.716 700,90.583 L700,131.417 C700,135.284 698.464,138.994 695.729,141.729 C692.994,144.464 689.284,146 685.417,146 L644.583,146 C640.716,146 637.006,144.464 634.271,141.729 C631.536,138.994 630,135.284 630,131.417 L630,90.583 Z M644.583,81.833 C642.263,81.833 640.037,82.755 638.396,84.396 C636.755,86.037 635.833,88.263 635.833,90.583 L635.833,96.417 L650.417,96.417 L650.417,81.833 L644.583,81.833 Z M656.25,81.833 L656.25,96.417 L673.75,96.417 L673.75,81.833 L656.25,81.833 Z M656.25,102.25 L656.25,119.75 L673.75,119.75 L673.75,102.25 L656.25,102.25 Z M650.417,119.75 L650.417,102.25 L635.833,102.25 L635.833,119.75 L650.417,119.75 Z M635.833,125.583 L635.833,131.417 C635.833,133.737 636.755,135.963 638.396,137.604 C640.037,139.245 642.263,140.167 644.583,140.167 L650.417,140.167 L650.417,125.583 L635.833,125.583 Z M656.25,125.583 L656.25,140.167 L673.75,140.167 L673.75,125.583 L656.25,125.583 Z M679.583,125.583 L679.583,140.167 L685.417,140.167 C687.737,140.167 689.963,139.245 691.604,137.604 C693.245,135.963 694.167,133.737 694.167,131.417 L694.167,125.583 L679.583,125.583 Z M694.167,119.75 L694.167,102.25 L679.583,102.25 L679.583,119.75 L694.167,119.75 Z M679.583,81.833 L679.583,96.417 L694.167,96.417 L694.167,90.583 C694.167,88.263 693.245,86.037 691.604,84.396 C689.963,82.755 687.737,81.833 685.417,81.833 L679.583,81.833 Z" />
        </g>
    </g>
</svg>