<?xml version="1.0" encoding="UTF-8"?>
<svg height="600" width="800" xmlns="http://www.w3.org/2000/svg" xmlns:xlink="http://www.w3.org/1999/xlink">
    <g id="Notes" font-family="'LucidaGrande', 'Lucida Grande', sans-serif" font-size="13">
        <rect fill="white" height="600.0" width="800.0" x="0.0" y="0.0" />
        <g font-size="13">
            <text x="18.0" y="176.0">Small</text>
            <text x="18.0" y="376.0">Medium</text>
            <text x="18.0" y="576.0">Large</text>
        </g>
        <g font-size="9">
            <text x="250.0" y="30.0">Ultralight</text>
            <text x="450.0" y="30.0">Regular</text>
            <text x="650.0" y="30.0">Black</text>
            <text id="template-version" fill="#505050" text-anchor="end" x="785.0" y="575.0">Template v.3.0</text>
            <a href="https://wangchujiang.com/#/app">
                <text fill="#505050" text-anchor="end" x="785.0" y="590.0">https://wangchujiang.com/#/app</text>
            </a>
        </g>
    </g>
    <g id="Guides" stroke="rgb(39, 170, 225)" stroke-width="0.5">
        <path id="Capline-S" d="M18,76 l800,0" />
        <path id="H-reference" d="M85,145.755 L87.685,145.755 L113.369,79.287 L114.052,79.287 L114.052,76 L112.148,76 L85,145.755 Z M95.693,121.536 L130.996,121.536 L130.263,119.313 L96.474,119.313 L95.693,121.536 Z M139.15,145.755 L141.787,145.755 L114.638,76 L113.466,76 L113.466,79.287 L139.15,145.755 Z" stroke="none" />
        <path id="Baseline-S" d="M18,146 l800,0" />
        <path id="left-margin-Ultralight-S" d="M219.942,56 l0,110" />
        <path id="right-margin-Ultralight-S" d="M310.058,56 l0,110" />
        <path id="left-margin-Regular-S" d="M419.942,56 l0,110" />
        <path id="right-margin-Regular-S" d="M510.058,56 l0,110" />
        <path id="left-margin-Black-S" d="M619.942,56 l0,110" />
        <path id="right-margin-Black-S" d="M710.058,56 l0,110" />
        <path id="Capline-M" d="M18,276 l800,0" />
        <path id="Baseline-M" d="M18,346 l800,0" />
        <path id="Capline-L" d="M18,476 l800,0" />
        <path id="Baseline-L" d="M18,546 l800,0" />
    </g>
    <g id="Symbols">
        <g id="Ultralight-S">
            <path d="M274.738,126.523 L274.738,146 L255.262,146 L255.262,126.523 L274.738,126.523 Z M300.058,126.523 L300.058,133.34 C300.058,140.091 294.774,145.608 288.117,145.98 L287.398,146 L280.582,146 L280.582,126.523 L300.058,126.523 Z M249.418,126.523 L249.418,146 L242.602,146 C235.851,146 230.334,140.716 229.962,134.058 L229.942,133.34 L229.942,126.523 L249.418,126.523 Z M300.058,101.203 L300.058,120.68 L280.582,120.68 L280.582,101.203 L300.058,101.203 Z M249.418,101.203 L249.418,120.68 L229.942,120.68 L229.942,101.203 L249.418,101.203 Z M274.738,101.203 L274.738,120.68 L255.262,120.68 L255.262,101.203 L274.738,101.203 Z M287.398,75.883 C294.149,75.883 299.666,81.167 300.038,87.825 L300.058,88.543 L300.058,95.36 L280.582,95.36 L280.582,75.883 L287.398,75.883 Z M274.738,75.883 L274.738,95.36 L255.262,95.36 L255.262,75.883 L274.738,75.883 Z M249.418,75.883 L249.418,95.36 L229.942,95.36 L229.942,88.543 C229.942,81.792 235.225,76.276 241.883,75.903 L242.602,75.883 L249.418,75.883 Z" />
        </g>
        <g id="Regular-S">
            <path d="M474.738,126.523 L474.738,146 L455.262,146 L455.262,126.523 L474.738,126.523 Z M500.058,126.523 L500.058,133.34 C500.058,140.091 494.774,145.608 488.117,145.98 L487.398,146 L480.582,146 L480.582,126.523 L500.058,126.523 Z M449.418,126.523 L449.418,146 L442.602,146 C435.851,146 430.334,140.716 429.962,134.058 L429.942,133.34 L429.942,126.523 L449.418,126.523 Z M500.058,101.203 L500.058,120.68 L480.582,120.68 L480.582,101.203 L500.058,101.203 Z M449.418,101.203 L449.418,120.68 L429.942,120.68 L429.942,101.203 L449.418,101.203 Z M474.738,101.203 L474.738,120.68 L455.262,120.68 L455.262,101.203 L474.738,101.203 Z M487.398,75.883 C494.149,75.883 499.666,81.167 500.038,87.825 L500.058,88.543 L500.058,95.36 L480.582,95.36 L480.582,75.883 L487.398,75.883 Z M474.738,75.883 L474.738,95.36 L455.262,95.36 L455.262,75.883 L474.738,75.883 Z M449.418,75.883 L449.418,95.36 L429.942,95.36 L429.942,88.543 C429.942,81.792 435.225,76.276 441.883,75.903 L442.602,75.883 L449.418,75.883 Z" />
        </g>
        <g id="Black-S">
            <path d="M674.738,126.523 L674.738,146 L655.262,146 L655.262,126.523 L674.738,126.523 Z M700.058,126.523 L700.058,133.34 C700.058,140.091 694.774,145.608 688.117,145.98 L687.398,146 L680.582,146 L680.582,126.523 L700.058,126.523 Z M649.418,126.523 L649.418,146 L642.602,146 C635.851,146 630.334,140.716 629.962,134.058 L629.942,133.34 L629.942,126.523 L649.418,126.523 Z M700.058,101.203 L700.058,120.68 L680.582,120.68 L680.582,101.203 L700.058,101.203 Z M649.418,101.203 L649.418,120.68 L629.942,120.68 L629.942,101.203 L649.418,101.203 Z M674.738,101.203 L674.738,120.68 L655.262,120.68 L655.262,101.203 L674.738,101.203 Z M687.398,75.883 C694.149,75.883 699.666,81.167 700.038,87.825 L700.058,88.543 L700.058,95.36 L680.582,95.36 L680.582,75.883 L687.398,75.883 Z M674.738,75.883 L674.738,95.36 L655.262,95.36 L655.262,75.883 L674.738,75.883 Z M649.418,75.883 L649.418,95.36 L629.942,95.36 L629.942,88.543 C629.942,81.792 635.225,76.276 641.883,75.903 L642.602,75.883 L649.418,75.883 Z" />
        </g>
    </g>
</svg>