<?xml version="1.0" encoding="UTF-8"?>
<svg height="600" width="800" xmlns="http://www.w3.org/2000/svg" xmlns:xlink="http://www.w3.org/1999/xlink">
    <g id="Notes" font-family="'LucidaGrande', 'Lucida Grande', sans-serif" font-size="13">
        <rect fill="white" height="600.0" width="800.0" x="0.0" y="0.0" />
        <g font-size="13">
            <text x="18.0" y="176.0">Small</text>
            <text x="18.0" y="376.0">Medium</text>
            <text x="18.0" y="576.0">Large</text>
        </g>
        <g font-size="9">
            <text x="250.0" y="30.0">Ultralight</text>
            <text x="450.0" y="30.0">Regular</text>
            <text x="650.0" y="30.0">Black</text>
            <text id="template-version" fill="#505050" text-anchor="end" x="785.0" y="575.0">Template v.3.0</text>
            <a href="https://wangchujiang.com/#/app">
                <text fill="#505050" text-anchor="end" x="785.0" y="590.0">https://wangchujiang.com/#/app</text>
            </a>
        </g>
    </g>
    <g id="Guides" stroke="rgb(39, 170, 225)" stroke-width="0.5">
        <path id="Capline-S" d="M18,76 l800,0" />
        <path id="H-reference" d="M85,145.755 L87.685,145.755 L113.369,79.287 L114.052,79.287 L114.052,76 L112.148,76 L85,145.755 Z M95.693,121.536 L130.996,121.536 L130.263,119.313 L96.474,119.313 L95.693,121.536 Z M139.15,145.755 L141.787,145.755 L114.638,76 L113.466,76 L113.466,79.287 L139.15,145.755 Z" stroke="none" />
        <path id="Baseline-S" d="M18,146 l800,0" />
        <path id="left-margin-Ultralight-S" d="M220,56 l0,110" />
        <path id="right-margin-Ultralight-S" d="M310,56 l0,110" />
        <path id="left-margin-Regular-S" d="M420,56 l0,110" />
        <path id="right-margin-Regular-S" d="M510,56 l0,110" />
        <path id="left-margin-Black-S" d="M620,56 l0,110" />
        <path id="right-margin-Black-S" d="M710,56 l0,110" />
        <path id="Capline-M" d="M18,276 l800,0" />
        <path id="Baseline-M" d="M18,346 l800,0" />
        <path id="Capline-L" d="M18,476 l800,0" />
        <path id="Baseline-L" d="M18,546 l800,0" />
    </g>
    <g id="Symbols">
        <g id="Ultralight-S">
            <path d="M230,84.75 C230,82.429 230.922,80.204 232.563,78.563 C234.204,76.922 236.429,76 238.75,76 L291.25,76 C293.571,76 295.796,76.922 297.437,78.563 C299.078,80.204 300,82.429 300,84.75 L300,137.25 C300,139.571 299.078,141.796 297.437,143.437 C295.796,145.078 293.571,146 291.25,146 L238.75,146 C236.429,146 234.204,145.078 232.563,143.437 C230.922,141.796 230,139.571 230,137.25 Z M295.625,93.5 L278.125,93.5 L278.125,106.625 L295.625,106.625 Z M295.625,111 L278.125,111 L278.125,124.125 L295.625,124.125 Z M295.625,128.5 L278.125,128.5 L278.125,141.625 L291.25,141.625 C292.41,141.625 293.523,141.164 294.344,140.344 C295.164,139.523 295.625,138.41 295.625,137.25 Z M273.75,141.625 L273.75,128.5 L256.25,128.5 L256.25,141.625 Z M251.875,141.625 L251.875,128.5 L234.375,128.5 L234.375,137.25 C234.375,138.41 234.836,139.523 235.656,140.344 C236.477,141.164 237.59,141.625 238.75,141.625 Z M234.375,124.125 L251.875,124.125 L251.875,111 L234.375,111 Z M234.375,106.625 L251.875,106.625 L251.875,93.5 L234.375,93.5 Z M256.25,93.5 L256.25,106.625 L273.75,106.625 L273.75,93.5 Z M273.75,111 L256.25,111 L256.25,124.125 L273.75,124.125 Z" />
        </g>
        <g id="Regular-S">
            <path d="M430,84.75 C430,82.429 430.922,80.204 432.563,78.563 C434.204,76.922 436.429,76 438.75,76 L491.25,76 C493.571,76 495.796,76.922 497.437,78.563 C499.078,80.204 500,82.429 500,84.75 L500,137.25 C500,139.571 499.078,141.796 497.437,143.437 C495.796,145.078 493.571,146 491.25,146 L438.75,146 C436.429,146 434.204,145.078 432.563,143.437 C430.922,141.796 430,139.571 430,137.25 Z M495.625,93.5 L478.125,93.5 L478.125,106.625 L495.625,106.625 Z M495.625,111 L478.125,111 L478.125,124.125 L495.625,124.125 Z M495.625,128.5 L478.125,128.5 L478.125,141.625 L491.25,141.625 C492.41,141.625 493.523,141.164 494.344,140.344 C495.164,139.523 495.625,138.41 495.625,137.25 Z M473.75,141.625 L473.75,128.5 L456.25,128.5 L456.25,141.625 Z M451.875,141.625 L451.875,128.5 L434.375,128.5 L434.375,137.25 C434.375,138.41 434.836,139.523 435.656,140.344 C436.477,141.164 437.59,141.625 438.75,141.625 Z M434.375,124.125 L451.875,124.125 L451.875,111 L434.375,111 Z M434.375,106.625 L451.875,106.625 L451.875,93.5 L434.375,93.5 Z M456.25,93.5 L456.25,106.625 L473.75,106.625 L473.75,93.5 Z M473.75,111 L456.25,111 L456.25,124.125 L473.75,124.125 Z" />
        </g>
        <g id="Black-S">
            <path d="M630,84.75 C630,82.429 630.922,80.204 632.563,78.563 C634.204,76.922 636.429,76 638.75,76 L691.25,76 C693.571,76 695.796,76.922 697.437,78.563 C699.078,80.204 700,82.429 700,84.75 L700,137.25 C700,139.571 699.078,141.796 697.437,143.437 C695.796,145.078 693.571,146 691.25,146 L638.75,146 C636.429,146 634.204,145.078 632.563,143.437 C630.922,141.796 630,139.571 630,137.25 Z M695.625,93.5 L678.125,93.5 L678.125,106.625 L695.625,106.625 Z M695.625,111 L678.125,111 L678.125,124.125 L695.625,124.125 Z M695.625,128.5 L678.125,128.5 L678.125,141.625 L691.25,141.625 C692.41,141.625 693.523,141.164 694.344,140.344 C695.164,139.523 695.625,138.41 695.625,137.25 Z M673.75,141.625 L673.75,128.5 L656.25,128.5 L656.25,141.625 Z M651.875,141.625 L651.875,128.5 L634.375,128.5 L634.375,137.25 C634.375,138.41 634.836,139.523 635.656,140.344 C636.477,141.164 637.59,141.625 638.75,141.625 Z M634.375,124.125 L651.875,124.125 L651.875,111 L634.375,111 Z M634.375,106.625 L651.875,106.625 L651.875,93.5 L634.375,93.5 Z M656.25,93.5 L656.25,106.625 L673.75,106.625 L673.75,93.5 Z M673.75,111 L656.25,111 L656.25,124.125 L673.75,124.125 Z" />
        </g>
    </g>
</svg>