<?xml version="1.0" encoding="UTF-8"?>
<svg height="600" width="800" xmlns="http://www.w3.org/2000/svg" xmlns:xlink="http://www.w3.org/1999/xlink">
    <g id="Notes" font-family="'LucidaGrande', 'Lucida Grande', sans-serif" font-size="13">
        <rect fill="white" height="600.0" width="800.0" x="0.0" y="0.0" />
        <g font-size="13">
            <text x="18.0" y="176.0">Small</text>
            <text x="18.0" y="376.0">Medium</text>
            <text x="18.0" y="576.0">Large</text>
        </g>
        <g font-size="9">
            <text x="250.0" y="30.0">Ultralight</text>
            <text x="450.0" y="30.0">Regular</text>
            <text x="650.0" y="30.0">Black</text>
            <text id="template-version" fill="#505050" text-anchor="end" x="785.0" y="575.0">Template v.3.0</text>
            <a href="https://wangchujiang.com/#/app">
                <text fill="#505050" text-anchor="end" x="785.0" y="590.0">https://wangchujiang.com/#/app</text>
            </a>
        </g>
    </g>
    <g id="Guides" stroke="rgb(39, 170, 225)" stroke-width="0.5">
        <path id="Capline-S" d="M18,76 l800,0" />
        <path id="H-reference" d="M85,145.755 L87.685,145.755 L113.369,79.287 L114.052,79.287 L114.052,76 L112.148,76 L85,145.755 Z M95.693,121.536 L130.996,121.536 L130.263,119.313 L96.474,119.313 L95.693,121.536 Z M139.15,145.755 L141.787,145.755 L114.638,76 L113.466,76 L113.466,79.287 L139.15,145.755 Z" stroke="none" />
        <path id="Baseline-S" d="M18,146 l800,0" />
        <path id="left-margin-Ultralight-S" d="M221,56 l0,110" />
        <path id="right-margin-Ultralight-S" d="M309,56 l0,110" />
        <path id="left-margin-Regular-S" d="M421,56 l0,110" />
        <path id="right-margin-Regular-S" d="M509,56 l0,110" />
        <path id="left-margin-Black-S" d="M621,56 l0,110" />
        <path id="right-margin-Black-S" d="M709,56 l0,110" />
        <path id="Capline-M" d="M18,276 l800,0" />
        <path id="Baseline-M" d="M18,346 l800,0" />
        <path id="Capline-L" d="M18,476 l800,0" />
        <path id="Baseline-L" d="M18,546 l800,0" />
    </g>
    <g id="Symbols">
        <g id="Ultralight-S">
            <path d="M246.738,90.569 C246.738,88.768 248.198,87.309 249.998,87.309 C251.799,87.309 253.258,88.768 253.258,90.569 C253.258,92.369 251.799,93.829 249.998,93.829 C248.198,93.829 246.738,92.369 246.738,90.569 Z" />
            <path d="M264.613,81.194 C253.437,75.031 244.608,76.971 237.949,84.05 C237.175,84.873 236.461,85.732 235.751,86.672 C235.481,87.029 235.221,87.384 234.933,87.788 C234.788,87.991 234.359,88.598 234.302,88.678 L236.272,87.381 C230.461,88.631 227.229,91.063 228.422,95.087 C229.129,97.472 231.489,99.159 234.211,100.152 C234.855,100.369 238.845,101.66 240.067,102.064 C240.315,102.146 240.555,102.225 240.789,102.303 C242.063,102.729 243.129,103.097 243.99,103.411 L245.108,100.349 L241.873,100.752 C242.185,103.251 242.785,105.767 243.601,108.291 C243.929,109.304 244.274,110.268 244.647,111.231 C244.867,111.8 245.474,113.303 245.34,112.966 C246.669,116.303 251.628,115.352 251.628,111.759 C251.628,111.9 251.688,111.649 251.813,111.277 C251.991,110.749 252.255,110.073 252.587,109.289 C253.151,107.961 253.884,106.392 254.547,105.063 L251.628,103.609 L250.414,106.635 C256.481,109.07 262.15,113.618 267.733,119.992 C269.404,121.898 271.022,123.914 272.736,126.189 C273.405,127.078 274.067,127.975 274.848,129.049 C275.159,129.477 276.401,131.193 276.704,131.609 L276.422,128.236 C274.682,131.726 272.659,137.337 271.326,141.797 C270.508,144.533 273.353,146.924 275.907,145.647 L285.688,140.756 L283.334,140.975 L294.744,144.235 C296.827,144.83 298.9,143.266 298.9,141.101 C298.9,135.366 294.26,130.152 287.781,125.426 L289.113,128.263 C290.299,109.254 282.599,93.544 272.852,87.764 L271.189,90.569 L274.352,91.358 C275.17,88.078 276.202,85.192 276.491,84.96 C278.342,83.473 278.034,80.569 275.911,79.504 C270.321,76.7 265.91,77.978 261.139,81.399 L263.039,84.048 L264.613,81.194 Z M261.465,86.903 C262.565,87.51 263.917,87.43 264.938,86.698 C267.943,84.544 270.144,83.906 272.987,85.332 L274.449,82.418 L272.408,79.876 C270.435,81.461 269.329,84.555 268.026,89.78 C267.677,91.177 268.287,92.638 269.526,93.373 C277.098,97.863 283.643,111.217 282.606,127.857 C282.537,128.968 283.039,130.038 283.939,130.694 C288.71,134.174 292.38,138.298 292.38,141.101 L296.536,137.966 L285.125,134.706 C284.341,134.482 283.501,134.56 282.772,134.924 L272.991,139.815 L274.449,142.731 L277.573,143.665 C278.808,139.534 280.722,134.225 282.257,131.144 C282.8,130.055 282.691,128.754 281.975,127.771 C281.679,127.365 280.439,125.651 280.121,125.214 C279.32,124.113 278.638,123.187 277.943,122.266 C276.139,119.871 274.424,117.734 272.638,115.695 C266.437,108.617 260.01,103.46 252.843,100.584 C251.266,99.951 249.468,100.635 248.71,102.155 C246.567,106.458 245.108,109.895 245.108,111.759 L248.368,111.759 L251.397,110.553 C251.515,110.849 250.927,109.395 250.728,108.88 C250.398,108.025 250.093,107.174 249.806,106.286 C249.107,104.125 248.599,101.997 248.343,99.946 C248.192,98.733 247.375,97.706 246.226,97.287 C245.299,96.948 244.181,96.562 242.854,96.119 C242.614,96.039 242.367,95.957 242.114,95.873 C240.862,95.459 236.886,94.172 236.362,93.997 C235.901,93.828 235.325,93.533 234.906,93.233 C234.728,93.106 234.601,92.994 234.534,92.918 C234.56,92.947 234.616,93.041 234.673,93.234 C234.889,93.962 234.594,94.686 234.343,94.875 C234.766,94.557 235.87,94.137 237.643,93.756 C238.439,93.585 239.142,93.122 239.614,92.46 C241.288,90.108 241.64,89.642 242.698,88.518 C247.418,83.5 253.048,82.263 261.465,86.903 Z" />
        </g>
        <g id="Regular-S">
            <path d="M446.738,90.569 C446.738,88.768 448.198,87.309 449.998,87.309 C451.799,87.309 453.258,88.768 453.258,90.569 C453.258,92.369 451.799,93.829 449.998,93.829 C448.198,93.829 446.738,92.369 446.738,90.569 Z" />
            <path d="M464.613,81.194 C453.437,75.031 444.608,76.971 437.949,84.05 C437.175,84.873 436.461,85.732 435.751,86.672 C435.481,87.029 435.221,87.384 434.933,87.788 C434.788,87.991 434.359,88.598 434.302,88.678 L436.272,87.381 C430.461,88.631 427.229,91.063 428.422,95.087 C429.129,97.472 431.489,99.159 434.211,100.152 C434.855,100.369 438.845,101.66 440.067,102.064 C440.315,102.146 440.555,102.225 440.789,102.303 C442.063,102.729 443.129,103.097 443.99,103.411 L445.108,100.349 L441.873,100.752 C442.185,103.251 442.785,105.767 443.601,108.291 C443.929,109.304 444.274,110.268 444.647,111.231 C444.867,111.8 445.474,113.303 445.34,112.966 C446.669,116.303 451.628,115.352 451.628,111.759 C451.628,111.9 451.688,111.649 451.813,111.277 C451.991,110.749 452.255,110.073 452.587,109.289 C453.151,107.961 453.884,106.392 454.547,105.063 L451.628,103.609 L450.414,106.635 C456.481,109.07 462.15,113.618 467.733,119.992 C469.404,121.898 471.022,123.914 472.736,126.189 C473.405,127.078 474.067,127.975 474.848,129.049 C475.159,129.477 476.401,131.193 476.704,131.609 L476.422,128.236 C474.682,131.726 472.659,137.337 471.326,141.797 C470.508,144.533 473.353,146.924 475.907,145.647 L485.688,140.756 L483.334,140.975 L494.744,144.235 C496.827,144.83 498.9,143.266 498.9,141.101 C498.9,135.366 494.26,130.152 487.781,125.426 L489.113,128.263 C490.299,109.254 482.599,93.544 472.852,87.764 L471.189,90.569 L474.352,91.358 C475.17,88.078 476.202,85.192 476.491,84.96 C478.342,83.473 478.034,80.569 475.911,79.504 C470.321,76.7 465.91,77.978 461.139,81.399 L463.039,84.048 L464.613,81.194 Z M461.465,86.903 C462.565,87.51 463.917,87.43 464.938,86.698 C467.943,84.544 470.144,83.906 472.987,85.332 L474.449,82.418 L472.408,79.876 C470.435,81.461 469.329,84.555 468.026,89.78 C467.677,91.177 468.287,92.638 469.526,93.373 C477.098,97.863 483.643,111.217 482.606,127.857 C482.537,128.968 483.039,130.038 483.939,130.694 C488.71,134.174 492.38,138.298 492.38,141.101 L496.536,137.966 L485.125,134.706 C484.341,134.482 483.501,134.56 482.772,134.924 L472.991,139.815 L474.449,142.731 L477.573,143.665 C478.808,139.534 480.722,134.225 482.257,131.144 C482.8,130.055 482.691,128.754 481.975,127.771 C481.679,127.365 480.439,125.651 480.121,125.214 C479.32,124.113 478.638,123.187 477.943,122.266 C476.139,119.871 474.424,117.734 472.638,115.695 C466.437,108.617 460.01,103.46 452.843,100.584 C451.266,99.951 449.468,100.635 448.71,102.155 C446.567,106.458 445.108,109.895 445.108,111.759 L448.368,111.759 L451.397,110.553 C451.515,110.849 450.927,109.395 450.728,108.88 C450.398,108.025 450.093,107.174 449.806,106.286 C449.107,104.125 448.599,101.997 448.343,99.946 C448.192,98.733 447.375,97.706 446.226,97.287 C445.299,96.948 444.181,96.562 442.854,96.119 C442.614,96.039 442.367,95.957 442.114,95.873 C440.862,95.459 436.886,94.172 436.362,93.997 C435.901,93.828 435.325,93.533 434.906,93.233 C434.728,93.106 434.601,92.994 434.534,92.918 C434.56,92.947 434.616,93.041 434.673,93.234 C434.889,93.962 434.594,94.686 434.343,94.875 C434.767,94.557 435.87,94.137 437.643,93.756 C438.439,93.585 439.142,93.122 439.614,92.46 C441.288,90.108 441.64,89.642 442.698,88.518 C447.418,83.5 453.048,82.263 461.465,86.903 Z" />
        </g>
        <g id="Black-S">
            <path d="M646.738,90.569 C646.738,88.768 648.198,87.309 649.998,87.309 C651.799,87.309 653.258,88.768 653.258,90.569 C653.258,92.369 651.799,93.829 649.998,93.829 C648.198,93.829 646.738,92.369 646.738,90.569 Z" />
            <path d="M664.613,81.194 C653.437,75.031 644.608,76.971 637.949,84.05 C637.175,84.873 636.461,85.732 635.751,86.672 C635.481,87.029 635.221,87.384 634.933,87.788 C634.788,87.991 634.359,88.598 634.302,88.678 L636.273,87.381 C630.461,88.631 627.229,91.063 628.422,95.087 C629.129,97.472 631.489,99.159 634.211,100.152 C634.856,100.369 638.845,101.66 640.067,102.064 C640.315,102.146 640.555,102.225 640.789,102.303 C642.063,102.729 643.129,103.097 643.99,103.411 L645.108,100.349 L641.873,100.752 C642.185,103.251 642.785,105.767 643.601,108.291 C643.929,109.304 644.274,110.268 644.647,111.231 C644.867,111.8 645.474,113.303 645.34,112.966 C646.669,116.303 651.628,115.352 651.628,111.759 C651.628,111.9 651.688,111.649 651.813,111.277 C651.991,110.749 652.255,110.073 652.587,109.289 C653.151,107.961 653.884,106.392 654.547,105.063 L651.628,103.609 L650.414,106.635 C656.481,109.07 662.15,113.618 667.733,119.992 C669.404,121.898 671.022,123.914 672.736,126.189 C673.405,127.078 674.067,127.975 674.848,129.049 C675.159,129.477 676.401,131.193 676.704,131.609 L676.422,128.236 C674.682,131.726 672.66,137.337 671.326,141.797 C670.508,144.533 673.353,146.924 675.907,145.647 L685.688,140.756 L683.334,140.975 L694.744,144.235 C696.827,144.83 698.9,143.266 698.9,141.101 C698.9,135.366 694.26,130.152 687.781,125.426 L689.114,128.263 C690.299,109.254 682.599,93.544 672.852,87.764 L671.189,90.569 L674.352,91.358 C675.17,88.078 676.202,85.192 676.491,84.96 C678.342,83.473 678.034,80.569 675.911,79.504 C670.321,76.7 665.91,77.978 661.139,81.399 L663.039,84.048 L664.613,81.194 Z M661.465,86.903 C662.565,87.51 663.917,87.43 664.938,86.698 C667.943,84.544 670.144,83.906 672.987,85.332 L674.449,82.418 L672.408,79.876 C670.435,81.461 669.329,84.555 668.026,89.78 C667.677,91.177 668.287,92.638 669.526,93.373 C677.098,97.863 683.643,111.217 682.606,127.857 C682.537,128.968 683.039,130.038 683.939,130.694 C688.71,134.174 692.38,138.298 692.38,141.101 L696.536,137.966 L685.125,134.706 C684.341,134.482 683.501,134.56 682.772,134.924 L672.991,139.815 L674.449,142.731 L677.573,143.665 C678.808,139.534 680.722,134.225 682.257,131.144 C682.8,130.055 682.691,128.754 681.975,127.771 C681.679,127.365 680.439,125.651 680.121,125.214 C679.32,124.113 678.638,123.187 677.943,122.266 C676.139,119.871 674.424,117.734 672.638,115.695 C666.438,108.617 660.01,103.46 652.843,100.584 C651.266,99.951 649.468,100.635 648.71,102.155 C646.567,106.458 645.108,109.895 645.108,111.759 L648.368,111.759 L651.397,110.553 C651.515,110.849 650.927,109.395 650.729,108.88 C650.398,108.025 650.093,107.174 649.806,106.286 C649.107,104.125 648.599,101.997 648.343,99.946 C648.192,98.733 647.375,97.706 646.226,97.287 C645.3,96.948 644.181,96.562 642.854,96.119 C642.614,96.039 642.367,95.957 642.114,95.873 C640.862,95.459 636.886,94.172 636.362,93.997 C635.901,93.828 635.325,93.533 634.906,93.233 C634.728,93.106 634.601,92.994 634.534,92.918 C634.56,92.947 634.616,93.041 634.673,93.234 C634.889,93.962 634.594,94.686 634.343,94.875 C634.767,94.557 635.87,94.137 637.643,93.756 C638.439,93.585 639.142,93.122 639.614,92.46 C641.288,90.108 641.64,89.642 642.698,88.518 C647.418,83.5 653.049,82.263 661.465,86.903 Z" />
        </g>
    </g>
</svg>