<?xml version="1.0" encoding="UTF-8"?>
<svg height="600" width="800" xmlns="http://www.w3.org/2000/svg" xmlns:xlink="http://www.w3.org/1999/xlink">
    <g id="Notes" font-family="'LucidaGrande', 'Lucida Grande', sans-serif" font-size="13">
        <rect fill="white" height="600.0" width="800.0" x="0.0" y="0.0" />
        <g font-size="13">
            <text x="18.0" y="176.0">Small</text>
            <text x="18.0" y="376.0">Medium</text>
            <text x="18.0" y="576.0">Large</text>
        </g>
        <g font-size="9">
            <text x="250.0" y="30.0">Ultralight</text>
            <text x="450.0" y="30.0">Regular</text>
            <text x="650.0" y="30.0">Black</text>
            <text id="template-version" fill="#505050" text-anchor="end" x="785.0" y="575.0">Template v.3.0</text>
            <a href="https://wangchujiang.com/#/app">
                <text fill="#505050" text-anchor="end" x="785.0" y="590.0">https://wangchujiang.com/#/app</text>
            </a>
        </g>
    </g>
    <g id="Guides" stroke="rgb(39, 170, 225)" stroke-width="0.5">
        <path id="Capline-S" d="M18,76 l800,0" />
        <path id="H-reference" d="M85,145.755 L87.685,145.755 L113.369,79.287 L114.052,79.287 L114.052,76 L112.148,76 L85,145.755 Z M95.693,121.536 L130.996,121.536 L130.263,119.313 L96.474,119.313 L95.693,121.536 Z M139.15,145.755 L141.787,145.755 L114.638,76 L113.466,76 L113.466,79.287 L139.15,145.755 Z" stroke="none" />
        <path id="Baseline-S" d="M18,146 l800,0" />
        <path id="left-margin-Ultralight-S" d="M220.016,56 l0,110" />
        <path id="right-margin-Ultralight-S" d="M309.984,56 l0,110" />
        <path id="left-margin-Regular-S" d="M420.016,56 l0,110" />
        <path id="right-margin-Regular-S" d="M509.984,56 l0,110" />
        <path id="left-margin-Black-S" d="M620.016,56 l0,110" />
        <path id="right-margin-Black-S" d="M709.984,56 l0,110" />
        <path id="Capline-M" d="M18,276 l800,0" />
        <path id="Baseline-M" d="M18,346 l800,0" />
        <path id="Capline-L" d="M18,476 l800,0" />
        <path id="Baseline-L" d="M18,546 l800,0" />
    </g>
    <g id="Symbols">
        <g id="Ultralight-S">
            <path d="M293.462,114.024 C302.162,105.314 302.157,91.211 293.452,82.515 C284.748,73.821 270.644,73.829 261.95,82.533 L240.49,103.993 C239.893,104.59 239.558,105.399 239.558,106.242 L239.558,133.278 C239.558,135.034 240.982,136.458 242.739,136.458 L269.774,136.458 C270.619,136.458 271.43,136.122 272.026,135.523 L293.464,114.022 Z M288.959,109.531 L267.522,131.032 L269.774,130.097 L242.739,130.097 L245.919,133.278 L245.919,106.242 L244.988,108.491 L266.449,87.03 C272.662,80.81 282.738,80.805 288.956,87.016 C295.175,93.228 295.179,103.304 288.961,109.529 Z M275.477,96.042 L230.948,140.57 C229.706,141.812 229.706,143.826 230.948,145.068 C232.19,146.311 234.204,146.311 235.446,145.068 L279.975,100.54 C281.217,99.298 281.217,97.284 279.975,96.042 C278.733,94.8 276.719,94.8 275.477,96.042 Z M282.496,117.374 L255.461,117.374 C253.705,117.374 252.281,118.798 252.281,120.555 C252.281,122.312 253.705,123.736 255.461,123.736 L282.496,123.736 C284.253,123.736 285.677,122.312 285.677,120.555 C285.677,118.798 284.253,117.374 282.496,117.374 Z" />
        </g>
        <g id="Regular-S">
            <path d="M493.462,114.024 C502.162,105.314 502.157,91.211 493.452,82.515 C484.748,73.821 470.644,73.829 461.95,82.533 L440.49,103.993 C439.893,104.59 439.558,105.399 439.558,106.242 L439.558,133.278 C439.558,135.034 440.982,136.458 442.739,136.458 L469.774,136.458 C470.619,136.458 471.43,136.122 472.026,135.523 L493.464,114.022 Z M488.959,109.531 L467.522,131.032 L469.774,130.097 L442.739,130.097 L445.919,133.278 L445.919,106.242 L444.988,108.491 L466.449,87.03 C472.662,80.81 482.738,80.805 488.956,87.016 C495.175,93.228 495.179,103.304 488.961,109.529 Z M475.477,96.042 L430.948,140.57 C429.706,141.812 429.706,143.826 430.948,145.068 C432.19,146.311 434.204,146.311 435.446,145.068 L479.975,100.54 C481.217,99.298 481.217,97.284 479.975,96.042 C478.732,94.8 476.719,94.8 475.477,96.042 Z M482.496,117.374 L455.461,117.374 C453.705,117.374 452.281,118.798 452.281,120.555 C452.281,122.312 453.705,123.736 455.461,123.736 L482.496,123.736 C484.253,123.736 485.677,122.312 485.677,120.555 C485.677,118.798 484.253,117.374 482.496,117.374 Z" />
        </g>
        <g id="Black-S">
            <path d="M693.462,114.024 C702.162,105.314 702.157,91.211 693.452,82.515 C684.748,73.821 670.644,73.829 661.95,82.533 L640.49,103.993 C639.893,104.59 639.558,105.399 639.558,106.242 L639.558,133.278 C639.558,135.034 640.982,136.458 642.739,136.458 L669.774,136.458 C670.619,136.458 671.43,136.122 672.026,135.523 L693.464,114.022 Z M688.959,109.531 L667.522,131.032 L669.774,130.097 L642.739,130.097 L645.919,133.278 L645.919,106.242 L644.988,108.491 L666.449,87.03 C672.662,80.81 682.738,80.805 688.956,87.016 C695.175,93.228 695.179,103.304 688.961,109.529 Z M675.477,96.042 L630.948,140.57 C629.706,141.812 629.706,143.826 630.948,145.068 C632.19,146.311 634.204,146.311 635.446,145.068 L679.975,100.54 C681.217,99.298 681.217,97.284 679.975,96.042 C678.732,94.8 676.719,94.8 675.477,96.042 Z M682.496,117.374 L655.461,117.374 C653.705,117.374 652.281,118.798 652.281,120.555 C652.281,122.312 653.705,123.736 655.461,123.736 L682.496,123.736 C684.253,123.736 685.677,122.312 685.677,120.555 C685.677,118.798 684.253,117.374 682.496,117.374 Z" />
        </g>
    </g>
</svg>