<?xml version="1.0" encoding="UTF-8"?>
<svg height="600" width="800" xmlns="http://www.w3.org/2000/svg" xmlns:xlink="http://www.w3.org/1999/xlink">
    <g id="Notes" font-family="'LucidaGrande', 'Lucida Grande', sans-serif" font-size="13">
        <rect fill="white" height="600.0" width="800.0" x="0.0" y="0.0" />
        <g font-size="13">
            <text x="18.0" y="176.0">Small</text>
            <text x="18.0" y="376.0">Medium</text>
            <text x="18.0" y="576.0">Large</text>
        </g>
        <g font-size="9">
            <text x="250.0" y="30.0">Ultralight</text>
            <text x="450.0" y="30.0">Regular</text>
            <text x="650.0" y="30.0">Black</text>
            <text id="template-version" fill="#505050" text-anchor="end" x="785.0" y="575.0">Template v.3.0</text>
            <a href="https://wangchujiang.com/#/app">
                <text fill="#505050" text-anchor="end" x="785.0" y="590.0">https://wangchujiang.com/#/app</text>
            </a>
        </g>
    </g>
    <g id="Guides" stroke="rgb(39, 170, 225)" stroke-width="0.5">
        <path id="Capline-S" d="M18,76 l800,0" />
        <path id="H-reference" d="M85,145.755 L87.685,145.755 L113.369,79.287 L114.052,79.287 L114.052,76 L112.148,76 L85,145.755 Z M95.693,121.536 L130.996,121.536 L130.263,119.313 L96.474,119.313 L95.693,121.536 Z M139.15,145.755 L141.787,145.755 L114.638,76 L113.466,76 L113.466,79.287 L139.15,145.755 Z" stroke="none" />
        <path id="Baseline-S" d="M18,146 l800,0" />
        <path id="left-margin-Ultralight-S" d="M221,56 l0,110" />
        <path id="right-margin-Ultralight-S" d="M309,56 l0,110" />
        <path id="left-margin-Regular-S" d="M421,56 l0,110" />
        <path id="right-margin-Regular-S" d="M509,56 l0,110" />
        <path id="left-margin-Black-S" d="M621,56 l0,110" />
        <path id="right-margin-Black-S" d="M709,56 l0,110" />
        <path id="Capline-M" d="M18,276 l800,0" />
        <path id="Baseline-M" d="M18,346 l800,0" />
        <path id="Capline-L" d="M18,476 l800,0" />
        <path id="Baseline-L" d="M18,546 l800,0" />
    </g>
    <g id="Symbols">
        <g id="Ultralight-S">
            <path d="M267.824,130.237 C267.792,129.838 267.773,129.581 267.773,129.581 C267.773,129.581 266.567,121.438 265.128,119.007 C264.902,118.621 265.152,117.042 265.788,114.698 C266.16,115.337 267.724,118.084 268.04,118.969 C268.395,119.967 268.467,120.253 268.467,120.253 C268.467,120.253 267.608,115.833 266.201,113.254 C266.543,112.105 266.908,110.962 267.297,109.828 C267.829,110.763 269.108,113.032 269.39,113.82 C269.446,113.98 269.495,114.117 269.538,114.243 C269.55,114.168 269.565,114.094 269.578,114.017 C269.256,112.648 268.621,110.265 267.754,108.503 C269.679,98.48 276.247,85.084 282.979,79.107 L239.059,79.107 C236.113,79.107 233.705,81.516 233.705,84.46 L233.705,132.897 C233.705,135.841 236.115,138.25 239.059,138.25 L267.987,138.25 C267.768,135.585 267.714,132.909 267.825,130.237" />
            <path d="M293.227,77.521 C290.219,74.838 286.574,75.917 282.982,79.106 C282.427,79.603 281.895,80.124 281.388,80.67 C275.236,87.192 269.529,99.276 267.757,108.503 C268.447,109.905 268.987,111.692 269.339,113.057 C269.431,113.407 269.514,113.737 269.581,114.017 C269.737,114.677 269.82,115.108 269.82,115.108 C269.82,115.108 269.765,114.899 269.538,114.243 C269.496,114.117 269.446,113.978 269.391,113.82 C269.367,113.752 269.333,113.67 269.297,113.583 C268.895,112.652 267.784,110.682 267.297,109.827 C266.88,111.058 266.511,112.212 266.201,113.254 C267.611,115.832 268.47,120.252 268.47,120.252 C268.47,120.252 268.395,119.966 268.043,118.969 C267.726,118.082 266.161,115.337 265.791,114.698 C265.154,117.039 264.902,118.62 265.131,119.007 C265.573,119.752 265.992,121.043 266.361,122.465 C267.195,125.674 267.776,129.581 267.776,129.581 C267.776,129.581 267.793,129.838 267.827,130.237 C267.716,132.909 267.77,135.585 267.989,138.25 C268.265,141.591 268.784,144.464 269.446,146 L269.899,145.754 C268.925,142.728 268.53,138.758 268.703,134.185 C268.965,127.189 270.574,118.755 273.546,109.964 C278.572,96.692 285.543,86.045 291.922,80.961 C286.107,86.212 278.237,103.21 275.881,109.505 C273.245,116.555 271.376,123.168 270.248,129.506 C272.189,123.566 278.476,121.013 278.476,121.013 C278.476,121.013 281.559,117.208 285.163,111.778 C283.003,112.271 279.459,113.113 278.273,113.611 C276.523,114.346 276.049,114.595 276.049,114.595 C276.049,114.595 281.721,111.143 286.588,109.58 C293.278,99.042 300.567,84.069 293.227,77.521" />
        </g>
        <g id="Regular-S">
            <path d="M467.824,130.237 C467.792,129.838 467.773,129.581 467.773,129.581 C467.773,129.581 466.567,121.438 465.128,119.007 C464.902,118.621 465.152,117.042 465.788,114.698 C466.16,115.337 467.724,118.084 468.04,118.969 C468.395,119.967 468.467,120.253 468.467,120.253 C468.467,120.253 467.608,115.833 466.201,113.254 C466.543,112.105 466.908,110.962 467.297,109.828 C467.829,110.763 469.108,113.032 469.39,113.82 C469.446,113.98 469.495,114.117 469.538,114.243 C469.55,114.168 469.565,114.094 469.578,114.017 C469.256,112.648 468.621,110.265 467.754,108.503 C469.679,98.48 476.247,85.084 482.979,79.107 L439.059,79.107 C436.113,79.107 433.705,81.516 433.705,84.46 L433.705,132.897 C433.705,135.841 436.115,138.25 439.059,138.25 L467.987,138.25 C467.768,135.585 467.714,132.909 467.825,130.237" />
            <path d="M493.227,77.521 C490.219,74.838 486.574,75.917 482.982,79.106 C482.427,79.603 481.895,80.124 481.388,80.67 C475.236,87.192 469.529,99.276 467.757,108.503 C468.447,109.905 468.987,111.692 469.339,113.057 C469.431,113.407 469.514,113.737 469.581,114.017 C469.737,114.677 469.82,115.108 469.82,115.108 C469.82,115.108 469.765,114.899 469.538,114.243 C469.496,114.117 469.446,113.978 469.391,113.82 C469.367,113.752 469.333,113.67 469.297,113.583 C468.895,112.652 467.784,110.682 467.297,109.827 C466.88,111.058 466.511,112.212 466.201,113.254 C467.611,115.832 468.47,120.252 468.47,120.252 C468.47,120.252 468.395,119.966 468.043,118.969 C467.726,118.082 466.161,115.337 465.791,114.698 C465.154,117.039 464.902,118.62 465.131,119.007 C465.573,119.752 465.992,121.043 466.361,122.465 C467.195,125.674 467.776,129.581 467.776,129.581 C467.776,129.581 467.793,129.838 467.827,130.237 C467.716,132.909 467.77,135.585 467.989,138.25 C468.265,141.591 468.784,144.464 469.446,146 L469.899,145.754 C468.925,142.728 468.53,138.758 468.703,134.185 C468.965,127.189 470.574,118.755 473.546,109.964 C478.572,96.692 485.543,86.045 491.922,80.961 C486.107,86.212 478.237,103.21 475.881,109.505 C473.245,116.555 471.376,123.168 470.248,129.506 C472.189,123.566 478.476,121.013 478.476,121.013 C478.476,121.013 481.559,117.208 485.163,111.778 C483.003,112.271 479.459,113.113 478.273,113.611 C476.523,114.346 476.049,114.595 476.049,114.595 C476.049,114.595 481.721,111.143 486.588,109.58 C493.278,99.042 500.567,84.069 493.227,77.521" />
        </g>
        <g id="Black-S">
            <path d="M667.824,130.237 C667.792,129.838 667.773,129.581 667.773,129.581 C667.773,129.581 666.567,121.438 665.128,119.007 C664.902,118.621 665.152,117.042 665.788,114.698 C666.16,115.337 667.724,118.084 668.04,118.969 C668.395,119.967 668.467,120.253 668.467,120.253 C668.467,120.253 667.608,115.833 666.201,113.254 C666.543,112.105 666.908,110.962 667.297,109.828 C667.829,110.763 669.108,113.032 669.39,113.82 C669.446,113.98 669.495,114.117 669.538,114.243 C669.55,114.168 669.565,114.094 669.578,114.017 C669.256,112.648 668.621,110.265 667.754,108.503 C669.679,98.48 676.247,85.084 682.979,79.107 L639.059,79.107 C636.113,79.107 633.705,81.516 633.705,84.46 L633.705,132.897 C633.705,135.841 636.115,138.25 639.059,138.25 L667.987,138.25 C667.768,135.585 667.714,132.909 667.825,130.237" />
            <path d="M693.227,77.521 C690.219,74.838 686.574,75.917 682.982,79.106 C682.427,79.603 681.895,80.124 681.388,80.67 C675.236,87.192 669.529,99.276 667.756,108.503 C668.447,109.905 668.987,111.692 669.339,113.057 C669.431,113.407 669.514,113.737 669.581,114.017 C669.737,114.677 669.82,115.108 669.82,115.108 C669.82,115.108 669.765,114.899 669.538,114.243 C669.496,114.117 669.446,113.978 669.391,113.82 C669.367,113.752 669.333,113.67 669.297,113.583 C668.895,112.652 667.784,110.682 667.297,109.827 C666.88,111.058 666.511,112.212 666.201,113.254 C667.611,115.832 668.47,120.252 668.47,120.252 C668.47,120.252 668.395,119.966 668.043,118.969 C667.726,118.082 666.161,115.337 665.791,114.698 C665.154,117.039 664.902,118.62 665.131,119.007 C665.573,119.752 665.992,121.043 666.361,122.465 C667.195,125.674 667.776,129.581 667.776,129.581 C667.776,129.581 667.793,129.838 667.827,130.237 C667.716,132.909 667.77,135.585 667.99,138.25 C668.265,141.591 668.784,144.464 669.446,146 L669.899,145.754 C668.925,142.728 668.53,138.758 668.703,134.185 C668.965,127.189 670.574,118.755 673.546,109.964 C678.572,96.692 685.543,86.045 691.922,80.961 C686.107,86.212 678.237,103.21 675.881,109.505 C673.245,116.555 671.376,123.168 670.248,129.506 C672.189,123.566 678.476,121.013 678.476,121.013 C678.476,121.013 681.559,117.208 685.163,111.778 C683.003,112.271 679.459,113.113 678.273,113.611 C676.523,114.346 676.049,114.595 676.049,114.595 C676.049,114.595 681.721,111.143 686.588,109.58 C693.278,99.042 700.567,84.069 693.227,77.521" />
        </g>
    </g>
</svg>