<?xml version="1.0" encoding="UTF-8"?>
<svg height="600" width="800" xmlns="http://www.w3.org/2000/svg" xmlns:xlink="http://www.w3.org/1999/xlink">
    <g id="Notes" font-family="'LucidaGrande', 'Lucida Grande', sans-serif" font-size="13">
        <rect fill="white" height="600.0" width="800.0" x="0.0" y="0.0" />
        <g font-size="13">
            <text x="18.0" y="176.0">Small</text>
            <text x="18.0" y="376.0">Medium</text>
            <text x="18.0" y="576.0">Large</text>
        </g>
        <g font-size="9">
            <text x="250.0" y="30.0">Ultralight</text>
            <text x="450.0" y="30.0">Regular</text>
            <text x="650.0" y="30.0">Black</text>
            <text id="template-version" fill="#505050" text-anchor="end" x="785.0" y="575.0">Template v.3.0</text>
        </g>
    </g>
    <g id="Guides" stroke="rgb(39, 170, 225)" stroke-width="0.5">
        <path id="Capline-S" d="M18,76 l800,0" />
        <path id="H-reference" d="M85,145.755 L87.685,145.755 L113.369,79.287 L114.052,79.287 L114.052,76 L112.148,76 L85,145.755 Z M95.693,121.536 L130.996,121.536 L130.263,119.313 L96.474,119.313 L95.693,121.536 Z M139.15,145.755 L141.787,145.755 L114.638,76 L113.466,76 L113.466,79.287 L139.15,145.755 Z" stroke="none" />
        <path id="Baseline-S" d="M18,146 l800,0" />
        <path id="left-margin-Ultralight-S" d="M220,56 l0,110" />
        <path id="right-margin-Ultralight-S" d="M310,56 l0,110" />
        <path id="left-margin-Regular-S" d="M420,56 l0,110" />
        <path id="right-margin-Regular-S" d="M510,56 l0,110" />
        <path id="left-margin-Black-S" d="M620,56 l0,110" />
        <path id="right-margin-Black-S" d="M710,56 l0,110" />
        <path id="Capline-M" d="M18,276 l800,0" />
        <path id="Baseline-M" d="M18,346 l800,0" />
        <path id="Capline-L" d="M18,476 l800,0" />
        <path id="Baseline-L" d="M18,546 l800,0" />
    </g>
    <g id="Symbols">
        <g id="Ultralight-S">
            <path d="M242.25,117.56 L242.34,117.03 L242.42,116.49 L242.51,115.95 L242.60,115.41 L242.69,114.88 L242.77,114.34 L242.87,113.75 L243.04,113.16 L243.22,112.62 L243.40,112.11 L243.57,111.59 L243.75,111.07 L243.92,110.56 L244.10,110.04 L244.27,109.52 L244.48,108.94 L244.76,108.40 L245.01,107.92 L245.26,107.44 L245.51,106.96 L245.77,106.47 L246.02,105.99 L246.27,105.51 L246.52,105.03 L246.79,104.51 L247.12,104.00 L247.46,103.53 L247.77,103.09 L248.09,102.65 L248.41,102.21 L248.73,101.77 L249.05,101.33 L249.37,100.89 L249.69,100.45 L250.03,99.97 L250.42,99.52 L250.81,99.11 L251.18,98.71 L251.56,98.31 L251.93,97.92 L252.30,97.52 L252.67,97.12 L253.05,96.73 L253.42,96.33 L253.80,95.93 L254.21,95.50 L254.67,95.12 L255.08,94.77 L255.50,94.42 L255.92,94.07 L256.34,93.72 L256.75,93.37 L257.17,93.02 L257.59,92.67 L258.00,92.32 L258.42,91.97 L258.86,91.61 L259.33,91.25 L259.81,90.94 L260.26,90.63 L260.71,90.33 L261.16,90.03 L261.62,89.73 L262.07,89.43 L262.52,89.12 L262.98,88.82 L263.43,88.52 L263.88,88.22 L264.33,87.91 L264.82,87.59 L265.33,87.31 L265.82,87.05 L266.30,86.79 L266.78,86.53 L267.26,86.28 L267.74,86.02 L268.22,85.77 L268.70,85.51 L269.18,85.25 L269.66,85.00 L270.14,84.74 L270.62,84.49 L271.12,84.22 L271.64,83.96 L272.17,83.74 L272.67,83.53 L273.17,83.32 L273.67,83.10 L274.17,82.89 L274.67,82.68 L275.18,82.47 L275.68,82.26 L276.18,82.04 L276.68,81.83 L277.18,81.62 L277.68,81.41 L278.19,81.20 L278.70,80.98 L279.25,80.77 L279.78,80.60 L280.30,80.43 L280.82,80.26 L281.34,80.09 L281.85,79.92 L282.37,79.75 L282.89,79.58 L283.41,79.41 L283.92,79.24 L284.44,79.08 L284.96,78.91 L285.48,78.74 L285.99,78.57 L286.51,78.40 L287.04,78.23 L287.59,78.06 L288.14,77.92 L288.67,77.79 L289.20,77.67 L289.73,77.54 L290.26,77.41 L290.79,77.28 L291.32,77.15 L291.85,77.02 L292.37,76.89 L292.90,76.76 L293.43,76.63 L293.96,76.50 L294.49,76.37 L295.02,76.24 L295.58,76.11 L296.48,75.96 L297.55,76.61 L297.75,77.61 L297.75,78.24 L297.75,78.78 L297.76,79.33 L297.76,79.87 L297.76,80.42 L297.76,80.96 L297.77,81.51 L297.77,82.05 L297.77,82.65 L297.71,83.23 L297.65,83.77 L297.60,84.32 L297.54,84.86 L297.48,85.40 L297.43,85.94 L297.37,86.48 L297.32,87.02 L297.26,87.56 L297.20,88.14 L297.09,88.73 L296.97,89.27 L296.86,89.81 L296.74,90.34 L296.62,90.87 L296.51,91.40 L296.39,91.93 L296.27,92.46 L296.16,93.00 L296.03,93.56 L295.86,94.13 L295.68,94.67 L295.50,95.18 L295.32,95.69 L295.14,96.21 L294.96,96.72 L294.78,97.24 L294.60,97.75 L294.43,98.27 L294.23,98.82 L293.99,99.36 L293.74,99.87 L293.50,100.35 L293.26,100.84 L293.02,101.33 L292.78,101.82 L292.54,102.31 L292.30,102.80 L292.06,103.29 L291.80,103.82 L291.49,104.32 L291.19,104.79 L290.89,105.25 L290.59,105.70 L290.29,106.16 L290.00,106.61 L289.70,107.07 L289.40,107.53 L289.11,107.98 L288.78,108.48 L288.40,108.94 L288.05,109.36 L287.70,109.78 L287.35,110.20 L287.00,110.61 L286.65,111.03 L286.30,111.45 L285.95,111.87 L285.60,112.29 L285.22,112.74 L284.79,113.15 L284.39,113.53 L284.00,113.90 L283.60,114.28 L283.21,114.65 L282.81,115.03 L282.42,115.40 L282.02,115.78 L281.63,116.15 L281.20,116.56 L280.74,116.92 L280.30,117.26 L279.87,117.59 L279.44,117.92 L279.00,118.25 L278.57,118.58 L278.14,118.91 L277.70,119.24 L277.27,119.57 L276.83,119.91 L276.35,120.25 L275.86,120.55 L275.39,120.84 L274.93,121.12 L274.46,121.41 L274.00,121.69 L273.54,121.98 L273.07,122.26 L272.61,122.55 L272.14,122.83 L271.66,123.13 L271.15,123.41 L270.64,123.66 L270.15,123.90 L269.66,124.14 L269.17,124.38 L268.69,124.62 L268.20,124.86 L267.71,125.10 L267.22,125.34 L266.73,125.58 L266.24,125.82 L265.72,126.07 L265.18,126.29 L264.67,126.48 L264.16,126.68 L263.65,126.88 L263.14,127.07 L262.63,127.27 L262.13,127.46 L261.62,127.66 L261.11,127.86 L260.60,128.05 L260.09,128.25 L259.56,128.46 L259.00,128.62 L258.48,128.78 L257.95,128.93 L257.43,129.09 L256.91,129.24 L256.39,129.40 L255.87,129.55 L255.34,129.71 L254.82,129.86 L254.30,130.02 L253.78,130.17 L253.25,130.33 L252.69,130.48 L252.13,130.60 L251.60,130.72 L251.07,130.83 L250.54,130.95 L250.00,131.06 L249.47,131.18 L248.94,131.29 L248.41,131.41 L247.88,131.52 L247.34,131.64 L246.81,131.75 L246.10,131.91 L245.02,131.69 L244.49,130.83 L244.26,130.25 L244.06,129.74 L243.86,129.24 L243.67,128.73 L243.47,128.22 L243.26,127.71 L243.05,127.12 L242.93,126.52 L242.83,125.98 L242.72,125.45 L242.62,124.91 L242.51,124.38 L242.41,123.85 L242.30,123.29 L242.20,122.68 L242.20,122.07 L242.19,121.52 L242.18,120.98 L242.18,120.44 L242.17,119.89 L242.16,119.35 L242.16,118.80 L242.15,118.18 Z M243.95,118.31 L243.96,118.78 L243.96,119.32 L243.97,119.87 L243.98,120.41 L243.98,120.96 L243.99,121.50 L244.00,122.05 L244.00,122.53 L244.07,122.98 L244.18,123.50 L244.28,124.03 L244.39,124.57 L244.49,125.10 L244.60,125.64 L244.70,126.17 L244.79,126.64 L244.95,127.07 L245.14,127.57 L245.34,128.07 L245.54,128.58 L245.74,129.09 L245.94,129.60 L246.11,130.03 L246.14,130.08 L246.08,130.07 L246.43,129.99 L246.96,129.88 L247.50,129.76 L248.03,129.65 L248.56,129.53 L249.09,129.42 L249.62,129.30 L250.16,129.19 L250.69,129.07 L251.22,128.96 L251.75,128.84 L252.26,128.73 L252.75,128.60 L253.27,128.45 L253.79,128.29 L254.31,128.14 L254.83,127.98 L255.35,127.83 L255.88,127.67 L256.40,127.52 L256.92,127.36 L257.44,127.21 L257.96,127.05 L258.48,126.90 L258.97,126.75 L259.45,126.57 L259.95,126.37 L260.46,126.18 L260.97,125.98 L261.48,125.78 L261.99,125.59 L262.49,125.39 L263.00,125.20 L263.51,125.00 L264.02,124.80 L264.52,124.61 L264.99,124.42 L265.45,124.20 L265.94,123.96 L266.43,123.72 L266.92,123.48 L267.40,123.24 L267.89,123.00 L268.38,122.76 L268.87,122.52 L269.36,122.28 L269.85,122.04 L270.32,121.81 L270.76,121.57 L271.20,121.30 L271.67,121.01 L272.13,120.73 L272.59,120.44 L273.06,120.16 L273.52,119.87 L273.99,119.59 L274.45,119.30 L274.91,119.02 L275.35,118.75 L275.76,118.46 L276.18,118.14 L276.61,117.81 L277.04,117.48 L277.48,117.15 L277.91,116.82 L278.34,116.49 L278.78,116.16 L279.21,115.83 L279.64,115.50 L280.03,115.19 L280.39,114.85 L280.78,114.47 L281.18,114.10 L281.57,113.72 L281.97,113.35 L282.36,112.97 L282.76,112.60 L283.15,112.22 L283.55,111.85 L283.90,111.50 L284.22,111.13 L284.57,110.71 L284.92,110.29 L285.27,109.88 L285.62,109.46 L285.97,109.04 L286.32,108.62 L286.66,108.21 L287.01,107.79 L287.33,107.41 L287.60,107.00 L287.89,106.54 L288.19,106.09 L288.49,105.63 L288.79,105.18 L289.08,104.72 L289.38,104.26 L289.68,103.81 L289.97,103.36 L290.23,102.94 L290.45,102.49 L290.69,102.01 L290.93,101.52 L291.17,101.03 L291.41,100.54 L291.65,100.05 L291.89,99.56 L292.13,99.07 L292.36,98.60 L292.56,98.15 L292.73,97.68 L292.90,97.16 L293.08,96.65 L293.26,96.13 L293.44,95.62 L293.62,95.10 L293.80,94.59 L293.98,94.07 L294.15,93.58 L294.29,93.11 L294.40,92.61 L294.51,92.08 L294.63,91.55 L294.75,91.01 L294.87,90.48 L294.98,89.95 L295.10,89.42 L295.22,88.89 L295.33,88.37 L295.42,87.89 L295.47,87.38 L295.53,86.84 L295.58,86.30 L295.64,85.76 L295.69,85.21 L295.75,84.67 L295.80,84.13 L295.86,83.59 L295.92,83.05 L295.97,82.55 L295.97,82.05 L295.97,81.51 L295.96,80.97 L295.96,80.42 L295.96,79.88 L295.96,79.34 L295.95,78.79 L295.95,78.25 L295.95,77.79 L295.94,77.74 L296.11,77.84 L295.94,77.87 L295.45,77.99 L294.92,78.12 L294.39,78.25 L293.86,78.38 L293.33,78.51 L292.80,78.64 L292.27,78.77 L291.74,78.90 L291.22,79.03 L290.69,79.16 L290.16,79.28 L289.63,79.41 L289.10,79.54 L288.57,79.67 L288.07,79.80 L287.58,79.94 L287.07,80.11 L286.55,80.28 L286.04,80.45 L285.52,80.62 L285.00,80.79 L284.48,80.96 L283.97,81.12 L283.45,81.29 L282.93,81.46 L282.41,81.63 L281.90,81.80 L281.38,81.97 L280.86,82.14 L280.34,82.31 L279.84,82.47 L279.37,82.65 L278.89,82.86 L278.38,83.07 L277.88,83.28 L277.38,83.49 L276.88,83.70 L276.38,83.91 L275.88,84.13 L275.37,84.34 L274.87,84.55 L274.37,84.76 L273.87,84.97 L273.37,85.19 L272.87,85.40 L272.39,85.60 L271.94,85.82 L271.47,86.07 L270.99,86.33 L270.51,86.59 L270.03,86.84 L269.55,87.10 L269.07,87.35 L268.59,87.61 L268.11,87.87 L267.63,88.12 L267.15,88.38 L266.67,88.63 L266.19,88.89 L265.76,89.13 L265.33,89.41 L264.88,89.71 L264.43,90.02 L263.98,90.32 L263.52,90.62 L263.07,90.92 L262.62,91.22 L262.16,91.53 L261.71,91.83 L261.26,92.13 L260.81,92.43 L260.37,92.72 L259.98,93.02 L259.58,93.35 L259.16,93.70 L258.74,94.05 L258.33,94.40 L257.91,94.75 L257.49,95.10 L257.07,95.45 L256.66,95.80 L256.24,96.15 L255.82,96.50 L255.44,96.82 L255.10,97.17 L254.73,97.56 L254.36,97.96 L253.99,98.36 L253.61,98.75 L253.24,99.15 L252.87,99.55 L252.49,99.94 L252.12,100.34 L251.76,100.72 L251.44,101.09 L251.15,101.50 L250.83,101.94 L250.51,102.38 L250.19,102.82 L249.87,103.26 L249.55,103.71 L249.23,104.15 L248.91,104.59 L248.61,105.01 L248.35,105.41 L248.12,105.86 L247.87,106.34 L247.61,106.82 L247.36,107.31 L247.11,107.79 L246.86,108.27 L246.61,108.75 L246.35,109.24 L246.13,109.66 L245.97,110.11 L245.80,110.62 L245.63,111.14 L245.45,111.65 L245.28,112.17 L245.10,112.68 L244.93,113.20 L244.76,113.70 L244.63,114.15 L244.55,114.63 L244.46,115.17 L244.37,115.70 L244.29,116.24 L244.20,116.78 L244.11,117.32 L244.02,117.85 Z M232.46,144.50 L234.24,142.53 L236.06,140.51 L237.94,138.44 L239.88,136.31 L241.87,134.12 L243.93,131.87 L246.05,129.55 L248.24,127.17 L250.50,124.71 L252.83,122.19 L255.24,119.58 L257.72,116.90 L260.29,114.14 L262.94,111.30 L265.68,108.37 L268.50,105.35 L271.42,102.23 L274.43,99.03 L277.54,95.72 L280.75,92.32 L284.06,88.82 L287.48,85.21 L291.00,81.49 L294.64,77.66 L294.89,77.47 L295.19,77.38 L295.50,77.40 L295.79,77.53 L296.02,77.74 L296.15,78.02 L296.19,78.33 L296.12,78.64 L295.94,78.90 L292.31,82.73 L288.79,86.44 L285.37,90.05 L282.06,93.56 L278.85,96.96 L275.75,100.26 L272.73,103.47 L269.82,106.58 L266.99,109.60 L264.26,112.53 L261.61,115.37 L259.04,118.13 L256.56,120.81 L254.15,123.41 L251.82,125.93 L249.56,128.38 L247.38,130.77 L245.26,133.08 L243.20,135.33 L241.21,137.52 L239.27,139.65 L237.40,141.72 L235.57,143.74 L233.80,145.70 L233.55,145.89 L233.26,145.99 L232.94,145.98 L232.65,145.86 L232.42,145.65 L232.27,145.38 L232.23,145.07 L232.30,144.76 Z M258.55,116.63 L271.37,119.10 L271.66,119.21 L271.89,119.42 L272.05,119.69 L272.10,120.00 L272.04,120.31 L271.88,120.58 L271.63,120.77 L271.34,120.87 L271.03,120.87 L258.21,118.40 L257.92,118.29 L257.69,118.08 L257.53,117.81 L257.48,117.50 L257.54,117.19 L257.70,116.93 L257.95,116.73 L258.24,116.63 Z M265.14,109.57 L260.82,93.42 L260.80,93.11 L260.88,92.80 L261.06,92.55 L261.31,92.37 L261.61,92.29 L261.93,92.32 L262.21,92.45 L262.43,92.67 L262.56,92.95 L266.88,109.10 L266.90,109.41 L266.82,109.71 L266.64,109.97 L266.39,110.15 L266.09,110.23 L265.77,110.20 L265.49,110.07 L265.27,109.85 Z M274.54,99.53 L288.88,102.37 L289.17,102.49 L289.40,102.69 L289.55,102.97 L289.60,103.27 L289.54,103.58 L289.38,103.85 L289.13,104.04 L288.84,104.14 L288.53,104.14 L274.19,101.30 L273.90,101.18 L273.67,100.98 L273.51,100.70 L273.47,100.40 L273.53,100.09 L273.69,99.82 L273.93,99.63 L274.23,99.52 Z M282.65,90.92 L280.67,83.32 L280.64,83.01 L280.73,82.71 L280.91,82.45 L281.17,82.28 L281.47,82.20 L281.78,82.23 L282.06,82.36 L282.28,82.58 L282.41,82.87 L284.40,90.47 L284.42,90.78 L284.34,91.08 L284.16,91.34 L283.90,91.51 L283.60,91.59 L283.29,91.56 L283.00,91.43 L282.78,91.21 Z" />
        </g>
        <g id="Regular-S">
            <path d="M441.90,117.21 L441.99,116.69 L442.07,116.16 L442.16,115.64 L442.24,115.12 L442.33,114.60 L442.41,114.08 L442.51,113.44 L442.71,112.78 L442.89,112.24 L443.06,111.74 L443.23,111.24 L443.40,110.74 L443.57,110.24 L443.74,109.74 L443.91,109.23 L444.13,108.59 L444.44,108.00 L444.69,107.54 L444.93,107.07 L445.18,106.60 L445.42,106.13 L445.67,105.66 L445.91,105.19 L446.16,104.73 L446.44,104.18 L446.80,103.62 L447.14,103.15 L447.45,102.72 L447.76,102.30 L448.07,101.87 L448.38,101.44 L448.69,101.01 L448.99,100.58 L449.30,100.15 L449.66,99.66 L450.09,99.17 L450.48,98.75 L450.84,98.37 L451.20,97.98 L451.56,97.60 L451.93,97.21 L452.29,96.83 L452.65,96.44 L453.01,96.06 L453.38,95.66 L453.83,95.20 L454.31,94.80 L454.72,94.46 L455.12,94.12 L455.53,93.78 L455.93,93.44 L456.34,93.10 L456.74,92.76 L457.15,92.42 L457.55,92.08 L457.96,91.74 L458.40,91.37 L458.91,90.99 L459.39,90.67 L459.83,90.38 L460.27,90.08 L460.71,89.79 L461.15,89.50 L461.59,89.20 L462.03,88.91 L462.47,88.62 L462.90,88.32 L463.34,88.03 L463.78,87.74 L464.29,87.40 L464.83,87.10 L465.31,86.84 L465.78,86.59 L466.25,86.35 L466.71,86.10 L467.18,85.85 L467.64,85.60 L468.11,85.35 L468.58,85.10 L469.04,84.85 L469.51,84.61 L469.98,84.36 L470.46,84.10 L471.01,83.82 L471.56,83.59 L472.04,83.39 L472.53,83.18 L473.02,82.98 L473.50,82.77 L473.99,82.57 L474.48,82.36 L474.96,82.15 L475.45,81.95 L475.94,81.74 L476.43,81.54 L476.91,81.33 L477.40,81.13 L477.92,80.91 L478.49,80.69 L479.03,80.51 L479.53,80.35 L480.04,80.19 L480.54,80.02 L481.04,79.86 L481.54,79.69 L482.04,79.53 L482.55,79.36 L483.05,79.20 L483.55,79.04 L484.05,78.87 L484.56,78.71 L485.06,78.54 L485.56,78.38 L486.08,78.21 L486.66,78.03 L487.22,77.90 L487.73,77.77 L488.25,77.65 L488.76,77.52 L489.27,77.39 L489.79,77.27 L490.30,77.14 L490.82,77.02 L491.33,76.89 L491.84,76.77 L492.36,76.64 L492.87,76.52 L493.38,76.39 L493.90,76.27 L494.48,76.12 L495.76,75.91 L497.51,76.98 L497.82,78.48 L497.82,79.20 L497.82,79.72 L497.82,80.25 L497.83,80.78 L497.83,81.31 L497.83,81.84 L497.83,82.37 L497.83,82.90 L497.83,83.53 L497.77,84.15 L497.71,84.68 L497.66,85.20 L497.61,85.73 L497.55,86.25 L497.50,86.78 L497.44,87.31 L497.39,87.83 L497.34,88.36 L497.27,88.96 L497.16,89.58 L497.04,90.13 L496.93,90.65 L496.81,91.16 L496.70,91.68 L496.59,92.20 L496.47,92.71 L496.36,93.23 L496.24,93.74 L496.12,94.33 L495.93,94.94 L495.75,95.48 L495.57,95.98 L495.40,96.48 L495.23,96.98 L495.05,97.48 L494.88,97.98 L494.71,98.48 L494.53,98.98 L494.33,99.56 L494.07,100.14 L493.82,100.64 L493.59,101.12 L493.35,101.59 L493.12,102.07 L492.89,102.54 L492.66,103.02 L492.42,103.49 L492.19,103.97 L491.92,104.52 L491.58,105.07 L491.28,105.53 L490.99,105.97 L490.70,106.42 L490.41,106.86 L490.12,107.30 L489.84,107.75 L489.55,108.19 L489.26,108.63 L488.91,109.17 L488.50,109.66 L488.16,110.07 L487.82,110.47 L487.48,110.88 L487.14,111.28 L486.80,111.69 L486.46,112.09 L486.12,112.50 L485.78,112.91 L485.37,113.40 L484.91,113.83 L484.53,114.19 L484.15,114.56 L483.76,114.92 L483.38,115.29 L483.00,115.65 L482.62,116.02 L482.23,116.38 L481.85,116.74 L481.40,117.17 L480.91,117.56 L480.47,117.89 L480.05,118.21 L479.63,118.53 L479.21,118.85 L478.79,119.17 L478.37,119.49 L477.95,119.81 L477.53,120.13 L477.09,120.47 L476.58,120.84 L476.07,121.15 L475.62,121.42 L475.17,121.70 L474.72,121.98 L474.27,122.25 L473.82,122.53 L473.37,122.80 L472.92,123.08 L472.47,123.36 L471.98,123.66 L471.44,123.96 L470.93,124.21 L470.45,124.44 L469.98,124.67 L469.50,124.91 L469.03,125.14 L468.56,125.37 L468.08,125.61 L467.61,125.84 L467.13,126.07 L466.66,126.30 L466.11,126.57 L465.54,126.79 L465.05,126.99 L464.55,127.18 L464.06,127.37 L463.57,127.56 L463.07,127.75 L462.58,127.94 L462.09,128.13 L461.59,128.32 L461.10,128.51 L460.61,128.70 L460.05,128.92 L459.47,129.09 L458.96,129.24 L458.45,129.39 L457.95,129.54 L457.44,129.69 L456.93,129.84 L456.43,129.99 L455.92,130.14 L455.41,130.29 L454.91,130.44 L454.40,130.59 L453.87,130.75 L453.29,130.91 L452.73,131.03 L452.21,131.14 L451.69,131.25 L451.18,131.37 L450.66,131.48 L450.14,131.59 L449.63,131.70 L449.11,131.81 L448.59,131.92 L448.08,132.03 L447.56,132.15 L446.66,132.34 L444.96,132.00 L444.17,130.71 L443.91,130.06 L443.72,129.57 L443.53,129.08 L443.34,128.58 L443.14,128.09 L442.94,127.58 L442.70,126.92 L442.57,126.26 L442.47,125.74 L442.37,125.22 L442.27,124.70 L442.17,124.18 L442.06,123.67 L441.96,123.11 L441.85,122.42 L441.84,121.76 L441.83,121.23 L441.83,120.70 L441.82,120.17 L441.81,119.64 L441.81,119.11 L441.80,118.59 L441.79,117.89 Z M445.59,118.18 L445.60,118.54 L445.61,119.07 L445.61,119.59 L445.62,120.12 L445.63,120.65 L445.63,121.18 L445.64,121.71 L445.64,122.10 L445.70,122.45 L445.79,122.93 L445.90,123.45 L446.00,123.97 L446.10,124.49 L446.20,125.01 L446.30,125.53 L446.38,125.90 L446.50,126.24 L446.68,126.71 L446.87,127.20 L447.07,127.69 L447.26,128.18 L447.45,128.68 L447.58,129.01 L447.33,128.60 L446.63,128.46 L446.76,128.43 L447.28,128.32 L447.79,128.21 L448.31,128.10 L448.83,127.99 L449.34,127.87 L449.86,127.76 L450.37,127.65 L450.89,127.54 L451.41,127.43 L451.92,127.32 L452.39,127.22 L452.83,127.10 L453.32,126.95 L453.83,126.80 L454.33,126.65 L454.84,126.50 L455.35,126.35 L455.85,126.20 L456.36,126.05 L456.87,125.90 L457.37,125.75 L457.88,125.60 L458.38,125.45 L458.81,125.32 L459.24,125.15 L459.73,124.96 L460.23,124.77 L460.72,124.58 L461.21,124.39 L461.70,124.20 L462.20,124.01 L462.69,123.82 L463.18,123.63 L463.68,123.44 L464.17,123.25 L464.58,123.09 L464.98,122.89 L465.46,122.66 L465.93,122.43 L466.41,122.19 L466.88,121.96 L467.36,121.73 L467.83,121.50 L468.30,121.26 L468.78,121.03 L469.25,120.80 L469.69,120.58 L470.07,120.37 L470.48,120.12 L470.93,119.84 L471.38,119.57 L471.83,119.29 L472.28,119.01 L472.74,118.74 L473.19,118.46 L473.64,118.18 L474.09,117.91 L474.48,117.66 L474.83,117.41 L475.23,117.11 L475.65,116.79 L476.07,116.47 L476.49,116.15 L476.91,115.83 L477.33,115.51 L477.75,115.19 L478.17,114.87 L478.58,114.56 L478.91,114.29 L479.23,113.99 L479.61,113.63 L480.00,113.26 L480.38,112.90 L480.76,112.53 L481.15,112.17 L481.53,111.81 L481.91,111.44 L482.29,111.08 L482.60,110.78 L482.87,110.46 L483.21,110.06 L483.55,109.66 L483.89,109.25 L484.23,108.85 L484.56,108.44 L484.90,108.03 L485.24,107.63 L485.58,107.22 L485.85,106.90 L486.07,106.56 L486.36,106.11 L486.65,105.67 L486.94,105.23 L487.23,104.79 L487.52,104.34 L487.81,103.90 L488.09,103.46 L488.37,103.03 L488.59,102.68 L488.78,102.29 L489.01,101.82 L489.24,101.34 L489.48,100.87 L489.71,100.39 L489.94,99.92 L490.18,99.45 L490.41,98.97 L490.63,98.52 L490.80,98.15 L490.94,97.73 L491.12,97.23 L491.29,96.73 L491.46,96.23 L491.64,95.73 L491.81,95.23 L491.98,94.73 L492.16,94.23 L492.32,93.78 L492.43,93.38 L492.53,92.93 L492.65,92.41 L492.76,91.90 L492.87,91.38 L492.99,90.86 L493.10,90.35 L493.21,89.83 L493.33,89.32 L493.43,88.83 L493.51,88.42 L493.56,87.97 L493.61,87.44 L493.66,86.92 L493.72,86.39 L493.77,85.87 L493.83,85.34 L493.88,84.81 L493.93,84.29 L493.99,83.76 L494.03,83.33 L494.03,82.90 L494.03,82.38 L494.03,81.85 L494.03,81.33 L494.03,80.80 L494.02,80.27 L494.02,79.74 L494.02,79.21 L494.02,78.87 L494.11,79.36 L494.99,79.89 L495.24,79.85 L494.80,79.96 L494.28,80.08 L493.77,80.21 L493.26,80.33 L492.74,80.46 L492.23,80.58 L491.72,80.71 L491.20,80.83 L490.69,80.96 L490.18,81.09 L489.66,81.21 L489.15,81.34 L488.64,81.46 L488.12,81.59 L487.66,81.70 L487.22,81.83 L486.74,81.99 L486.24,82.15 L485.74,82.32 L485.24,82.48 L484.73,82.65 L484.23,82.81 L483.73,82.98 L483.23,83.14 L482.72,83.30 L482.22,83.47 L481.72,83.63 L481.22,83.80 L480.71,83.96 L480.21,84.13 L479.75,84.28 L479.33,84.44 L478.88,84.63 L478.39,84.83 L477.90,85.04 L477.42,85.24 L476.93,85.45 L476.44,85.65 L475.96,85.86 L475.47,86.07 L474.98,86.27 L474.50,86.48 L474.01,86.68 L473.52,86.89 L473.03,87.09 L472.60,87.28 L472.21,87.47 L471.76,87.71 L471.30,87.96 L470.83,88.21 L470.36,88.46 L469.90,88.70 L469.43,88.95 L468.97,89.20 L468.50,89.45 L468.03,89.70 L467.57,89.95 L467.10,90.20 L466.65,90.44 L466.27,90.65 L465.89,90.90 L465.45,91.19 L465.01,91.48 L464.58,91.78 L464.14,92.07 L463.70,92.37 L463.26,92.66 L462.82,92.95 L462.38,93.25 L461.94,93.54 L461.50,93.83 L461.10,94.10 L460.76,94.35 L460.40,94.66 L459.99,95.00 L459.59,95.34 L459.18,95.68 L458.78,96.01 L458.37,96.35 L457.97,96.69 L457.56,97.03 L457.16,97.37 L456.75,97.71 L456.42,97.99 L456.13,98.29 L455.78,98.66 L455.42,99.05 L455.06,99.43 L454.69,99.82 L454.33,100.20 L453.97,100.59 L453.61,100.97 L453.25,101.36 L452.91,101.71 L452.64,102.02 L452.38,102.38 L452.08,102.81 L451.77,103.24 L451.46,103.66 L451.15,104.09 L450.84,104.52 L450.53,104.95 L450.22,105.38 L449.94,105.76 L449.73,106.09 L449.52,106.49 L449.28,106.95 L449.03,107.42 L448.79,107.89 L448.54,108.36 L448.30,108.83 L448.05,109.30 L447.81,109.76 L447.63,110.11 L447.50,110.47 L447.34,110.96 L447.17,111.46 L447.00,111.96 L446.83,112.46 L446.66,112.96 L446.49,113.46 L446.33,113.93 L446.23,114.28 L446.16,114.69 L446.08,115.21 L445.99,115.73 L445.91,116.25 L445.82,116.77 L445.74,117.30 L445.65,117.82 Z M432.65,142.83 L434.38,140.92 L436.15,138.96 L437.97,136.94 L439.85,134.87 L441.79,132.75 L443.79,130.56 L445.85,128.31 L447.97,126.00 L450.17,123.61 L452.43,121.16 L454.77,118.63 L457.19,116.03 L459.68,113.35 L462.25,110.59 L464.91,107.74 L467.65,104.81 L470.49,101.79 L473.41,98.68 L476.43,95.47 L479.54,92.17 L482.76,88.76 L486.08,85.26 L489.50,81.65 L493.03,77.93 L493.56,77.54 L494.19,77.35 L494.85,77.39 L495.45,77.65 L495.93,78.11 L496.23,78.70 L496.30,79.35 L496.15,79.99 L495.78,80.54 L492.25,84.26 L488.83,87.87 L485.52,91.37 L482.31,94.77 L479.19,98.07 L476.18,101.28 L473.26,104.39 L470.43,107.41 L467.68,110.34 L465.03,113.18 L462.46,115.94 L459.97,118.62 L457.56,121.22 L455.22,123.74 L452.96,126.19 L450.77,128.57 L448.65,130.88 L446.59,133.13 L444.60,135.31 L442.66,137.43 L440.79,139.50 L438.97,141.51 L437.20,143.46 L435.48,145.37 L434.96,145.78 L434.33,145.98 L433.67,145.96 L433.06,145.71 L432.57,145.27 L432.26,144.69 L432.17,144.03 L432.30,143.39 Z M458.94,115.46 L471.37,117.86 L471.99,118.09 L472.49,118.52 L472.81,119.10 L472.91,119.75 L472.79,120.40 L472.45,120.97 L471.94,121.38 L471.31,121.60 L470.65,121.59 L458.22,119.19 L457.60,118.96 L457.10,118.52 L456.78,117.95 L456.68,117.29 L456.80,116.65 L457.14,116.08 L457.65,115.66 L458.28,115.45 Z M464.14,109.87 L459.95,94.20 L459.90,93.54 L460.07,92.90 L460.45,92.36 L460.99,91.98 L461.62,91.81 L462.28,91.87 L462.88,92.15 L463.35,92.62 L463.62,93.22 L467.81,108.89 L467.87,109.55 L467.70,110.19 L467.32,110.73 L466.78,111.10 L466.14,111.27 L465.49,111.22 L464.89,110.94 L464.42,110.47 Z M474.46,98.86 L488.38,101.62 L488.99,101.86 L489.49,102.29 L489.80,102.87 L489.91,103.52 L489.78,104.17 L489.44,104.73 L488.92,105.15 L488.30,105.36 L487.64,105.35 L473.72,102.59 L473.11,102.35 L472.61,101.91 L472.29,101.34 L472.19,100.68 L472.32,100.04 L472.66,99.47 L473.18,99.06 L473.80,98.85 Z M481.14,91.77 L479.22,84.39 L479.16,83.73 L479.34,83.10 L479.72,82.56 L480.26,82.19 L480.90,82.02 L481.56,82.08 L482.16,82.36 L482.62,82.83 L482.89,83.43 L484.82,90.81 L484.87,91.47 L484.70,92.11 L484.32,92.64 L483.77,93.02 L483.14,93.19 L482.48,93.12 L481.88,92.84 L481.42,92.37 Z" />
        </g>
        <g id="Black-S">
            <path d="M641.59,116.89 L641.67,116.38 L641.76,115.87 L641.84,115.36 L641.92,114.86 L642.00,114.35 L642.09,113.84 L642.20,113.16 L642.40,112.45 L642.59,111.91 L642.75,111.42 L642.92,110.93 L643.08,110.44 L643.25,109.96 L643.41,109.47 L643.58,108.97 L643.83,108.28 L644.16,107.64 L644.40,107.19 L644.63,106.73 L644.87,106.28 L645.11,105.82 L645.35,105.37 L645.59,104.91 L645.82,104.46 L646.12,103.89 L646.51,103.29 L646.85,102.81 L647.15,102.39 L647.45,101.98 L647.76,101.56 L648.06,101.14 L648.36,100.73 L648.66,100.31 L648.96,99.89 L649.33,99.37 L649.79,98.85 L650.18,98.43 L650.53,98.06 L650.88,97.68 L651.24,97.31 L651.59,96.94 L651.94,96.56 L652.29,96.19 L652.65,95.81 L653.01,95.42 L653.48,94.94 L653.99,94.51 L654.38,94.18 L654.78,93.85 L655.17,93.52 L655.57,93.19 L655.96,92.86 L656.35,92.53 L656.75,92.20 L657.14,91.87 L657.54,91.54 L657.99,91.16 L658.52,90.76 L659.01,90.43 L659.44,90.15 L659.87,89.86 L660.30,89.58 L660.72,89.29 L661.15,89.01 L661.58,88.72 L662.01,88.43 L662.43,88.15 L662.86,87.86 L663.29,87.58 L663.81,87.23 L664.38,86.91 L664.86,86.66 L665.31,86.42 L665.76,86.18 L666.22,85.93 L666.67,85.69 L667.13,85.45 L667.58,85.21 L668.03,84.97 L668.49,84.73 L668.94,84.48 L669.39,84.24 L669.88,83.98 L670.45,83.70 L671.01,83.46 L671.48,83.26 L671.96,83.06 L672.43,82.86 L672.90,82.66 L673.38,82.46 L673.85,82.26 L674.32,82.06 L674.80,81.86 L675.27,81.66 L675.74,81.46 L676.22,81.26 L676.69,81.06 L677.22,80.84 L677.81,80.62 L678.35,80.44 L678.84,80.28 L679.33,80.12 L679.82,79.96 L680.31,79.80 L680.80,79.64 L681.29,79.48 L681.77,79.32 L682.26,79.16 L682.75,79.00 L683.24,78.84 L683.73,78.68 L684.22,78.52 L684.71,78.36 L685.23,78.19 L685.82,78.01 L686.39,77.87 L686.89,77.75 L687.39,77.63 L687.89,77.51 L688.39,77.38 L688.89,77.26 L689.39,77.14 L689.89,77.02 L690.39,76.90 L690.89,76.77 L691.39,76.65 L691.88,76.53 L692.38,76.41 L692.88,76.29 L693.49,76.14 L695.12,75.87 L697.48,77.31 L697.87,79.27 L697.88,80.06 L697.88,80.57 L697.88,81.08 L697.88,81.60 L697.89,82.11 L697.89,82.63 L697.89,83.14 L697.89,83.66 L697.89,84.33 L697.82,84.98 L697.77,85.49 L697.72,86.00 L697.67,86.51 L697.61,87.02 L697.56,87.54 L697.51,88.05 L697.46,88.56 L697.40,89.07 L697.34,89.69 L697.22,90.35 L697.10,90.90 L696.99,91.41 L696.88,91.91 L696.77,92.41 L696.66,92.91 L696.55,93.41 L696.44,93.92 L696.32,94.42 L696.19,95.02 L696.00,95.67 L695.81,96.22 L695.64,96.70 L695.47,97.19 L695.30,97.67 L695.13,98.16 L694.97,98.64 L694.80,99.13 L694.63,99.62 L694.42,100.22 L694.14,100.84 L693.89,101.34 L693.66,101.81 L693.44,102.27 L693.21,102.73 L692.99,103.19 L692.76,103.65 L692.53,104.11 L692.31,104.58 L692.02,105.16 L691.66,105.74 L691.36,106.20 L691.08,106.63 L690.80,107.06 L690.52,107.49 L690.24,107.92 L689.96,108.35 L689.68,108.78 L689.40,109.22 L689.02,109.79 L688.59,110.31 L688.26,110.70 L687.93,111.10 L687.60,111.49 L687.27,111.89 L686.94,112.28 L686.61,112.67 L686.28,113.07 L685.95,113.47 L685.51,113.98 L685.03,114.44 L684.66,114.80 L684.28,115.15 L683.91,115.51 L683.54,115.86 L683.17,116.21 L682.79,116.57 L682.42,116.92 L682.05,117.28 L681.58,117.72 L681.06,118.13 L680.63,118.46 L680.22,118.77 L679.81,119.08 L679.41,119.39 L679.00,119.71 L678.59,120.02 L678.18,120.33 L677.77,120.64 L677.32,120.98 L676.79,121.36 L676.27,121.68 L675.83,121.95 L675.40,122.22 L674.96,122.49 L674.52,122.76 L674.08,123.03 L673.64,123.29 L673.20,123.56 L672.77,123.83 L672.27,124.14 L671.71,124.45 L671.19,124.70 L670.72,124.93 L670.26,125.16 L669.80,125.38 L669.34,125.61 L668.88,125.84 L668.42,126.06 L667.95,126.29 L667.49,126.52 L667.03,126.74 L666.47,127.02 L665.87,127.25 L665.39,127.44 L664.91,127.62 L664.43,127.81 L663.95,128.00 L663.47,128.18 L662.99,128.37 L662.51,128.55 L662.03,128.74 L661.55,128.92 L661.07,129.11 L660.49,129.33 L659.89,129.51 L659.39,129.66 L658.90,129.81 L658.41,129.95 L657.91,130.10 L657.42,130.24 L656.93,130.39 L656.44,130.54 L655.94,130.68 L655.45,130.83 L654.96,130.97 L654.44,131.13 L653.84,131.29 L653.26,131.42 L652.76,131.52 L652.26,131.63 L651.75,131.74 L651.25,131.85 L650.75,131.96 L650.25,132.07 L649.74,132.18 L649.24,132.28 L648.74,132.39 L648.24,132.50 L647.16,132.73 L644.91,132.28 L643.88,130.60 L643.60,129.89 L643.41,129.41 L643.23,128.93 L643.04,128.45 L642.85,127.97 L642.65,127.46 L642.39,126.74 L642.25,126.03 L642.15,125.52 L642.05,125.02 L641.95,124.51 L641.85,124.01 L641.75,123.51 L641.65,122.95 L641.53,122.19 L641.52,121.48 L641.51,120.96 L641.50,120.45 L641.50,119.93 L641.49,119.42 L641.49,118.91 L641.48,118.39 L641.47,117.63 Z M647.07,118.05 L647.08,118.32 L647.08,118.84 L647.09,119.35 L647.10,119.86 L647.10,120.38 L647.11,120.89 L647.12,121.41 L647.12,121.72 L647.16,121.98 L647.25,122.43 L647.35,122.93 L647.45,123.44 L647.55,123.94 L647.65,124.44 L647.74,124.95 L647.80,125.24 L647.89,125.49 L648.07,125.93 L648.25,126.41 L648.44,126.89 L648.63,127.37 L648.82,127.85 L648.91,128.09 L648.40,127.27 L647.12,127.01 L647.05,127.03 L647.56,126.92 L648.06,126.81 L648.56,126.70 L649.06,126.59 L649.57,126.49 L650.07,126.38 L650.57,126.27 L651.07,126.16 L651.58,126.05 L652.08,125.94 L652.51,125.85 L652.90,125.74 L653.37,125.60 L653.86,125.46 L654.35,125.31 L654.84,125.17 L655.34,125.02 L655.83,124.87 L656.32,124.73 L656.82,124.58 L657.31,124.44 L657.80,124.29 L658.29,124.15 L658.67,124.03 L659.05,123.88 L659.53,123.70 L660.01,123.51 L660.49,123.33 L660.97,123.14 L661.45,122.96 L661.93,122.77 L662.41,122.59 L662.89,122.40 L663.37,122.22 L663.84,122.03 L664.21,121.89 L664.56,121.71 L665.03,121.49 L665.49,121.26 L665.95,121.04 L666.41,120.81 L666.87,120.58 L667.33,120.36 L667.80,120.13 L668.26,119.90 L668.72,119.68 L669.12,119.48 L669.45,119.29 L669.84,119.06 L670.27,118.79 L670.71,118.52 L671.15,118.25 L671.59,117.98 L672.03,117.72 L672.47,117.45 L672.90,117.18 L673.34,116.91 L673.70,116.69 L674.00,116.47 L674.37,116.19 L674.78,115.88 L675.19,115.57 L675.60,115.25 L676.01,114.94 L676.42,114.63 L676.83,114.32 L677.23,114.01 L677.63,113.71 L677.91,113.48 L678.19,113.22 L678.56,112.87 L678.93,112.51 L679.31,112.16 L679.68,111.80 L680.05,111.45 L680.42,111.09 L680.80,110.74 L681.17,110.39 L681.43,110.14 L681.66,109.87 L681.98,109.48 L682.31,109.08 L682.64,108.69 L682.97,108.29 L683.30,107.90 L683.63,107.51 L683.96,107.11 L684.29,106.72 L684.51,106.45 L684.70,106.16 L684.98,105.73 L685.27,105.30 L685.55,104.87 L685.83,104.43 L686.11,104.00 L686.39,103.57 L686.67,103.14 L686.93,102.74 L687.11,102.45 L687.28,102.11 L687.50,101.65 L687.73,101.19 L687.96,100.73 L688.18,100.26 L688.41,99.80 L688.64,99.34 L688.86,98.88 L689.07,98.46 L689.21,98.14 L689.34,97.78 L689.51,97.29 L689.68,96.81 L689.84,96.32 L690.01,95.83 L690.18,95.35 L690.35,94.86 L690.52,94.38 L690.67,93.95 L690.77,93.62 L690.86,93.22 L690.97,92.71 L691.08,92.21 L691.19,91.71 L691.30,91.21 L691.41,90.71 L691.52,90.20 L691.63,89.70 L691.73,89.25 L691.79,88.90 L691.83,88.50 L691.89,87.99 L691.94,87.47 L691.99,86.96 L692.04,86.45 L692.10,85.94 L692.15,85.43 L692.20,84.92 L692.25,84.41 L692.29,84.03 L692.29,83.67 L692.29,83.17 L692.29,82.65 L692.29,82.14 L692.28,81.62 L692.28,81.11 L692.28,80.59 L692.28,80.08 L692.28,79.84 L692.47,80.81 L693.98,81.73 L694.61,81.63 L694.21,81.73 L693.71,81.85 L693.21,81.97 L692.72,82.09 L692.22,82.21 L691.72,82.34 L691.22,82.46 L690.72,82.58 L690.22,82.70 L689.72,82.82 L689.22,82.95 L688.72,83.07 L688.22,83.19 L687.72,83.31 L687.29,83.42 L686.90,83.53 L686.45,83.68 L685.96,83.84 L685.47,84.00 L684.98,84.16 L684.49,84.32 L684.00,84.48 L683.52,84.64 L683.03,84.80 L682.54,84.96 L682.05,85.12 L681.56,85.28 L681.07,85.44 L680.58,85.60 L680.09,85.76 L679.66,85.90 L679.29,86.04 L678.87,86.22 L678.40,86.42 L677.92,86.62 L677.45,86.82 L676.98,87.02 L676.50,87.22 L676.03,87.42 L675.55,87.62 L675.08,87.82 L674.61,88.02 L674.13,88.22 L673.66,88.42 L673.19,88.62 L672.80,88.79 L672.45,88.96 L672.03,89.18 L671.57,89.43 L671.12,89.67 L670.67,89.91 L670.21,90.15 L669.76,90.39 L669.31,90.63 L668.85,90.88 L668.40,91.12 L667.94,91.36 L667.49,91.60 L667.06,91.83 L666.73,92.01 L666.40,92.24 L665.97,92.52 L665.54,92.81 L665.12,93.09 L664.69,93.38 L664.26,93.66 L663.83,93.95 L663.40,94.23 L662.98,94.52 L662.55,94.81 L662.12,95.09 L661.76,95.33 L661.47,95.55 L661.13,95.83 L660.74,96.16 L660.35,96.49 L659.95,96.82 L659.56,97.15 L659.16,97.48 L658.77,97.81 L658.38,98.14 L657.98,98.47 L657.59,98.80 L657.31,99.04 L657.06,99.29 L656.72,99.65 L656.37,100.02 L656.02,100.40 L655.67,100.77 L655.32,101.15 L654.96,101.52 L654.61,101.90 L654.26,102.27 L653.94,102.60 L653.73,102.85 L653.50,103.17 L653.20,103.59 L652.90,104.00 L652.60,104.42 L652.30,104.84 L651.99,105.25 L651.69,105.67 L651.39,106.09 L651.14,106.44 L650.97,106.70 L650.79,107.05 L650.55,107.51 L650.31,107.96 L650.07,108.42 L649.83,108.87 L649.60,109.33 L649.36,109.78 L649.12,110.24 L648.98,110.52 L648.88,110.80 L648.72,111.27 L648.55,111.75 L648.39,112.24 L648.22,112.73 L648.06,113.21 L647.89,113.70 L647.75,114.13 L647.67,114.40 L647.61,114.74 L647.53,115.25 L647.45,115.75 L647.37,116.26 L647.28,116.77 L647.20,117.28 L647.12,117.78 Z M632.83,141.33 L634.50,139.47 L636.23,137.56 L638.00,135.60 L639.83,133.58 L641.72,131.51 L643.66,129.39 L645.67,127.20 L647.74,124.95 L649.87,122.63 L652.08,120.24 L654.35,117.78 L656.70,115.25 L659.13,112.64 L661.63,109.95 L664.22,107.18 L666.89,104.33 L669.64,101.39 L672.49,98.36 L675.42,95.24 L678.46,92.02 L681.58,88.71 L684.81,85.30 L688.14,81.79 L691.57,78.17 L692.36,77.59 L693.29,77.32 L694.26,77.38 L695.15,77.77 L695.86,78.44 L696.29,79.31 L696.40,80.27 L696.17,81.22 L695.63,82.03 L692.20,85.64 L688.88,89.15 L685.65,92.56 L682.53,95.87 L679.50,99.08 L676.57,102.20 L673.73,105.22 L670.97,108.16 L668.31,111.01 L665.73,113.77 L663.23,116.45 L660.80,119.06 L658.46,121.59 L656.19,124.04 L653.99,126.42 L651.86,128.74 L649.80,130.98 L647.79,133.17 L645.86,135.29 L643.98,137.35 L642.15,139.36 L640.38,141.32 L638.66,143.22 L636.99,145.07 L636.22,145.67 L635.30,145.97 L634.32,145.94 L633.42,145.57 L632.70,144.92 L632.24,144.06 L632.11,143.10 L632.31,142.15 Z M659.28,114.40 L671.38,116.74 L672.29,117.08 L673.02,117.72 L673.50,118.57 L673.65,119.53 L673.47,120.48 L672.97,121.32 L672.21,121.93 L671.29,122.25 L670.32,122.23 L658.22,119.90 L657.31,119.56 L656.58,118.92 L656.11,118.07 L655.95,117.11 L656.14,116.15 L656.64,115.32 L657.39,114.71 L658.31,114.39 Z M663.25,110.15 L659.17,94.90 L659.09,93.93 L659.34,92.99 L659.90,92.20 L660.69,91.64 L661.63,91.39 L662.60,91.47 L663.48,91.89 L664.17,92.57 L664.58,93.45 L668.66,108.70 L668.74,109.67 L668.49,110.61 L667.93,111.41 L667.13,111.96 L666.19,112.22 L665.23,112.13 L664.34,111.72 L663.66,111.03 Z M674.39,98.26 L687.92,100.94 L688.83,101.29 L689.56,101.93 L690.03,102.78 L690.18,103.75 L689.99,104.70 L689.49,105.53 L688.73,106.14 L687.81,106.45 L686.84,106.43 L673.30,103.75 L672.39,103.40 L671.66,102.76 L671.19,101.91 L671.05,100.94 L671.23,99.99 L671.74,99.16 L672.50,98.55 L673.42,98.24 Z M679.78,92.53 L677.91,85.36 L677.83,84.39 L678.09,83.45 L678.65,82.66 L679.45,82.10 L680.39,81.86 L681.36,81.95 L682.24,82.37 L682.92,83.06 L683.33,83.94 L685.20,91.12 L685.28,92.09 L685.02,93.03 L684.46,93.82 L683.66,94.37 L682.72,94.62 L681.75,94.53 L680.87,94.11 L680.19,93.42 Z" />
        </g>
    </g>
</svg>
