<?xml version="1.0" encoding="UTF-8"?>
<svg height="600" width="800" xmlns="http://www.w3.org/2000/svg" xmlns:xlink="http://www.w3.org/1999/xlink">
    <g id="Notes" font-family="'LucidaGrande', 'Lucida Grande', sans-serif" font-size="13">
        <rect fill="white" height="600.0" width="800.0" x="0.0" y="0.0" />
        <g font-size="13">
            <text x="18.0" y="176.0">Small</text>
            <text x="18.0" y="376.0">Medium</text>
            <text x="18.0" y="576.0">Large</text>
        </g>
        <g font-size="9">
            <text x="250.0" y="30.0">Ultralight</text>
            <text x="450.0" y="30.0">Regular</text>
            <text x="650.0" y="30.0">Black</text>
            <text id="template-version" fill="#505050" text-anchor="end" x="785.0" y="575.0">Template v.3.0</text>
            <a href="https://wangchujiang.com/#/app">
                <text fill="#505050" text-anchor="end" x="785.0" y="590.0">https://wangchujiang.com/#/app</text>
            </a>
        </g>
    </g>
    <g id="Guides" stroke="rgb(39, 170, 225)" stroke-width="0.5">
        <path id="Capline-S" d="M18,76 l800,0" />
        <path id="H-reference" d="M85,145.755 L87.685,145.755 L113.369,79.287 L114.052,79.287 L114.052,76 L112.148,76 L85,145.755 Z M95.693,121.536 L130.996,121.536 L130.263,119.313 L96.474,119.313 L95.693,121.536 Z M139.15,145.755 L141.787,145.755 L114.638,76 L113.466,76 L113.466,79.287 L139.15,145.755 Z" stroke="none" />
        <path id="Baseline-S" d="M18,146 l800,0" />
        <path id="left-margin-Ultralight-S" d="M221,56 l0,110" />
        <path id="right-margin-Ultralight-S" d="M309,56 l0,110" />
        <path id="left-margin-Regular-S" d="M421,56 l0,110" />
        <path id="right-margin-Regular-S" d="M509,56 l0,110" />
        <path id="left-margin-Black-S" d="M621,56 l0,110" />
        <path id="right-margin-Black-S" d="M709,56 l0,110" />
        <path id="Capline-M" d="M18,276 l800,0" />
        <path id="Baseline-M" d="M18,346 l800,0" />
        <path id="Capline-L" d="M18,476 l800,0" />
        <path id="Baseline-L" d="M18,546 l800,0" />
    </g>
    <g id="Symbols">
        <g id="Ultralight-S">
            <path d="M281.333,146 C290.354,146 297.667,138.687 297.667,129.667 C297.667,120.646 290.354,113.333 281.333,113.333 C272.313,113.333 265,120.646 265,129.667 C265,138.687 272.313,146 281.333,146 M289.169,125.033 L282.939,135.421 C282.384,136.345 281.434,136.963 280.363,137.094 C279.293,137.225 278.222,136.856 277.46,136.093 L273.848,132.485 C272.935,131.57 272.937,130.09 273.85,129.179 C274.764,128.268 276.243,128.27 277.154,129.183 L279.707,131.741 L285.167,122.636 C285.828,121.531 287.262,121.171 288.367,121.833 C289.473,122.495 289.833,123.928 289.171,125.034" />
            <path d="M279.448,100.374 C280.936,99.707 282.35,98.886 283.667,97.924 L283.667,104 C283.667,105.349 282.673,107.052 280.153,108.699 C282.93,108.543 285.711,108.939 288.333,109.866 L288.333,90 C288.333,85.301 284.25,81.81 279.448,79.626 C274.436,77.349 267.674,76 260.333,76 C252.993,76 246.231,77.349 241.219,79.626 C236.417,81.81 232.333,85.301 232.333,90 L232.333,132 C232.333,136.699 236.417,140.19 241.219,142.374 C246.231,144.647 252.993,146 260.333,146 C262.835,146 265.271,145.841 267.59,145.547 C266.133,144.286 264.856,142.831 263.796,141.221 C262.664,141.296 261.509,141.296 260.333,141.333 C253.501,141.333 247.425,140.073 243.151,138.127 C238.661,136.083 237,133.741 237,132 L237,125.924 C238.265,126.867 239.707,127.688 241.219,128.374 C246.231,130.647 252.993,132 260.333,132 L260.459,132 C260.29,130.449 260.29,128.884 260.459,127.333 L260.333,127.333 C253.501,127.333 247.425,126.073 243.151,124.127 C238.661,122.083 237,119.741 237,118 L237,111.924 C238.265,112.867 239.707,113.688 241.219,114.374 C246.231,116.647 252.993,118 260.333,118 C261.556,118 262.76,118 263.945,117.888 C265.335,115.838 267.076,114.049 269.088,112.605 C266.391,113.072 263.441,113.333 260.333,113.333 C253.501,113.333 247.425,112.073 243.151,110.127 C238.661,108.083 237,105.741 237,104 L237,97.924 C238.265,98.867 239.707,99.688 241.219,100.374 C246.231,102.651 252.993,104 260.333,104 C267.674,104 274.436,102.651 279.448,100.374 M237,90 C237,88.255 238.661,85.917 243.151,83.873 C247.425,81.931 253.501,80.667 260.333,80.667 C267.165,80.667 273.241,81.927 277.516,83.873 C282.005,85.917 283.667,88.259 283.667,90 C283.667,91.745 282.005,94.083 277.516,96.127 C273.241,98.069 267.165,99.333 260.333,99.333 C253.501,99.333 247.425,98.073 243.151,96.127 C238.661,94.083 237,91.741 237,90" />
        </g>
        <g id="Regular-S">
            <path d="M481.333,146 C490.354,146 497.667,138.687 497.667,129.667 C497.667,120.646 490.354,113.333 481.333,113.333 C472.313,113.333 465,120.646 465,129.667 C465,138.687 472.313,146 481.333,146 M489.169,125.033 L482.939,135.421 C482.384,136.345 481.434,136.963 480.363,137.094 C479.293,137.225 478.222,136.856 477.46,136.093 L473.848,132.485 C472.935,131.57 472.937,130.09 473.85,129.179 C474.764,128.268 476.243,128.27 477.154,129.183 L479.707,131.741 L485.167,122.636 C485.828,121.531 487.262,121.171 488.367,121.833 C489.473,122.495 489.833,123.928 489.171,125.034" />
            <path d="M479.448,100.374 C480.936,99.707 482.35,98.886 483.667,97.924 L483.667,104 C483.667,105.349 482.673,107.052 480.153,108.699 C482.93,108.543 485.711,108.939 488.333,109.866 L488.333,90 C488.333,85.301 484.25,81.81 479.448,79.626 C474.436,77.349 467.674,76 460.333,76 C452.993,76 446.231,77.349 441.219,79.626 C436.417,81.81 432.333,85.301 432.333,90 L432.333,132 C432.333,136.699 436.417,140.19 441.219,142.374 C446.231,144.647 452.993,146 460.333,146 C462.835,146 465.271,145.841 467.59,145.547 C466.133,144.286 464.856,142.831 463.796,141.221 C462.664,141.296 461.509,141.296 460.333,141.333 C453.501,141.333 447.425,140.073 443.151,138.127 C438.661,136.083 437,133.741 437,132 L437,125.924 C438.265,126.867 439.707,127.688 441.219,128.374 C446.231,130.647 452.993,132 460.333,132 L460.459,132 C460.29,130.449 460.29,128.884 460.459,127.333 L460.333,127.333 C453.501,127.333 447.425,126.073 443.151,124.127 C438.661,122.083 437,119.741 437,118 L437,111.924 C438.265,112.867 439.707,113.688 441.219,114.374 C446.231,116.647 452.993,118 460.333,118 C461.556,118 462.76,118 463.945,117.888 C465.335,115.838 467.076,114.049 469.088,112.605 C466.391,113.072 463.441,113.333 460.333,113.333 C453.501,113.333 447.425,112.073 443.151,110.127 C438.661,108.083 437,105.741 437,104 L437,97.924 C438.265,98.867 439.707,99.688 441.219,100.374 C446.231,102.651 452.993,104 460.333,104 C467.674,104 474.436,102.651 479.448,100.374 M437,90 C437,88.255 438.661,85.917 443.151,83.873 C447.425,81.931 453.501,80.667 460.333,80.667 C467.165,80.667 473.241,81.927 477.516,83.873 C482.005,85.917 483.667,88.259 483.667,90 C483.667,91.745 482.005,94.083 477.516,96.127 C473.241,98.069 467.165,99.333 460.333,99.333 C453.501,99.333 447.425,98.073 443.151,96.127 C438.661,94.083 437,91.741 437,90" />
        </g>
        <g id="Black-S">
            <path d="M681.333,146 C690.354,146 697.667,138.687 697.667,129.667 C697.667,120.646 690.354,113.333 681.333,113.333 C672.313,113.333 665,120.646 665,129.667 C665,138.687 672.313,146 681.333,146 M689.169,125.033 L682.939,135.421 C682.384,136.345 681.434,136.963 680.363,137.094 C679.293,137.225 678.222,136.856 677.46,136.093 L673.848,132.485 C672.935,131.57 672.937,130.09 673.85,129.179 C674.764,128.268 676.243,128.27 677.154,129.183 L679.707,131.741 L685.167,122.636 C685.828,121.531 687.262,121.171 688.367,121.833 C689.473,122.495 689.833,123.928 689.171,125.034" />
            <path d="M679.448,100.374 C680.936,99.707 682.35,98.886 683.667,97.924 L683.667,104 C683.667,105.349 682.673,107.052 680.153,108.699 C682.93,108.543 685.711,108.939 688.333,109.866 L688.333,90 C688.333,85.301 684.25,81.81 679.448,79.626 C674.436,77.349 667.674,76 660.333,76 C652.993,76 646.231,77.349 641.219,79.626 C636.417,81.81 632.333,85.301 632.333,90 L632.333,132 C632.333,136.699 636.417,140.19 641.219,142.374 C646.231,144.647 652.993,146 660.333,146 C662.835,146 665.271,145.841 667.59,145.547 C666.133,144.286 664.856,142.831 663.796,141.221 C662.664,141.296 661.509,141.296 660.333,141.333 C653.501,141.333 647.425,140.073 643.151,138.127 C638.661,136.083 637,133.741 637,132 L637,125.924 C638.265,126.867 639.707,127.688 641.219,128.374 C646.231,130.647 652.993,132 660.333,132 L660.459,132 C660.29,130.449 660.29,128.884 660.459,127.333 L660.333,127.333 C653.501,127.333 647.425,126.073 643.151,124.127 C638.661,122.083 637,119.741 637,118 L637,111.924 C638.265,112.867 639.707,113.688 641.219,114.374 C646.231,116.647 652.993,118 660.333,118 C661.556,118 662.76,118 663.945,117.888 C665.335,115.838 667.076,114.049 669.088,112.605 C666.391,113.072 663.441,113.333 660.333,113.333 C653.501,113.333 647.425,112.073 643.151,110.127 C638.661,108.083 637,105.741 637,104 L637,97.924 C638.265,98.867 639.707,99.688 641.219,100.374 C646.231,102.651 652.993,104 660.333,104 C667.674,104 674.436,102.651 679.448,100.374 M637,90 C637,88.255 638.661,85.917 643.151,83.873 C647.425,81.931 653.501,80.667 660.333,80.667 C667.165,80.667 673.241,81.927 677.516,83.873 C682.005,85.917 683.667,88.259 683.667,90 C683.667,91.745 682.005,94.083 677.516,96.127 C673.241,98.069 667.165,99.333 660.333,99.333 C653.501,99.333 647.425,98.073 643.151,96.127 C638.661,94.083 637,91.741 637,90" />
        </g>
    </g>
</svg>